G04 #@! TF.GenerationSoftware,KiCad,Pcbnew,9.0.4-9.0.4-0~ubuntu24.04.1*
G04 #@! TF.CreationDate,2026-01-10T22:59:58+01:00*
G04 #@! TF.ProjectId,BSH_FRG_10024820,4253485f-4652-4475-9f31-303032343832,1*
G04 #@! TF.SameCoordinates,Original*
G04 #@! TF.FileFunction,Copper,L1,Top*
G04 #@! TF.FilePolarity,Positive*
%FSLAX46Y46*%
G04 Gerber Fmt 4.6, Leading zero omitted, Abs format (unit mm)*
G04 Created by KiCad (PCBNEW 9.0.4-9.0.4-0~ubuntu24.04.1) date 2026-01-10 22:59:58*
%MOMM*%
%LPD*%
G01*
G04 APERTURE LIST*
G04 #@! TA.AperFunction,Conductor*
%ADD10C,0.200000*%
G04 #@! TD*
G04 #@! TA.AperFunction,SMDPad,CuDef*
%ADD11R,0.600000X0.500000*%
G04 #@! TD*
G04 #@! TA.AperFunction,SMDPad,CuDef*
%ADD12R,0.600000X2.400000*%
G04 #@! TD*
G04 #@! TA.AperFunction,SMDPad,CuDef*
%ADD13R,1.600000X2.400000*%
G04 #@! TD*
G04 #@! TA.AperFunction,Conductor*
%ADD14C,1.000000*%
G04 #@! TD*
G04 APERTURE END LIST*
G04 #@! TO.N,/A*
D10*
X195600000Y-112000000D02*
X200600000Y-112000000D01*
X200600000Y-113800000D01*
X195600000Y-113800000D01*
X195600000Y-112000000D01*
G04 #@! TA.AperFunction,Conductor*
G36*
X195600000Y-112000000D02*
G01*
X200600000Y-112000000D01*
X200600000Y-113800000D01*
X195600000Y-113800000D01*
X195600000Y-112000000D01*
G37*
G04 #@! TD.AperFunction*
G04 #@! TO.N,/K*
X195600000Y-109200000D02*
X200600000Y-109200000D01*
X200600000Y-111000000D01*
X195600000Y-111000000D01*
X195600000Y-109200000D01*
G04 #@! TA.AperFunction,Conductor*
G36*
X195600000Y-109200000D02*
G01*
X200600000Y-109200000D01*
X200600000Y-111000000D01*
X195600000Y-111000000D01*
X195600000Y-109200000D01*
G37*
G04 #@! TD.AperFunction*
G04 #@! TD*
D11*
G04 #@! TO.P,D1,2,A*
G04 #@! TO.N,/A*
X140050000Y-110000000D03*
D12*
X140350000Y-110000000D03*
D13*
G04 #@! TO.P,D1,1,K*
G04 #@! TO.N,/K*
X142000000Y-110000000D03*
G04 #@! TD*
D14*
G04 #@! TO.N,/A*
X137200000Y-113900000D02*
X137200000Y-110300000D01*
X137200000Y-110300000D02*
X137500000Y-110000000D01*
X137500000Y-114200000D02*
X137200000Y-113900000D01*
X137500000Y-110000000D02*
X140050000Y-110000000D01*
X192150000Y-114200000D02*
X137500000Y-114200000D01*
X193450000Y-112900000D02*
X192150000Y-114200000D01*
X198000000Y-112900000D02*
X193450000Y-112900000D01*
G04 #@! TD*
G04 #@! TA.AperFunction,Conductor*
G04 #@! TO.N,/K*
G36*
X193167539Y-106220185D02*
G01*
X193213294Y-106272989D01*
X193224500Y-106324500D01*
X193224500Y-107960118D01*
X193224500Y-108039882D01*
X193255024Y-108113574D01*
X193311426Y-108169976D01*
X193385118Y-108200500D01*
X200600500Y-108200500D01*
X200667539Y-108220185D01*
X200713294Y-108272989D01*
X200724500Y-108324500D01*
X200724500Y-111275500D01*
X200704815Y-111342539D01*
X200652011Y-111388294D01*
X200600500Y-111399500D01*
X195520943Y-111399500D01*
X195368216Y-111440423D01*
X195368209Y-111440426D01*
X195231290Y-111519475D01*
X195231282Y-111519481D01*
X195119481Y-111631282D01*
X195119475Y-111631290D01*
X195040426Y-111768209D01*
X195040423Y-111768214D01*
X195029872Y-111807594D01*
X194993506Y-111867254D01*
X194930659Y-111897783D01*
X194910097Y-111899500D01*
X193421128Y-111899500D01*
X193354089Y-111879815D01*
X193308334Y-111827011D01*
X193298390Y-111757853D01*
X193298655Y-111756102D01*
X193300088Y-111747059D01*
X193325500Y-111586611D01*
X193325500Y-111413389D01*
X193298402Y-111242299D01*
X193244873Y-111077555D01*
X193166232Y-110923212D01*
X193064414Y-110783072D01*
X192941928Y-110660586D01*
X192801788Y-110558768D01*
X192647445Y-110480127D01*
X192482701Y-110426598D01*
X192482699Y-110426597D01*
X192482698Y-110426597D01*
X192351271Y-110405781D01*
X192311611Y-110399500D01*
X192138389Y-110399500D01*
X192098728Y-110405781D01*
X191967302Y-110426597D01*
X191802552Y-110480128D01*
X191648211Y-110558768D01*
X191572778Y-110613574D01*
X191508072Y-110660586D01*
X191508070Y-110660588D01*
X191508069Y-110660588D01*
X191385588Y-110783069D01*
X191385588Y-110783070D01*
X191385586Y-110783072D01*
X191370477Y-110803868D01*
X191283768Y-110923211D01*
X191205128Y-111077552D01*
X191151597Y-111242302D01*
X191124500Y-111413389D01*
X191124500Y-111586610D01*
X191151344Y-111756102D01*
X191151598Y-111757701D01*
X191205127Y-111922445D01*
X191283768Y-112076788D01*
X191385586Y-112216928D01*
X191508072Y-112339414D01*
X191648212Y-112441232D01*
X191802555Y-112519873D01*
X191967299Y-112573402D01*
X191967302Y-112573402D01*
X191967303Y-112573403D01*
X192029098Y-112583190D01*
X192067386Y-112589254D01*
X192130521Y-112619183D01*
X192167453Y-112678494D01*
X192166455Y-112748357D01*
X192135670Y-112799408D01*
X191771899Y-113163181D01*
X191710576Y-113196666D01*
X191684218Y-113199500D01*
X138324500Y-113199500D01*
X138257461Y-113179815D01*
X138211706Y-113127011D01*
X138200500Y-113075500D01*
X138200500Y-111124500D01*
X138220185Y-111057461D01*
X138272989Y-111011706D01*
X138324500Y-111000500D01*
X139425501Y-111000500D01*
X139492540Y-111020185D01*
X139538295Y-111072989D01*
X139549501Y-111124500D01*
X139549501Y-111247876D01*
X139555908Y-111307483D01*
X139606202Y-111442328D01*
X139606206Y-111442335D01*
X139692452Y-111557544D01*
X139692455Y-111557547D01*
X139807664Y-111643793D01*
X139807671Y-111643797D01*
X139817616Y-111647506D01*
X139942517Y-111694091D01*
X140002127Y-111700500D01*
X140697872Y-111700499D01*
X140757483Y-111694091D01*
X140882384Y-111647505D01*
X140952073Y-111642522D01*
X140969049Y-111647506D01*
X141092623Y-111693597D01*
X141092627Y-111693598D01*
X141152155Y-111699999D01*
X141152172Y-111700000D01*
X141750000Y-111700000D01*
X142250000Y-111700000D01*
X142847828Y-111700000D01*
X142847844Y-111699999D01*
X142907372Y-111693598D01*
X142907379Y-111693596D01*
X143042086Y-111643354D01*
X143042093Y-111643350D01*
X143157187Y-111557190D01*
X143157190Y-111557187D01*
X143243350Y-111442093D01*
X143243354Y-111442086D01*
X143293596Y-111307379D01*
X143293598Y-111307372D01*
X143299999Y-111247844D01*
X143300000Y-111247827D01*
X143300000Y-110250000D01*
X142250000Y-110250000D01*
X142250000Y-111700000D01*
X141750000Y-111700000D01*
X141750000Y-109750000D01*
X142250000Y-109750000D01*
X143300000Y-109750000D01*
X143300000Y-108752172D01*
X143299999Y-108752155D01*
X143293598Y-108692627D01*
X143293596Y-108692620D01*
X143243354Y-108557913D01*
X143243350Y-108557906D01*
X143157190Y-108442812D01*
X143157187Y-108442809D01*
X143042093Y-108356649D01*
X143042086Y-108356645D01*
X142907379Y-108306403D01*
X142907372Y-108306401D01*
X142847844Y-108300000D01*
X142250000Y-108300000D01*
X142250000Y-109750000D01*
X141750000Y-109750000D01*
X141750000Y-108300000D01*
X141152155Y-108300000D01*
X141092627Y-108306401D01*
X141092619Y-108306403D01*
X140969046Y-108352493D01*
X140899354Y-108357477D01*
X140882389Y-108352496D01*
X140807328Y-108324500D01*
X140757485Y-108305909D01*
X140747548Y-108304840D01*
X140697873Y-108299500D01*
X140697863Y-108299500D01*
X140002129Y-108299500D01*
X140002123Y-108299501D01*
X139942516Y-108305908D01*
X139807671Y-108356202D01*
X139807664Y-108356206D01*
X139692455Y-108442452D01*
X139692452Y-108442455D01*
X139606206Y-108557664D01*
X139606202Y-108557671D01*
X139555908Y-108692517D01*
X139549501Y-108752116D01*
X139549500Y-108752135D01*
X139549500Y-108875500D01*
X139529815Y-108942539D01*
X139477011Y-108988294D01*
X139425500Y-108999500D01*
X137401455Y-108999500D01*
X137304812Y-109018724D01*
X137208167Y-109037947D01*
X137208161Y-109037949D01*
X137154834Y-109060037D01*
X137154834Y-109060038D01*
X137109315Y-109078892D01*
X137026089Y-109113366D01*
X137026079Y-109113371D01*
X136862219Y-109222859D01*
X136792540Y-109292538D01*
X136722861Y-109362218D01*
X136722858Y-109362221D01*
X136562221Y-109522858D01*
X136562218Y-109522861D01*
X136492538Y-109592540D01*
X136422859Y-109662219D01*
X136313371Y-109826079D01*
X136313364Y-109826092D01*
X136237950Y-110008160D01*
X136237947Y-110008170D01*
X136199500Y-110201456D01*
X136199500Y-110201459D01*
X136199500Y-113998541D01*
X136199500Y-113998543D01*
X136199499Y-113998543D01*
X136237947Y-114191829D01*
X136237950Y-114191839D01*
X136313364Y-114373907D01*
X136313371Y-114373920D01*
X136422860Y-114537781D01*
X136422863Y-114537785D01*
X136566537Y-114681459D01*
X136566559Y-114681479D01*
X136719735Y-114834655D01*
X136719764Y-114834686D01*
X136862214Y-114977136D01*
X136862218Y-114977139D01*
X137026079Y-115086628D01*
X137026092Y-115086635D01*
X137154833Y-115139961D01*
X137208159Y-115162049D01*
X137208164Y-115162051D01*
X137248006Y-115169976D01*
X137286369Y-115177607D01*
X137401456Y-115200500D01*
X137401459Y-115200500D01*
X192248543Y-115200500D01*
X192284977Y-115193252D01*
X192401994Y-115169976D01*
X192441836Y-115162051D01*
X192495165Y-115139961D01*
X192623914Y-115086632D01*
X192787782Y-114977139D01*
X192927139Y-114837782D01*
X192927139Y-114837780D01*
X192937347Y-114827573D01*
X192937348Y-114827570D01*
X193828102Y-113936819D01*
X193889425Y-113903334D01*
X193915783Y-113900500D01*
X194910097Y-113900500D01*
X194977136Y-113920185D01*
X195022891Y-113972989D01*
X195029872Y-113992406D01*
X195040423Y-114031785D01*
X195040426Y-114031790D01*
X195119475Y-114168709D01*
X195119479Y-114168714D01*
X195119480Y-114168716D01*
X195231284Y-114280520D01*
X195231286Y-114280521D01*
X195231290Y-114280524D01*
X195368209Y-114359573D01*
X195368216Y-114359577D01*
X195520943Y-114400500D01*
X195520945Y-114400500D01*
X200600500Y-114400500D01*
X200609185Y-114403050D01*
X200618147Y-114401762D01*
X200642187Y-114412740D01*
X200667539Y-114420185D01*
X200673466Y-114427025D01*
X200681703Y-114430787D01*
X200695992Y-114453021D01*
X200713294Y-114472989D01*
X200715581Y-114483503D01*
X200719477Y-114489565D01*
X200724500Y-114524500D01*
X200724500Y-114675500D01*
X200704815Y-114742539D01*
X200652011Y-114788294D01*
X200600500Y-114799500D01*
X193385116Y-114799500D01*
X193311425Y-114830024D01*
X193255024Y-114886425D01*
X193224500Y-114960116D01*
X193224500Y-116675500D01*
X193204815Y-116742539D01*
X193152011Y-116788294D01*
X193100500Y-116799500D01*
X90249500Y-116799500D01*
X90182461Y-116779815D01*
X90136706Y-116727011D01*
X90125500Y-116675500D01*
X90125500Y-112824500D01*
X90145185Y-112757461D01*
X90197989Y-112711706D01*
X90249500Y-112700500D01*
X91230026Y-112700500D01*
X91230030Y-112700500D01*
X91436899Y-112664024D01*
X91634291Y-112592179D01*
X91816209Y-112487149D01*
X91977124Y-112352124D01*
X92112149Y-112191209D01*
X92217179Y-112009291D01*
X92289024Y-111811899D01*
X92325500Y-111605030D01*
X92325500Y-111394970D01*
X92289024Y-111188101D01*
X92217179Y-110990709D01*
X92112149Y-110808791D01*
X91977124Y-110647876D01*
X91816209Y-110512851D01*
X91666812Y-110426597D01*
X91634295Y-110407823D01*
X91634292Y-110407822D01*
X91634291Y-110407821D01*
X91609364Y-110398748D01*
X91436898Y-110335975D01*
X91230032Y-110299500D01*
X91230030Y-110299500D01*
X91164882Y-110299500D01*
X90249500Y-110299500D01*
X90182461Y-110279815D01*
X90136706Y-110227011D01*
X90125500Y-110175500D01*
X90125500Y-106324500D01*
X90145185Y-106257461D01*
X90197989Y-106211706D01*
X90249500Y-106200500D01*
X193100500Y-106200500D01*
X193167539Y-106220185D01*
G37*
G04 #@! TD.AperFunction*
G04 #@! TD*
M02*
