%TF.GenerationSoftware,KiCad,Pcbnew,9.0.4-9.0.4-0~ubuntu24.04.1*%
%TF.CreationDate,2026-01-10T22:59:58+01:00*%
%TF.ProjectId,BSH_FRG_10024820,4253485f-4652-4475-9f31-303032343832,1*%
%TF.SameCoordinates,Original*%
%TF.FileFunction,Drillmap*%
%TF.FilePolarity,Positive*%
%FSLAX45Y45*%
G04 Gerber Fmt 4.5, Leading zero omitted, Abs format (unit mm)*
G04 Created by KiCad (PCBNEW 9.0.4-9.0.4-0~ubuntu24.04.1) date 2026-01-10 22:59:58*
%MOMM*%
%LPD*%
G01*
G04 APERTURE LIST*
%ADD10C,0.050000*%
%ADD11C,0.200000*%
G04 APERTURE END LIST*
D10*
X8992500Y-11250000D02*
X8992500Y-11700000D01*
X9112500Y-11050000D02*
X8992500Y-11050000D01*
X9112500Y-11250000D02*
X8992500Y-11250000D01*
X9112500Y-11050000D02*
G75*
G02*
X9112500Y-11250000I0J-100000D01*
G01*
X19342500Y-11700000D02*
X8992500Y-11700000D01*
X8992500Y-10600000D02*
X19342500Y-10600000D01*
X19312500Y-11150000D02*
G75*
G02*
X19132500Y-11150000I-90000J0D01*
G01*
X19132500Y-11150000D02*
G75*
G02*
X19312500Y-11150000I90000J0D01*
G01*
X19342500Y-11500000D02*
X19342500Y-11700000D01*
X19342500Y-10800000D02*
X19342500Y-10600000D01*
X19342500Y-10800000D02*
X20092500Y-10800000D01*
X8992500Y-11050000D02*
X8992500Y-10600000D01*
X20092500Y-10800000D02*
X20092500Y-11500000D01*
X20092500Y-11500000D02*
X19342500Y-11500000D01*
D11*
X9250777Y-12013984D02*
X9250777Y-11813984D01*
X9250777Y-11813984D02*
X9298396Y-11813984D01*
X9298396Y-11813984D02*
X9326967Y-11823508D01*
X9326967Y-11823508D02*
X9346015Y-11842555D01*
X9346015Y-11842555D02*
X9355539Y-11861603D01*
X9355539Y-11861603D02*
X9365063Y-11899698D01*
X9365063Y-11899698D02*
X9365063Y-11928269D01*
X9365063Y-11928269D02*
X9355539Y-11966365D01*
X9355539Y-11966365D02*
X9346015Y-11985412D01*
X9346015Y-11985412D02*
X9326967Y-12004460D01*
X9326967Y-12004460D02*
X9298396Y-12013984D01*
X9298396Y-12013984D02*
X9250777Y-12013984D01*
X9450777Y-12013984D02*
X9450777Y-11880650D01*
X9450777Y-11918746D02*
X9460301Y-11899698D01*
X9460301Y-11899698D02*
X9469824Y-11890174D01*
X9469824Y-11890174D02*
X9488872Y-11880650D01*
X9488872Y-11880650D02*
X9507920Y-11880650D01*
X9574586Y-12013984D02*
X9574586Y-11880650D01*
X9574586Y-11813984D02*
X9565063Y-11823508D01*
X9565063Y-11823508D02*
X9574586Y-11833031D01*
X9574586Y-11833031D02*
X9584110Y-11823508D01*
X9584110Y-11823508D02*
X9574586Y-11813984D01*
X9574586Y-11813984D02*
X9574586Y-11833031D01*
X9698396Y-12013984D02*
X9679348Y-12004460D01*
X9679348Y-12004460D02*
X9669824Y-11985412D01*
X9669824Y-11985412D02*
X9669824Y-11813984D01*
X9803158Y-12013984D02*
X9784110Y-12004460D01*
X9784110Y-12004460D02*
X9774586Y-11985412D01*
X9774586Y-11985412D02*
X9774586Y-11813984D01*
X10031729Y-12013984D02*
X10031729Y-11813984D01*
X10031729Y-11813984D02*
X10098396Y-11956841D01*
X10098396Y-11956841D02*
X10165063Y-11813984D01*
X10165063Y-11813984D02*
X10165063Y-12013984D01*
X10346015Y-12013984D02*
X10346015Y-11909222D01*
X10346015Y-11909222D02*
X10336491Y-11890174D01*
X10336491Y-11890174D02*
X10317444Y-11880650D01*
X10317444Y-11880650D02*
X10279348Y-11880650D01*
X10279348Y-11880650D02*
X10260301Y-11890174D01*
X10346015Y-12004460D02*
X10326967Y-12013984D01*
X10326967Y-12013984D02*
X10279348Y-12013984D01*
X10279348Y-12013984D02*
X10260301Y-12004460D01*
X10260301Y-12004460D02*
X10250777Y-11985412D01*
X10250777Y-11985412D02*
X10250777Y-11966365D01*
X10250777Y-11966365D02*
X10260301Y-11947317D01*
X10260301Y-11947317D02*
X10279348Y-11937793D01*
X10279348Y-11937793D02*
X10326967Y-11937793D01*
X10326967Y-11937793D02*
X10346015Y-11928269D01*
X10441253Y-11880650D02*
X10441253Y-12080650D01*
X10441253Y-11890174D02*
X10460301Y-11880650D01*
X10460301Y-11880650D02*
X10498396Y-11880650D01*
X10498396Y-11880650D02*
X10517444Y-11890174D01*
X10517444Y-11890174D02*
X10526967Y-11899698D01*
X10526967Y-11899698D02*
X10536491Y-11918746D01*
X10536491Y-11918746D02*
X10536491Y-11975888D01*
X10536491Y-11975888D02*
X10526967Y-11994936D01*
X10526967Y-11994936D02*
X10517444Y-12004460D01*
X10517444Y-12004460D02*
X10498396Y-12013984D01*
X10498396Y-12013984D02*
X10460301Y-12013984D01*
X10460301Y-12013984D02*
X10441253Y-12004460D01*
X10622205Y-11994936D02*
X10631729Y-12004460D01*
X10631729Y-12004460D02*
X10622205Y-12013984D01*
X10622205Y-12013984D02*
X10612682Y-12004460D01*
X10612682Y-12004460D02*
X10622205Y-11994936D01*
X10622205Y-11994936D02*
X10622205Y-12013984D01*
X10622205Y-11890174D02*
X10631729Y-11899698D01*
X10631729Y-11899698D02*
X10622205Y-11909222D01*
X10622205Y-11909222D02*
X10612682Y-11899698D01*
X10612682Y-11899698D02*
X10622205Y-11890174D01*
X10622205Y-11890174D02*
X10622205Y-11909222D01*
M02*
