G04 #@! TF.GenerationSoftware,KiCad,Pcbnew,9.0.4-9.0.4-0~ubuntu24.04.1*
G04 #@! TF.CreationDate,2026-01-10T22:59:58+01:00*
G04 #@! TF.ProjectId,BSH_FRG_10024820,4253485f-4652-4475-9f31-303032343832,1*
G04 #@! TF.SameCoordinates,Original*
G04 #@! TF.FileFunction,Legend,Top*
G04 #@! TF.FilePolarity,Positive*
%FSLAX46Y46*%
G04 Gerber Fmt 4.6, Leading zero omitted, Abs format (unit mm)*
G04 Created by KiCad (PCBNEW 9.0.4-9.0.4-0~ubuntu24.04.1) date 2026-01-10 22:59:58*
%MOMM*%
%LPD*%
G01*
G04 APERTURE LIST*
%ADD10C,0.100000*%
%ADD11C,0.300000*%
%ADD12C,0.120000*%
%ADD13C,0.400000*%
%ADD14R,0.600000X0.500000*%
%ADD15R,0.600000X2.400000*%
%ADD16R,1.600000X2.400000*%
G04 APERTURE END LIST*
D10*
X94113408Y-109542587D02*
X93846741Y-109066396D01*
X93656265Y-109542587D02*
X93656265Y-108542587D01*
X93656265Y-108542587D02*
X93961027Y-108542587D01*
X93961027Y-108542587D02*
X94037217Y-108590206D01*
X94037217Y-108590206D02*
X94075312Y-108637825D01*
X94075312Y-108637825D02*
X94113408Y-108733063D01*
X94113408Y-108733063D02*
X94113408Y-108875920D01*
X94113408Y-108875920D02*
X94075312Y-108971158D01*
X94075312Y-108971158D02*
X94037217Y-109018777D01*
X94037217Y-109018777D02*
X93961027Y-109066396D01*
X93961027Y-109066396D02*
X93656265Y-109066396D01*
X94761027Y-109494968D02*
X94684836Y-109542587D01*
X94684836Y-109542587D02*
X94532455Y-109542587D01*
X94532455Y-109542587D02*
X94456265Y-109494968D01*
X94456265Y-109494968D02*
X94418169Y-109399729D01*
X94418169Y-109399729D02*
X94418169Y-109018777D01*
X94418169Y-109018777D02*
X94456265Y-108923539D01*
X94456265Y-108923539D02*
X94532455Y-108875920D01*
X94532455Y-108875920D02*
X94684836Y-108875920D01*
X94684836Y-108875920D02*
X94761027Y-108923539D01*
X94761027Y-108923539D02*
X94799122Y-109018777D01*
X94799122Y-109018777D02*
X94799122Y-109114015D01*
X94799122Y-109114015D02*
X94418169Y-109209253D01*
X95027693Y-108875920D02*
X95332455Y-108875920D01*
X95141979Y-109542587D02*
X95141979Y-108685444D01*
X95141979Y-108685444D02*
X95180074Y-108590206D01*
X95180074Y-108590206D02*
X95256264Y-108542587D01*
X95256264Y-108542587D02*
X95332455Y-108542587D01*
X95599122Y-109447348D02*
X95637217Y-109494968D01*
X95637217Y-109494968D02*
X95599122Y-109542587D01*
X95599122Y-109542587D02*
X95561026Y-109494968D01*
X95561026Y-109494968D02*
X95599122Y-109447348D01*
X95599122Y-109447348D02*
X95599122Y-109542587D01*
X95599122Y-108923539D02*
X95637217Y-108971158D01*
X95637217Y-108971158D02*
X95599122Y-109018777D01*
X95599122Y-109018777D02*
X95561026Y-108971158D01*
X95561026Y-108971158D02*
X95599122Y-108923539D01*
X95599122Y-108923539D02*
X95599122Y-109018777D01*
X96856264Y-109018777D02*
X96970550Y-109066396D01*
X96970550Y-109066396D02*
X97008645Y-109114015D01*
X97008645Y-109114015D02*
X97046741Y-109209253D01*
X97046741Y-109209253D02*
X97046741Y-109352110D01*
X97046741Y-109352110D02*
X97008645Y-109447348D01*
X97008645Y-109447348D02*
X96970550Y-109494968D01*
X96970550Y-109494968D02*
X96894360Y-109542587D01*
X96894360Y-109542587D02*
X96589598Y-109542587D01*
X96589598Y-109542587D02*
X96589598Y-108542587D01*
X96589598Y-108542587D02*
X96856264Y-108542587D01*
X96856264Y-108542587D02*
X96932455Y-108590206D01*
X96932455Y-108590206D02*
X96970550Y-108637825D01*
X96970550Y-108637825D02*
X97008645Y-108733063D01*
X97008645Y-108733063D02*
X97008645Y-108828301D01*
X97008645Y-108828301D02*
X96970550Y-108923539D01*
X96970550Y-108923539D02*
X96932455Y-108971158D01*
X96932455Y-108971158D02*
X96856264Y-109018777D01*
X96856264Y-109018777D02*
X96589598Y-109018777D01*
X97351502Y-109494968D02*
X97465788Y-109542587D01*
X97465788Y-109542587D02*
X97656264Y-109542587D01*
X97656264Y-109542587D02*
X97732455Y-109494968D01*
X97732455Y-109494968D02*
X97770550Y-109447348D01*
X97770550Y-109447348D02*
X97808645Y-109352110D01*
X97808645Y-109352110D02*
X97808645Y-109256872D01*
X97808645Y-109256872D02*
X97770550Y-109161634D01*
X97770550Y-109161634D02*
X97732455Y-109114015D01*
X97732455Y-109114015D02*
X97656264Y-109066396D01*
X97656264Y-109066396D02*
X97503883Y-109018777D01*
X97503883Y-109018777D02*
X97427693Y-108971158D01*
X97427693Y-108971158D02*
X97389598Y-108923539D01*
X97389598Y-108923539D02*
X97351502Y-108828301D01*
X97351502Y-108828301D02*
X97351502Y-108733063D01*
X97351502Y-108733063D02*
X97389598Y-108637825D01*
X97389598Y-108637825D02*
X97427693Y-108590206D01*
X97427693Y-108590206D02*
X97503883Y-108542587D01*
X97503883Y-108542587D02*
X97694360Y-108542587D01*
X97694360Y-108542587D02*
X97808645Y-108590206D01*
X98151503Y-109542587D02*
X98151503Y-108542587D01*
X98151503Y-109018777D02*
X98608646Y-109018777D01*
X98608646Y-109542587D02*
X98608646Y-108542587D01*
X98799122Y-109637825D02*
X99408645Y-109637825D01*
X99865788Y-109018777D02*
X99599122Y-109018777D01*
X99599122Y-109542587D02*
X99599122Y-108542587D01*
X99599122Y-108542587D02*
X99980074Y-108542587D01*
X100741979Y-109542587D02*
X100475312Y-109066396D01*
X100284836Y-109542587D02*
X100284836Y-108542587D01*
X100284836Y-108542587D02*
X100589598Y-108542587D01*
X100589598Y-108542587D02*
X100665788Y-108590206D01*
X100665788Y-108590206D02*
X100703883Y-108637825D01*
X100703883Y-108637825D02*
X100741979Y-108733063D01*
X100741979Y-108733063D02*
X100741979Y-108875920D01*
X100741979Y-108875920D02*
X100703883Y-108971158D01*
X100703883Y-108971158D02*
X100665788Y-109018777D01*
X100665788Y-109018777D02*
X100589598Y-109066396D01*
X100589598Y-109066396D02*
X100284836Y-109066396D01*
X101503883Y-108590206D02*
X101427693Y-108542587D01*
X101427693Y-108542587D02*
X101313407Y-108542587D01*
X101313407Y-108542587D02*
X101199121Y-108590206D01*
X101199121Y-108590206D02*
X101122931Y-108685444D01*
X101122931Y-108685444D02*
X101084836Y-108780682D01*
X101084836Y-108780682D02*
X101046740Y-108971158D01*
X101046740Y-108971158D02*
X101046740Y-109114015D01*
X101046740Y-109114015D02*
X101084836Y-109304491D01*
X101084836Y-109304491D02*
X101122931Y-109399729D01*
X101122931Y-109399729D02*
X101199121Y-109494968D01*
X101199121Y-109494968D02*
X101313407Y-109542587D01*
X101313407Y-109542587D02*
X101389598Y-109542587D01*
X101389598Y-109542587D02*
X101503883Y-109494968D01*
X101503883Y-109494968D02*
X101541979Y-109447348D01*
X101541979Y-109447348D02*
X101541979Y-109114015D01*
X101541979Y-109114015D02*
X101389598Y-109114015D01*
X101694360Y-109637825D02*
X102303883Y-109637825D01*
X102913407Y-109542587D02*
X102456264Y-109542587D01*
X102684836Y-109542587D02*
X102684836Y-108542587D01*
X102684836Y-108542587D02*
X102608645Y-108685444D01*
X102608645Y-108685444D02*
X102532455Y-108780682D01*
X102532455Y-108780682D02*
X102456264Y-108828301D01*
X103408646Y-108542587D02*
X103484836Y-108542587D01*
X103484836Y-108542587D02*
X103561027Y-108590206D01*
X103561027Y-108590206D02*
X103599122Y-108637825D01*
X103599122Y-108637825D02*
X103637217Y-108733063D01*
X103637217Y-108733063D02*
X103675312Y-108923539D01*
X103675312Y-108923539D02*
X103675312Y-109161634D01*
X103675312Y-109161634D02*
X103637217Y-109352110D01*
X103637217Y-109352110D02*
X103599122Y-109447348D01*
X103599122Y-109447348D02*
X103561027Y-109494968D01*
X103561027Y-109494968D02*
X103484836Y-109542587D01*
X103484836Y-109542587D02*
X103408646Y-109542587D01*
X103408646Y-109542587D02*
X103332455Y-109494968D01*
X103332455Y-109494968D02*
X103294360Y-109447348D01*
X103294360Y-109447348D02*
X103256265Y-109352110D01*
X103256265Y-109352110D02*
X103218169Y-109161634D01*
X103218169Y-109161634D02*
X103218169Y-108923539D01*
X103218169Y-108923539D02*
X103256265Y-108733063D01*
X103256265Y-108733063D02*
X103294360Y-108637825D01*
X103294360Y-108637825D02*
X103332455Y-108590206D01*
X103332455Y-108590206D02*
X103408646Y-108542587D01*
X104170551Y-108542587D02*
X104246741Y-108542587D01*
X104246741Y-108542587D02*
X104322932Y-108590206D01*
X104322932Y-108590206D02*
X104361027Y-108637825D01*
X104361027Y-108637825D02*
X104399122Y-108733063D01*
X104399122Y-108733063D02*
X104437217Y-108923539D01*
X104437217Y-108923539D02*
X104437217Y-109161634D01*
X104437217Y-109161634D02*
X104399122Y-109352110D01*
X104399122Y-109352110D02*
X104361027Y-109447348D01*
X104361027Y-109447348D02*
X104322932Y-109494968D01*
X104322932Y-109494968D02*
X104246741Y-109542587D01*
X104246741Y-109542587D02*
X104170551Y-109542587D01*
X104170551Y-109542587D02*
X104094360Y-109494968D01*
X104094360Y-109494968D02*
X104056265Y-109447348D01*
X104056265Y-109447348D02*
X104018170Y-109352110D01*
X104018170Y-109352110D02*
X103980074Y-109161634D01*
X103980074Y-109161634D02*
X103980074Y-108923539D01*
X103980074Y-108923539D02*
X104018170Y-108733063D01*
X104018170Y-108733063D02*
X104056265Y-108637825D01*
X104056265Y-108637825D02*
X104094360Y-108590206D01*
X104094360Y-108590206D02*
X104170551Y-108542587D01*
X104741979Y-108637825D02*
X104780075Y-108590206D01*
X104780075Y-108590206D02*
X104856265Y-108542587D01*
X104856265Y-108542587D02*
X105046741Y-108542587D01*
X105046741Y-108542587D02*
X105122932Y-108590206D01*
X105122932Y-108590206D02*
X105161027Y-108637825D01*
X105161027Y-108637825D02*
X105199122Y-108733063D01*
X105199122Y-108733063D02*
X105199122Y-108828301D01*
X105199122Y-108828301D02*
X105161027Y-108971158D01*
X105161027Y-108971158D02*
X104703884Y-109542587D01*
X104703884Y-109542587D02*
X105199122Y-109542587D01*
X105884837Y-108875920D02*
X105884837Y-109542587D01*
X105694361Y-108494968D02*
X105503884Y-109209253D01*
X105503884Y-109209253D02*
X105999123Y-109209253D01*
X106418170Y-108971158D02*
X106341980Y-108923539D01*
X106341980Y-108923539D02*
X106303885Y-108875920D01*
X106303885Y-108875920D02*
X106265789Y-108780682D01*
X106265789Y-108780682D02*
X106265789Y-108733063D01*
X106265789Y-108733063D02*
X106303885Y-108637825D01*
X106303885Y-108637825D02*
X106341980Y-108590206D01*
X106341980Y-108590206D02*
X106418170Y-108542587D01*
X106418170Y-108542587D02*
X106570551Y-108542587D01*
X106570551Y-108542587D02*
X106646742Y-108590206D01*
X106646742Y-108590206D02*
X106684837Y-108637825D01*
X106684837Y-108637825D02*
X106722932Y-108733063D01*
X106722932Y-108733063D02*
X106722932Y-108780682D01*
X106722932Y-108780682D02*
X106684837Y-108875920D01*
X106684837Y-108875920D02*
X106646742Y-108923539D01*
X106646742Y-108923539D02*
X106570551Y-108971158D01*
X106570551Y-108971158D02*
X106418170Y-108971158D01*
X106418170Y-108971158D02*
X106341980Y-109018777D01*
X106341980Y-109018777D02*
X106303885Y-109066396D01*
X106303885Y-109066396D02*
X106265789Y-109161634D01*
X106265789Y-109161634D02*
X106265789Y-109352110D01*
X106265789Y-109352110D02*
X106303885Y-109447348D01*
X106303885Y-109447348D02*
X106341980Y-109494968D01*
X106341980Y-109494968D02*
X106418170Y-109542587D01*
X106418170Y-109542587D02*
X106570551Y-109542587D01*
X106570551Y-109542587D02*
X106646742Y-109494968D01*
X106646742Y-109494968D02*
X106684837Y-109447348D01*
X106684837Y-109447348D02*
X106722932Y-109352110D01*
X106722932Y-109352110D02*
X106722932Y-109161634D01*
X106722932Y-109161634D02*
X106684837Y-109066396D01*
X106684837Y-109066396D02*
X106646742Y-109018777D01*
X106646742Y-109018777D02*
X106570551Y-108971158D01*
X107027694Y-108637825D02*
X107065790Y-108590206D01*
X107065790Y-108590206D02*
X107141980Y-108542587D01*
X107141980Y-108542587D02*
X107332456Y-108542587D01*
X107332456Y-108542587D02*
X107408647Y-108590206D01*
X107408647Y-108590206D02*
X107446742Y-108637825D01*
X107446742Y-108637825D02*
X107484837Y-108733063D01*
X107484837Y-108733063D02*
X107484837Y-108828301D01*
X107484837Y-108828301D02*
X107446742Y-108971158D01*
X107446742Y-108971158D02*
X106989599Y-109542587D01*
X106989599Y-109542587D02*
X107484837Y-109542587D01*
X107980076Y-108542587D02*
X108056266Y-108542587D01*
X108056266Y-108542587D02*
X108132457Y-108590206D01*
X108132457Y-108590206D02*
X108170552Y-108637825D01*
X108170552Y-108637825D02*
X108208647Y-108733063D01*
X108208647Y-108733063D02*
X108246742Y-108923539D01*
X108246742Y-108923539D02*
X108246742Y-109161634D01*
X108246742Y-109161634D02*
X108208647Y-109352110D01*
X108208647Y-109352110D02*
X108170552Y-109447348D01*
X108170552Y-109447348D02*
X108132457Y-109494968D01*
X108132457Y-109494968D02*
X108056266Y-109542587D01*
X108056266Y-109542587D02*
X107980076Y-109542587D01*
X107980076Y-109542587D02*
X107903885Y-109494968D01*
X107903885Y-109494968D02*
X107865790Y-109447348D01*
X107865790Y-109447348D02*
X107827695Y-109352110D01*
X107827695Y-109352110D02*
X107789599Y-109161634D01*
X107789599Y-109161634D02*
X107789599Y-108923539D01*
X107789599Y-108923539D02*
X107827695Y-108733063D01*
X107827695Y-108733063D02*
X107865790Y-108637825D01*
X107865790Y-108637825D02*
X107903885Y-108590206D01*
X107903885Y-108590206D02*
X107980076Y-108542587D01*
X93656265Y-111152531D02*
X93656265Y-110152531D01*
X93656265Y-110152531D02*
X93846741Y-110152531D01*
X93846741Y-110152531D02*
X93961027Y-110200150D01*
X93961027Y-110200150D02*
X94037217Y-110295388D01*
X94037217Y-110295388D02*
X94075312Y-110390626D01*
X94075312Y-110390626D02*
X94113408Y-110581102D01*
X94113408Y-110581102D02*
X94113408Y-110723959D01*
X94113408Y-110723959D02*
X94075312Y-110914435D01*
X94075312Y-110914435D02*
X94037217Y-111009673D01*
X94037217Y-111009673D02*
X93961027Y-111104912D01*
X93961027Y-111104912D02*
X93846741Y-111152531D01*
X93846741Y-111152531D02*
X93656265Y-111152531D01*
X94799122Y-111152531D02*
X94799122Y-110628721D01*
X94799122Y-110628721D02*
X94761027Y-110533483D01*
X94761027Y-110533483D02*
X94684836Y-110485864D01*
X94684836Y-110485864D02*
X94532455Y-110485864D01*
X94532455Y-110485864D02*
X94456265Y-110533483D01*
X94799122Y-111104912D02*
X94722931Y-111152531D01*
X94722931Y-111152531D02*
X94532455Y-111152531D01*
X94532455Y-111152531D02*
X94456265Y-111104912D01*
X94456265Y-111104912D02*
X94418169Y-111009673D01*
X94418169Y-111009673D02*
X94418169Y-110914435D01*
X94418169Y-110914435D02*
X94456265Y-110819197D01*
X94456265Y-110819197D02*
X94532455Y-110771578D01*
X94532455Y-110771578D02*
X94722931Y-110771578D01*
X94722931Y-110771578D02*
X94799122Y-110723959D01*
X95065789Y-110485864D02*
X95370551Y-110485864D01*
X95180075Y-110152531D02*
X95180075Y-111009673D01*
X95180075Y-111009673D02*
X95218170Y-111104912D01*
X95218170Y-111104912D02*
X95294360Y-111152531D01*
X95294360Y-111152531D02*
X95370551Y-111152531D01*
X95941980Y-111104912D02*
X95865789Y-111152531D01*
X95865789Y-111152531D02*
X95713408Y-111152531D01*
X95713408Y-111152531D02*
X95637218Y-111104912D01*
X95637218Y-111104912D02*
X95599122Y-111009673D01*
X95599122Y-111009673D02*
X95599122Y-110628721D01*
X95599122Y-110628721D02*
X95637218Y-110533483D01*
X95637218Y-110533483D02*
X95713408Y-110485864D01*
X95713408Y-110485864D02*
X95865789Y-110485864D01*
X95865789Y-110485864D02*
X95941980Y-110533483D01*
X95941980Y-110533483D02*
X95980075Y-110628721D01*
X95980075Y-110628721D02*
X95980075Y-110723959D01*
X95980075Y-110723959D02*
X95599122Y-110819197D01*
X96322932Y-111057292D02*
X96361027Y-111104912D01*
X96361027Y-111104912D02*
X96322932Y-111152531D01*
X96322932Y-111152531D02*
X96284836Y-111104912D01*
X96284836Y-111104912D02*
X96322932Y-111057292D01*
X96322932Y-111057292D02*
X96322932Y-111152531D01*
X96322932Y-110533483D02*
X96361027Y-110581102D01*
X96361027Y-110581102D02*
X96322932Y-110628721D01*
X96322932Y-110628721D02*
X96284836Y-110581102D01*
X96284836Y-110581102D02*
X96322932Y-110533483D01*
X96322932Y-110533483D02*
X96322932Y-110628721D01*
X97275312Y-110247769D02*
X97313408Y-110200150D01*
X97313408Y-110200150D02*
X97389598Y-110152531D01*
X97389598Y-110152531D02*
X97580074Y-110152531D01*
X97580074Y-110152531D02*
X97656265Y-110200150D01*
X97656265Y-110200150D02*
X97694360Y-110247769D01*
X97694360Y-110247769D02*
X97732455Y-110343007D01*
X97732455Y-110343007D02*
X97732455Y-110438245D01*
X97732455Y-110438245D02*
X97694360Y-110581102D01*
X97694360Y-110581102D02*
X97237217Y-111152531D01*
X97237217Y-111152531D02*
X97732455Y-111152531D01*
X98227694Y-110152531D02*
X98303884Y-110152531D01*
X98303884Y-110152531D02*
X98380075Y-110200150D01*
X98380075Y-110200150D02*
X98418170Y-110247769D01*
X98418170Y-110247769D02*
X98456265Y-110343007D01*
X98456265Y-110343007D02*
X98494360Y-110533483D01*
X98494360Y-110533483D02*
X98494360Y-110771578D01*
X98494360Y-110771578D02*
X98456265Y-110962054D01*
X98456265Y-110962054D02*
X98418170Y-111057292D01*
X98418170Y-111057292D02*
X98380075Y-111104912D01*
X98380075Y-111104912D02*
X98303884Y-111152531D01*
X98303884Y-111152531D02*
X98227694Y-111152531D01*
X98227694Y-111152531D02*
X98151503Y-111104912D01*
X98151503Y-111104912D02*
X98113408Y-111057292D01*
X98113408Y-111057292D02*
X98075313Y-110962054D01*
X98075313Y-110962054D02*
X98037217Y-110771578D01*
X98037217Y-110771578D02*
X98037217Y-110533483D01*
X98037217Y-110533483D02*
X98075313Y-110343007D01*
X98075313Y-110343007D02*
X98113408Y-110247769D01*
X98113408Y-110247769D02*
X98151503Y-110200150D01*
X98151503Y-110200150D02*
X98227694Y-110152531D01*
X98799122Y-110247769D02*
X98837218Y-110200150D01*
X98837218Y-110200150D02*
X98913408Y-110152531D01*
X98913408Y-110152531D02*
X99103884Y-110152531D01*
X99103884Y-110152531D02*
X99180075Y-110200150D01*
X99180075Y-110200150D02*
X99218170Y-110247769D01*
X99218170Y-110247769D02*
X99256265Y-110343007D01*
X99256265Y-110343007D02*
X99256265Y-110438245D01*
X99256265Y-110438245D02*
X99218170Y-110581102D01*
X99218170Y-110581102D02*
X98761027Y-111152531D01*
X98761027Y-111152531D02*
X99256265Y-111152531D01*
X99941980Y-110152531D02*
X99789599Y-110152531D01*
X99789599Y-110152531D02*
X99713408Y-110200150D01*
X99713408Y-110200150D02*
X99675313Y-110247769D01*
X99675313Y-110247769D02*
X99599123Y-110390626D01*
X99599123Y-110390626D02*
X99561027Y-110581102D01*
X99561027Y-110581102D02*
X99561027Y-110962054D01*
X99561027Y-110962054D02*
X99599123Y-111057292D01*
X99599123Y-111057292D02*
X99637218Y-111104912D01*
X99637218Y-111104912D02*
X99713408Y-111152531D01*
X99713408Y-111152531D02*
X99865789Y-111152531D01*
X99865789Y-111152531D02*
X99941980Y-111104912D01*
X99941980Y-111104912D02*
X99980075Y-111057292D01*
X99980075Y-111057292D02*
X100018170Y-110962054D01*
X100018170Y-110962054D02*
X100018170Y-110723959D01*
X100018170Y-110723959D02*
X99980075Y-110628721D01*
X99980075Y-110628721D02*
X99941980Y-110581102D01*
X99941980Y-110581102D02*
X99865789Y-110533483D01*
X99865789Y-110533483D02*
X99713408Y-110533483D01*
X99713408Y-110533483D02*
X99637218Y-110581102D01*
X99637218Y-110581102D02*
X99599123Y-110628721D01*
X99599123Y-110628721D02*
X99561027Y-110723959D01*
X100361028Y-110771578D02*
X100970552Y-110771578D01*
X101503885Y-110152531D02*
X101580075Y-110152531D01*
X101580075Y-110152531D02*
X101656266Y-110200150D01*
X101656266Y-110200150D02*
X101694361Y-110247769D01*
X101694361Y-110247769D02*
X101732456Y-110343007D01*
X101732456Y-110343007D02*
X101770551Y-110533483D01*
X101770551Y-110533483D02*
X101770551Y-110771578D01*
X101770551Y-110771578D02*
X101732456Y-110962054D01*
X101732456Y-110962054D02*
X101694361Y-111057292D01*
X101694361Y-111057292D02*
X101656266Y-111104912D01*
X101656266Y-111104912D02*
X101580075Y-111152531D01*
X101580075Y-111152531D02*
X101503885Y-111152531D01*
X101503885Y-111152531D02*
X101427694Y-111104912D01*
X101427694Y-111104912D02*
X101389599Y-111057292D01*
X101389599Y-111057292D02*
X101351504Y-110962054D01*
X101351504Y-110962054D02*
X101313408Y-110771578D01*
X101313408Y-110771578D02*
X101313408Y-110533483D01*
X101313408Y-110533483D02*
X101351504Y-110343007D01*
X101351504Y-110343007D02*
X101389599Y-110247769D01*
X101389599Y-110247769D02*
X101427694Y-110200150D01*
X101427694Y-110200150D02*
X101503885Y-110152531D01*
X102532456Y-111152531D02*
X102075313Y-111152531D01*
X102303885Y-111152531D02*
X102303885Y-110152531D01*
X102303885Y-110152531D02*
X102227694Y-110295388D01*
X102227694Y-110295388D02*
X102151504Y-110390626D01*
X102151504Y-110390626D02*
X102075313Y-110438245D01*
X102875314Y-110771578D02*
X103484838Y-110771578D01*
X104018171Y-110152531D02*
X104094361Y-110152531D01*
X104094361Y-110152531D02*
X104170552Y-110200150D01*
X104170552Y-110200150D02*
X104208647Y-110247769D01*
X104208647Y-110247769D02*
X104246742Y-110343007D01*
X104246742Y-110343007D02*
X104284837Y-110533483D01*
X104284837Y-110533483D02*
X104284837Y-110771578D01*
X104284837Y-110771578D02*
X104246742Y-110962054D01*
X104246742Y-110962054D02*
X104208647Y-111057292D01*
X104208647Y-111057292D02*
X104170552Y-111104912D01*
X104170552Y-111104912D02*
X104094361Y-111152531D01*
X104094361Y-111152531D02*
X104018171Y-111152531D01*
X104018171Y-111152531D02*
X103941980Y-111104912D01*
X103941980Y-111104912D02*
X103903885Y-111057292D01*
X103903885Y-111057292D02*
X103865790Y-110962054D01*
X103865790Y-110962054D02*
X103827694Y-110771578D01*
X103827694Y-110771578D02*
X103827694Y-110533483D01*
X103827694Y-110533483D02*
X103865790Y-110343007D01*
X103865790Y-110343007D02*
X103903885Y-110247769D01*
X103903885Y-110247769D02*
X103941980Y-110200150D01*
X103941980Y-110200150D02*
X104018171Y-110152531D01*
X104665790Y-111152531D02*
X104818171Y-111152531D01*
X104818171Y-111152531D02*
X104894361Y-111104912D01*
X104894361Y-111104912D02*
X104932457Y-111057292D01*
X104932457Y-111057292D02*
X105008647Y-110914435D01*
X105008647Y-110914435D02*
X105046742Y-110723959D01*
X105046742Y-110723959D02*
X105046742Y-110343007D01*
X105046742Y-110343007D02*
X105008647Y-110247769D01*
X105008647Y-110247769D02*
X104970552Y-110200150D01*
X104970552Y-110200150D02*
X104894361Y-110152531D01*
X104894361Y-110152531D02*
X104741980Y-110152531D01*
X104741980Y-110152531D02*
X104665790Y-110200150D01*
X104665790Y-110200150D02*
X104627695Y-110247769D01*
X104627695Y-110247769D02*
X104589599Y-110343007D01*
X104589599Y-110343007D02*
X104589599Y-110581102D01*
X104589599Y-110581102D02*
X104627695Y-110676340D01*
X104627695Y-110676340D02*
X104665790Y-110723959D01*
X104665790Y-110723959D02*
X104741980Y-110771578D01*
X104741980Y-110771578D02*
X104894361Y-110771578D01*
X104894361Y-110771578D02*
X104970552Y-110723959D01*
X104970552Y-110723959D02*
X105008647Y-110676340D01*
X105008647Y-110676340D02*
X105046742Y-110581102D01*
X94113408Y-112762475D02*
X93846741Y-112286284D01*
X93656265Y-112762475D02*
X93656265Y-111762475D01*
X93656265Y-111762475D02*
X93961027Y-111762475D01*
X93961027Y-111762475D02*
X94037217Y-111810094D01*
X94037217Y-111810094D02*
X94075312Y-111857713D01*
X94075312Y-111857713D02*
X94113408Y-111952951D01*
X94113408Y-111952951D02*
X94113408Y-112095808D01*
X94113408Y-112095808D02*
X94075312Y-112191046D01*
X94075312Y-112191046D02*
X94037217Y-112238665D01*
X94037217Y-112238665D02*
X93961027Y-112286284D01*
X93961027Y-112286284D02*
X93656265Y-112286284D01*
X94761027Y-112714856D02*
X94684836Y-112762475D01*
X94684836Y-112762475D02*
X94532455Y-112762475D01*
X94532455Y-112762475D02*
X94456265Y-112714856D01*
X94456265Y-112714856D02*
X94418169Y-112619617D01*
X94418169Y-112619617D02*
X94418169Y-112238665D01*
X94418169Y-112238665D02*
X94456265Y-112143427D01*
X94456265Y-112143427D02*
X94532455Y-112095808D01*
X94532455Y-112095808D02*
X94684836Y-112095808D01*
X94684836Y-112095808D02*
X94761027Y-112143427D01*
X94761027Y-112143427D02*
X94799122Y-112238665D01*
X94799122Y-112238665D02*
X94799122Y-112333903D01*
X94799122Y-112333903D02*
X94418169Y-112429141D01*
X95065788Y-112095808D02*
X95256264Y-112762475D01*
X95256264Y-112762475D02*
X95446741Y-112095808D01*
X95751503Y-112667236D02*
X95789598Y-112714856D01*
X95789598Y-112714856D02*
X95751503Y-112762475D01*
X95751503Y-112762475D02*
X95713407Y-112714856D01*
X95713407Y-112714856D02*
X95751503Y-112667236D01*
X95751503Y-112667236D02*
X95751503Y-112762475D01*
X95751503Y-112143427D02*
X95789598Y-112191046D01*
X95789598Y-112191046D02*
X95751503Y-112238665D01*
X95751503Y-112238665D02*
X95713407Y-112191046D01*
X95713407Y-112191046D02*
X95751503Y-112143427D01*
X95751503Y-112143427D02*
X95751503Y-112238665D01*
X97161026Y-112762475D02*
X96703883Y-112762475D01*
X96932455Y-112762475D02*
X96932455Y-111762475D01*
X96932455Y-111762475D02*
X96856264Y-111905332D01*
X96856264Y-111905332D02*
X96780074Y-112000570D01*
X96780074Y-112000570D02*
X96703883Y-112048189D01*
X93618169Y-114324800D02*
X93732455Y-114372419D01*
X93732455Y-114372419D02*
X93922931Y-114372419D01*
X93922931Y-114372419D02*
X93999122Y-114324800D01*
X93999122Y-114324800D02*
X94037217Y-114277180D01*
X94037217Y-114277180D02*
X94075312Y-114181942D01*
X94075312Y-114181942D02*
X94075312Y-114086704D01*
X94075312Y-114086704D02*
X94037217Y-113991466D01*
X94037217Y-113991466D02*
X93999122Y-113943847D01*
X93999122Y-113943847D02*
X93922931Y-113896228D01*
X93922931Y-113896228D02*
X93770550Y-113848609D01*
X93770550Y-113848609D02*
X93694360Y-113800990D01*
X93694360Y-113800990D02*
X93656265Y-113753371D01*
X93656265Y-113753371D02*
X93618169Y-113658133D01*
X93618169Y-113658133D02*
X93618169Y-113562895D01*
X93618169Y-113562895D02*
X93656265Y-113467657D01*
X93656265Y-113467657D02*
X93694360Y-113420038D01*
X93694360Y-113420038D02*
X93770550Y-113372419D01*
X93770550Y-113372419D02*
X93961027Y-113372419D01*
X93961027Y-113372419D02*
X94075312Y-113420038D01*
X94303884Y-113705752D02*
X94608646Y-113705752D01*
X94418170Y-113372419D02*
X94418170Y-114229561D01*
X94418170Y-114229561D02*
X94456265Y-114324800D01*
X94456265Y-114324800D02*
X94532455Y-114372419D01*
X94532455Y-114372419D02*
X94608646Y-114372419D01*
X95218170Y-114372419D02*
X95218170Y-113848609D01*
X95218170Y-113848609D02*
X95180075Y-113753371D01*
X95180075Y-113753371D02*
X95103884Y-113705752D01*
X95103884Y-113705752D02*
X94951503Y-113705752D01*
X94951503Y-113705752D02*
X94875313Y-113753371D01*
X95218170Y-114324800D02*
X95141979Y-114372419D01*
X95141979Y-114372419D02*
X94951503Y-114372419D01*
X94951503Y-114372419D02*
X94875313Y-114324800D01*
X94875313Y-114324800D02*
X94837217Y-114229561D01*
X94837217Y-114229561D02*
X94837217Y-114134323D01*
X94837217Y-114134323D02*
X94875313Y-114039085D01*
X94875313Y-114039085D02*
X94951503Y-113991466D01*
X94951503Y-113991466D02*
X95141979Y-113991466D01*
X95141979Y-113991466D02*
X95218170Y-113943847D01*
X95484837Y-113705752D02*
X95789599Y-113705752D01*
X95599123Y-113372419D02*
X95599123Y-114229561D01*
X95599123Y-114229561D02*
X95637218Y-114324800D01*
X95637218Y-114324800D02*
X95713408Y-114372419D01*
X95713408Y-114372419D02*
X95789599Y-114372419D01*
X96399123Y-113705752D02*
X96399123Y-114372419D01*
X96056266Y-113705752D02*
X96056266Y-114229561D01*
X96056266Y-114229561D02*
X96094361Y-114324800D01*
X96094361Y-114324800D02*
X96170551Y-114372419D01*
X96170551Y-114372419D02*
X96284837Y-114372419D01*
X96284837Y-114372419D02*
X96361028Y-114324800D01*
X96361028Y-114324800D02*
X96399123Y-114277180D01*
X96741980Y-114324800D02*
X96818171Y-114372419D01*
X96818171Y-114372419D02*
X96970552Y-114372419D01*
X96970552Y-114372419D02*
X97046742Y-114324800D01*
X97046742Y-114324800D02*
X97084838Y-114229561D01*
X97084838Y-114229561D02*
X97084838Y-114181942D01*
X97084838Y-114181942D02*
X97046742Y-114086704D01*
X97046742Y-114086704D02*
X96970552Y-114039085D01*
X96970552Y-114039085D02*
X96856266Y-114039085D01*
X96856266Y-114039085D02*
X96780076Y-113991466D01*
X96780076Y-113991466D02*
X96741980Y-113896228D01*
X96741980Y-113896228D02*
X96741980Y-113848609D01*
X96741980Y-113848609D02*
X96780076Y-113753371D01*
X96780076Y-113753371D02*
X96856266Y-113705752D01*
X96856266Y-113705752D02*
X96970552Y-113705752D01*
X96970552Y-113705752D02*
X97046742Y-113753371D01*
X97427695Y-114277180D02*
X97465790Y-114324800D01*
X97465790Y-114324800D02*
X97427695Y-114372419D01*
X97427695Y-114372419D02*
X97389599Y-114324800D01*
X97389599Y-114324800D02*
X97427695Y-114277180D01*
X97427695Y-114277180D02*
X97427695Y-114372419D01*
X97427695Y-113753371D02*
X97465790Y-113800990D01*
X97465790Y-113800990D02*
X97427695Y-113848609D01*
X97427695Y-113848609D02*
X97389599Y-113800990D01*
X97389599Y-113800990D02*
X97427695Y-113753371D01*
X97427695Y-113753371D02*
X97427695Y-113848609D01*
X98418171Y-114372419D02*
X98418171Y-113372419D01*
X98418171Y-113372419D02*
X98875314Y-114372419D01*
X98875314Y-114372419D02*
X98875314Y-113372419D01*
X99370551Y-114372419D02*
X99294361Y-114324800D01*
X99294361Y-114324800D02*
X99256266Y-114277180D01*
X99256266Y-114277180D02*
X99218170Y-114181942D01*
X99218170Y-114181942D02*
X99218170Y-113896228D01*
X99218170Y-113896228D02*
X99256266Y-113800990D01*
X99256266Y-113800990D02*
X99294361Y-113753371D01*
X99294361Y-113753371D02*
X99370551Y-113705752D01*
X99370551Y-113705752D02*
X99484837Y-113705752D01*
X99484837Y-113705752D02*
X99561028Y-113753371D01*
X99561028Y-113753371D02*
X99599123Y-113800990D01*
X99599123Y-113800990D02*
X99637218Y-113896228D01*
X99637218Y-113896228D02*
X99637218Y-114181942D01*
X99637218Y-114181942D02*
X99599123Y-114277180D01*
X99599123Y-114277180D02*
X99561028Y-114324800D01*
X99561028Y-114324800D02*
X99484837Y-114372419D01*
X99484837Y-114372419D02*
X99370551Y-114372419D01*
X99865790Y-113705752D02*
X100170552Y-113705752D01*
X99980076Y-113372419D02*
X99980076Y-114229561D01*
X99980076Y-114229561D02*
X100018171Y-114324800D01*
X100018171Y-114324800D02*
X100094361Y-114372419D01*
X100094361Y-114372419D02*
X100170552Y-114372419D01*
X100932457Y-113705752D02*
X101237219Y-113705752D01*
X101046743Y-113372419D02*
X101046743Y-114229561D01*
X101046743Y-114229561D02*
X101084838Y-114324800D01*
X101084838Y-114324800D02*
X101161028Y-114372419D01*
X101161028Y-114372419D02*
X101237219Y-114372419D01*
X101808648Y-114324800D02*
X101732457Y-114372419D01*
X101732457Y-114372419D02*
X101580076Y-114372419D01*
X101580076Y-114372419D02*
X101503886Y-114324800D01*
X101503886Y-114324800D02*
X101465790Y-114229561D01*
X101465790Y-114229561D02*
X101465790Y-113848609D01*
X101465790Y-113848609D02*
X101503886Y-113753371D01*
X101503886Y-113753371D02*
X101580076Y-113705752D01*
X101580076Y-113705752D02*
X101732457Y-113705752D01*
X101732457Y-113705752D02*
X101808648Y-113753371D01*
X101808648Y-113753371D02*
X101846743Y-113848609D01*
X101846743Y-113848609D02*
X101846743Y-113943847D01*
X101846743Y-113943847D02*
X101465790Y-114039085D01*
X102151504Y-114324800D02*
X102227695Y-114372419D01*
X102227695Y-114372419D02*
X102380076Y-114372419D01*
X102380076Y-114372419D02*
X102456266Y-114324800D01*
X102456266Y-114324800D02*
X102494362Y-114229561D01*
X102494362Y-114229561D02*
X102494362Y-114181942D01*
X102494362Y-114181942D02*
X102456266Y-114086704D01*
X102456266Y-114086704D02*
X102380076Y-114039085D01*
X102380076Y-114039085D02*
X102265790Y-114039085D01*
X102265790Y-114039085D02*
X102189600Y-113991466D01*
X102189600Y-113991466D02*
X102151504Y-113896228D01*
X102151504Y-113896228D02*
X102151504Y-113848609D01*
X102151504Y-113848609D02*
X102189600Y-113753371D01*
X102189600Y-113753371D02*
X102265790Y-113705752D01*
X102265790Y-113705752D02*
X102380076Y-113705752D01*
X102380076Y-113705752D02*
X102456266Y-113753371D01*
X102722933Y-113705752D02*
X103027695Y-113705752D01*
X102837219Y-113372419D02*
X102837219Y-114229561D01*
X102837219Y-114229561D02*
X102875314Y-114324800D01*
X102875314Y-114324800D02*
X102951504Y-114372419D01*
X102951504Y-114372419D02*
X103027695Y-114372419D01*
X103599124Y-114324800D02*
X103522933Y-114372419D01*
X103522933Y-114372419D02*
X103370552Y-114372419D01*
X103370552Y-114372419D02*
X103294362Y-114324800D01*
X103294362Y-114324800D02*
X103256266Y-114229561D01*
X103256266Y-114229561D02*
X103256266Y-113848609D01*
X103256266Y-113848609D02*
X103294362Y-113753371D01*
X103294362Y-113753371D02*
X103370552Y-113705752D01*
X103370552Y-113705752D02*
X103522933Y-113705752D01*
X103522933Y-113705752D02*
X103599124Y-113753371D01*
X103599124Y-113753371D02*
X103637219Y-113848609D01*
X103637219Y-113848609D02*
X103637219Y-113943847D01*
X103637219Y-113943847D02*
X103256266Y-114039085D01*
X104322933Y-114372419D02*
X104322933Y-113372419D01*
X104322933Y-114324800D02*
X104246742Y-114372419D01*
X104246742Y-114372419D02*
X104094361Y-114372419D01*
X104094361Y-114372419D02*
X104018171Y-114324800D01*
X104018171Y-114324800D02*
X103980076Y-114277180D01*
X103980076Y-114277180D02*
X103941980Y-114181942D01*
X103941980Y-114181942D02*
X103941980Y-113896228D01*
X103941980Y-113896228D02*
X103980076Y-113800990D01*
X103980076Y-113800990D02*
X104018171Y-113753371D01*
X104018171Y-113753371D02*
X104094361Y-113705752D01*
X104094361Y-113705752D02*
X104246742Y-113705752D01*
X104246742Y-113705752D02*
X104322933Y-113753371D01*
X140000000Y-114200000D02*
X141000000Y-114200000D01*
X141000000Y-114200000D02*
X141000000Y-113200000D01*
X141000000Y-115200000D02*
X141000000Y-114200000D01*
X141000000Y-112800000D02*
X141600000Y-112200000D01*
X141000000Y-113200000D02*
X142000000Y-114200000D01*
X142000000Y-114200000D02*
X141000000Y-115200000D01*
X141500000Y-112100000D02*
X141600000Y-112200000D01*
X141700000Y-112100000D02*
X141500000Y-112100000D01*
X141700000Y-112100000D02*
X141600000Y-112200000D01*
X141600000Y-112200000D02*
X141700000Y-112300000D01*
X141700000Y-112300000D02*
X141700000Y-112100000D01*
X141500000Y-112800000D02*
X142100000Y-112200000D01*
X142000000Y-114200000D02*
X142000000Y-113200000D01*
X142000000Y-113200000D02*
X142000000Y-114200000D01*
X142000000Y-114200000D02*
X142000000Y-115200000D01*
X142000000Y-112100000D02*
X142100000Y-112200000D01*
X142200000Y-112100000D02*
X142000000Y-112100000D01*
X142200000Y-112100000D02*
X142100000Y-112200000D01*
X142100000Y-112200000D02*
X142200000Y-112300000D01*
X142200000Y-112300000D02*
X142200000Y-112100000D01*
X142000000Y-114200000D02*
X143000000Y-114200000D01*
D11*
X183500000Y-108800000D02*
X190400000Y-108800000D01*
X190400000Y-114100000D01*
X183500000Y-114100000D01*
X183500000Y-108800000D01*
X184714285Y-110072257D02*
X186571428Y-110072257D01*
X186571428Y-110072257D02*
X185571428Y-111215114D01*
X185571428Y-111215114D02*
X185999999Y-111215114D01*
X185999999Y-111215114D02*
X186285714Y-111357971D01*
X186285714Y-111357971D02*
X186428571Y-111500828D01*
X186428571Y-111500828D02*
X186571428Y-111786542D01*
X186571428Y-111786542D02*
X186571428Y-112500828D01*
X186571428Y-112500828D02*
X186428571Y-112786542D01*
X186428571Y-112786542D02*
X186285714Y-112929400D01*
X186285714Y-112929400D02*
X185999999Y-113072257D01*
X185999999Y-113072257D02*
X185142856Y-113072257D01*
X185142856Y-113072257D02*
X184857142Y-112929400D01*
X184857142Y-112929400D02*
X184714285Y-112786542D01*
X187428571Y-110072257D02*
X188428571Y-113072257D01*
X188428571Y-113072257D02*
X189428571Y-110072257D01*
D10*
X193903884Y-112891466D02*
X194665789Y-112891466D01*
X194284836Y-113272419D02*
X194284836Y-112510514D01*
D12*
G04 #@! TO.C,D1*
X143045000Y-111620000D02*
X143045000Y-108380000D01*
X143045000Y-111620000D02*
X139805000Y-111620000D01*
X143045000Y-108380000D02*
X139805000Y-108380000D01*
G04 #@! TD*
%LPC*%
D13*
X195600000Y-112000000D02*
X200600000Y-112000000D01*
X200600000Y-113800000D01*
X195600000Y-113800000D01*
X195600000Y-112000000D01*
G36*
X195600000Y-112000000D02*
G01*
X200600000Y-112000000D01*
X200600000Y-113800000D01*
X195600000Y-113800000D01*
X195600000Y-112000000D01*
G37*
X195600000Y-109200000D02*
X200600000Y-109200000D01*
X200600000Y-111000000D01*
X195600000Y-111000000D01*
X195600000Y-109200000D01*
G36*
X195600000Y-109200000D02*
G01*
X200600000Y-109200000D01*
X200600000Y-111000000D01*
X195600000Y-111000000D01*
X195600000Y-109200000D01*
G37*
D14*
G04 #@! TO.C,D1*
X140050000Y-110000000D03*
D15*
X140350000Y-110000000D03*
D16*
X142000000Y-110000000D03*
G04 #@! TD*
%LPD*%
M02*
