%TF.GenerationSoftware,KiCad,Pcbnew,9.0.4-9.0.4-0~ubuntu24.04.1*%
%TF.CreationDate,2025-09-13T11:56:24+02:00*%
%TF.ProjectId,SMG_OVN_DE96-00994A,534d475f-4f56-44e5-9f44-4539362d3030,1*%
%TF.SameCoordinates,Original*%
%TF.FileFunction,Drillmap*%
%TF.FilePolarity,Positive*%
%FSLAX45Y45*%
G04 Gerber Fmt 4.5, Leading zero omitted, Abs format (unit mm)*
G04 Created by KiCad (PCBNEW 9.0.4-9.0.4-0~ubuntu24.04.1) date 2025-09-13 11:56:24*
%MOMM*%
%LPD*%
G01*
G04 APERTURE LIST*
%ADD10C,0.100000*%
%ADD11C,0.050000*%
%ADD12C,0.200000*%
G04 APERTURE END LIST*
D10*
X17770000Y-10030000D02*
X18200000Y-9600000D01*
X18200000Y-9600000D02*
X18200000Y-7700000D01*
D11*
X13500000Y-8750000D02*
G75*
G02*
X12900000Y-8750000I-300000J0D01*
G01*
X12900000Y-8750000D02*
G75*
G02*
X13500000Y-8750000I300000J0D01*
G01*
D10*
X18200000Y-11220000D02*
X17770000Y-10790000D01*
X18200000Y-13120000D02*
X18200000Y-11220000D01*
X13130000Y-10790000D02*
X12700000Y-11220000D01*
D11*
X17745000Y-8750000D02*
G75*
G02*
X17395000Y-8750000I-175000J0D01*
G01*
X17395000Y-8750000D02*
G75*
G02*
X17745000Y-8750000I175000J0D01*
G01*
D10*
X18200000Y-7700000D02*
X18050000Y-7550000D01*
X12700000Y-7725000D02*
X12700000Y-9600000D01*
X13130000Y-10040000D02*
X13130000Y-10790000D01*
X17770000Y-10790000D02*
X17770000Y-10030000D01*
X18050000Y-7550000D02*
X12875000Y-7550000D01*
X12700000Y-11220000D02*
X12700000Y-13120000D01*
X12875000Y-7550000D02*
X12700000Y-7725000D01*
X12850000Y-13270000D02*
X18050000Y-13270000D01*
X12700000Y-9600000D02*
X13130000Y-10040000D01*
D11*
X13375000Y-12070000D02*
G75*
G02*
X13025000Y-12070000I-175000J0D01*
G01*
X13025000Y-12070000D02*
G75*
G02*
X13375000Y-12070000I175000J0D01*
G01*
D10*
X18050000Y-13270000D02*
X18200000Y-13120000D01*
X12700000Y-13120000D02*
X12850000Y-13270000D01*
D11*
X18080000Y-12070000D02*
G75*
G02*
X17480000Y-12070000I-300000J0D01*
G01*
X17480000Y-12070000D02*
G75*
G02*
X18080000Y-12070000I300000J0D01*
G01*
D12*
X12955777Y-13586484D02*
X12955777Y-13386484D01*
X12955777Y-13386484D02*
X13003396Y-13386484D01*
X13003396Y-13386484D02*
X13031967Y-13396008D01*
X13031967Y-13396008D02*
X13051015Y-13415055D01*
X13051015Y-13415055D02*
X13060539Y-13434103D01*
X13060539Y-13434103D02*
X13070062Y-13472198D01*
X13070062Y-13472198D02*
X13070062Y-13500769D01*
X13070062Y-13500769D02*
X13060539Y-13538865D01*
X13060539Y-13538865D02*
X13051015Y-13557912D01*
X13051015Y-13557912D02*
X13031967Y-13576960D01*
X13031967Y-13576960D02*
X13003396Y-13586484D01*
X13003396Y-13586484D02*
X12955777Y-13586484D01*
X13155777Y-13586484D02*
X13155777Y-13453150D01*
X13155777Y-13491246D02*
X13165301Y-13472198D01*
X13165301Y-13472198D02*
X13174824Y-13462674D01*
X13174824Y-13462674D02*
X13193872Y-13453150D01*
X13193872Y-13453150D02*
X13212920Y-13453150D01*
X13279586Y-13586484D02*
X13279586Y-13453150D01*
X13279586Y-13386484D02*
X13270062Y-13396008D01*
X13270062Y-13396008D02*
X13279586Y-13405531D01*
X13279586Y-13405531D02*
X13289110Y-13396008D01*
X13289110Y-13396008D02*
X13279586Y-13386484D01*
X13279586Y-13386484D02*
X13279586Y-13405531D01*
X13403396Y-13586484D02*
X13384348Y-13576960D01*
X13384348Y-13576960D02*
X13374824Y-13557912D01*
X13374824Y-13557912D02*
X13374824Y-13386484D01*
X13508158Y-13586484D02*
X13489110Y-13576960D01*
X13489110Y-13576960D02*
X13479586Y-13557912D01*
X13479586Y-13557912D02*
X13479586Y-13386484D01*
X13736729Y-13586484D02*
X13736729Y-13386484D01*
X13736729Y-13386484D02*
X13803396Y-13529341D01*
X13803396Y-13529341D02*
X13870062Y-13386484D01*
X13870062Y-13386484D02*
X13870062Y-13586484D01*
X14051015Y-13586484D02*
X14051015Y-13481722D01*
X14051015Y-13481722D02*
X14041491Y-13462674D01*
X14041491Y-13462674D02*
X14022443Y-13453150D01*
X14022443Y-13453150D02*
X13984348Y-13453150D01*
X13984348Y-13453150D02*
X13965301Y-13462674D01*
X14051015Y-13576960D02*
X14031967Y-13586484D01*
X14031967Y-13586484D02*
X13984348Y-13586484D01*
X13984348Y-13586484D02*
X13965301Y-13576960D01*
X13965301Y-13576960D02*
X13955777Y-13557912D01*
X13955777Y-13557912D02*
X13955777Y-13538865D01*
X13955777Y-13538865D02*
X13965301Y-13519817D01*
X13965301Y-13519817D02*
X13984348Y-13510293D01*
X13984348Y-13510293D02*
X14031967Y-13510293D01*
X14031967Y-13510293D02*
X14051015Y-13500769D01*
X14146253Y-13453150D02*
X14146253Y-13653150D01*
X14146253Y-13462674D02*
X14165301Y-13453150D01*
X14165301Y-13453150D02*
X14203396Y-13453150D01*
X14203396Y-13453150D02*
X14222443Y-13462674D01*
X14222443Y-13462674D02*
X14231967Y-13472198D01*
X14231967Y-13472198D02*
X14241491Y-13491246D01*
X14241491Y-13491246D02*
X14241491Y-13548388D01*
X14241491Y-13548388D02*
X14231967Y-13567436D01*
X14231967Y-13567436D02*
X14222443Y-13576960D01*
X14222443Y-13576960D02*
X14203396Y-13586484D01*
X14203396Y-13586484D02*
X14165301Y-13586484D01*
X14165301Y-13586484D02*
X14146253Y-13576960D01*
X14327205Y-13567436D02*
X14336729Y-13576960D01*
X14336729Y-13576960D02*
X14327205Y-13586484D01*
X14327205Y-13586484D02*
X14317682Y-13576960D01*
X14317682Y-13576960D02*
X14327205Y-13567436D01*
X14327205Y-13567436D02*
X14327205Y-13586484D01*
X14327205Y-13462674D02*
X14336729Y-13472198D01*
X14336729Y-13472198D02*
X14327205Y-13481722D01*
X14327205Y-13481722D02*
X14317682Y-13472198D01*
X14317682Y-13472198D02*
X14327205Y-13462674D01*
X14327205Y-13462674D02*
X14327205Y-13481722D01*
M02*
