G04 #@! TF.GenerationSoftware,KiCad,Pcbnew,9.0.4-9.0.4-0~ubuntu24.04.1*
G04 #@! TF.CreationDate,2025-09-13T11:56:24+02:00*
G04 #@! TF.ProjectId,SMG_OVN_DE96-00994A,534d475f-4f56-44e5-9f44-4539362d3030,1*
G04 #@! TF.SameCoordinates,Original*
G04 #@! TF.FileFunction,Profile,NP*
%FSLAX46Y46*%
G04 Gerber Fmt 4.6, Leading zero omitted, Abs format (unit mm)*
G04 Created by KiCad (PCBNEW 9.0.4-9.0.4-0~ubuntu24.04.1) date 2025-09-13 11:56:24*
%MOMM*%
%LPD*%
G01*
G04 APERTURE LIST*
G04 #@! TA.AperFunction,Profile*
%ADD10C,0.100000*%
G04 #@! TD*
G04 #@! TA.AperFunction,Profile*
%ADD11C,0.050000*%
G04 #@! TD*
G04 APERTURE END LIST*
D10*
X177700000Y-100300000D02*
X182000000Y-96000000D01*
X182000000Y-96000000D02*
X182000000Y-77000000D01*
D11*
X135000000Y-87500000D02*
G75*
G02*
X129000000Y-87500000I-3000000J0D01*
G01*
X129000000Y-87500000D02*
G75*
G02*
X135000000Y-87500000I3000000J0D01*
G01*
D10*
X182000000Y-112200000D02*
X177700000Y-107900000D01*
X182000000Y-131200000D02*
X182000000Y-112200000D01*
X131300000Y-107900000D02*
X127000000Y-112200000D01*
D11*
X177450000Y-87500000D02*
G75*
G02*
X173950000Y-87500000I-1750000J0D01*
G01*
X173950000Y-87500000D02*
G75*
G02*
X177450000Y-87500000I1750000J0D01*
G01*
D10*
X182000000Y-77000000D02*
X180500000Y-75500000D01*
X127000000Y-77250000D02*
X127000000Y-96000000D01*
X131300000Y-100400000D02*
X131300000Y-107900000D01*
X177700000Y-107900000D02*
X177700000Y-100300000D01*
X180500000Y-75500000D02*
X128750000Y-75500000D01*
X127000000Y-112200000D02*
X127000000Y-131200000D01*
X128750000Y-75500000D02*
X127000000Y-77250000D01*
X128500000Y-132700000D02*
X180500000Y-132700000D01*
X127000000Y-96000000D02*
X131300000Y-100400000D01*
D11*
X133750000Y-120700000D02*
G75*
G02*
X130250000Y-120700000I-1750000J0D01*
G01*
X130250000Y-120700000D02*
G75*
G02*
X133750000Y-120700000I1750000J0D01*
G01*
D10*
X180500000Y-132700000D02*
X182000000Y-131200000D01*
X127000000Y-131200000D02*
X128500000Y-132700000D01*
D11*
X180800000Y-120700000D02*
G75*
G02*
X174800000Y-120700000I-3000000J0D01*
G01*
X174800000Y-120700000D02*
G75*
G02*
X180800000Y-120700000I3000000J0D01*
G01*
M02*
