G04 #@! TF.GenerationSoftware,KiCad,Pcbnew,9.0.4-9.0.4-0~ubuntu24.04.1*
G04 #@! TF.CreationDate,2025-09-13T11:56:24+02:00*
G04 #@! TF.ProjectId,SMG_OVN_DE96-00994A,534d475f-4f56-44e5-9f44-4539362d3030,1*
G04 #@! TF.SameCoordinates,Original*
G04 #@! TF.FileFunction,Copper,L2,Bot*
G04 #@! TF.FilePolarity,Positive*
%FSLAX46Y46*%
G04 Gerber Fmt 4.6, Leading zero omitted, Abs format (unit mm)*
G04 Created by KiCad (PCBNEW 9.0.4-9.0.4-0~ubuntu24.04.1) date 2025-09-13 11:56:24*
%MOMM*%
%LPD*%
G01*
G04 APERTURE LIST*
G04 Aperture macros list*
%AMRoundRect*
0 Rectangle with rounded corners*
0 $1 Rounding radius*
0 $2 $3 $4 $5 $6 $7 $8 $9 X,Y pos of 4 corners*
0 Add a 4 corners polygon primitive as box body*
4,1,4,$2,$3,$4,$5,$6,$7,$8,$9,$2,$3,0*
0 Add four circle primitives for the rounded corners*
1,1,$1+$1,$2,$3*
1,1,$1+$1,$4,$5*
1,1,$1+$1,$6,$7*
1,1,$1+$1,$8,$9*
0 Add four rect primitives between the rounded corners*
20,1,$1+$1,$2,$3,$4,$5,0*
20,1,$1+$1,$4,$5,$6,$7,0*
20,1,$1+$1,$6,$7,$8,$9,0*
20,1,$1+$1,$8,$9,$2,$3,0*%
G04 Aperture macros list end*
G04 #@! TA.AperFunction,ComponentPad*
%ADD10R,1.800000X1.800000*%
G04 #@! TD*
G04 #@! TA.AperFunction,ComponentPad*
%ADD11C,1.800000*%
G04 #@! TD*
G04 #@! TA.AperFunction,ComponentPad*
%ADD12C,2.000000*%
G04 #@! TD*
G04 #@! TA.AperFunction,ComponentPad*
%ADD13R,2.250000X2.250000*%
G04 #@! TD*
G04 #@! TA.AperFunction,ComponentPad*
%ADD14C,2.250000*%
G04 #@! TD*
G04 #@! TA.AperFunction,SMDPad,CuDef*
%ADD15RoundRect,0.200000X-0.200000X-0.275000X0.200000X-0.275000X0.200000X0.275000X-0.200000X0.275000X0*%
G04 #@! TD*
G04 #@! TA.AperFunction,SMDPad,CuDef*
%ADD16RoundRect,0.200000X0.275000X-0.200000X0.275000X0.200000X-0.275000X0.200000X-0.275000X-0.200000X0*%
G04 #@! TD*
G04 #@! TA.AperFunction,SMDPad,CuDef*
%ADD17RoundRect,0.200000X-0.275000X0.200000X-0.275000X-0.200000X0.275000X-0.200000X0.275000X0.200000X0*%
G04 #@! TD*
G04 #@! TA.AperFunction,SMDPad,CuDef*
%ADD18RoundRect,0.200000X0.200000X0.275000X-0.200000X0.275000X-0.200000X-0.275000X0.200000X-0.275000X0*%
G04 #@! TD*
G04 #@! TA.AperFunction,Conductor*
%ADD19C,1.000000*%
G04 #@! TD*
G04 APERTURE END LIST*
D10*
G04 #@! TO.P,D4,1,K*
G04 #@! TO.N,/LED_K*
X134900000Y-104300000D03*
D11*
G04 #@! TO.P,D4,2,A*
G04 #@! TO.N,Net-(D4-A)*
X137440000Y-104300000D03*
G04 #@! TD*
D10*
G04 #@! TO.P,D3,1,K*
G04 #@! TO.N,/LED_K*
X144500000Y-89300000D03*
D11*
G04 #@! TO.P,D3,2,A*
G04 #@! TO.N,Net-(D3-A)*
X147040000Y-89300000D03*
G04 #@! TD*
D10*
G04 #@! TO.P,D1,1,K*
G04 #@! TO.N,/LED_K*
X172000000Y-104300000D03*
D11*
G04 #@! TO.P,D1,2,A*
G04 #@! TO.N,Net-(D1-A)*
X174540000Y-104300000D03*
G04 #@! TD*
D10*
G04 #@! TO.P,D5,1,K*
G04 #@! TO.N,/LED_K*
X144500000Y-119300000D03*
D11*
G04 #@! TO.P,D5,2,A*
G04 #@! TO.N,Net-(D5-A)*
X147040000Y-119300000D03*
G04 #@! TD*
D10*
G04 #@! TO.P,D6,1,K*
G04 #@! TO.N,/LED_K*
X162000000Y-119300000D03*
D11*
G04 #@! TO.P,D6,2,A*
G04 #@! TO.N,Net-(D6-A)*
X164540000Y-119300000D03*
G04 #@! TD*
D10*
G04 #@! TO.P,D2,1,K*
G04 #@! TO.N,/LED_K*
X162000000Y-89300000D03*
D11*
G04 #@! TO.P,D2,2,A*
G04 #@! TO.N,Net-(D2-A)*
X164540000Y-89300000D03*
G04 #@! TD*
D12*
G04 #@! TO.P,J1,1,1*
G04 #@! TO.N,GND*
X150750000Y-123150000D03*
G04 #@! TO.P,J1,2,2*
G04 #@! TO.N,/LED_K*
X153250000Y-123150000D03*
G04 #@! TO.P,J1,3,3*
G04 #@! TO.N,/OUT*
X155750000Y-123150000D03*
G04 #@! TO.P,J1,4,4*
G04 #@! TO.N,VDD*
X158238070Y-123150000D03*
G04 #@! TD*
D13*
G04 #@! TO.P,RS1,1*
G04 #@! TO.N,Net-(R4-Pad1)*
X152000000Y-113452000D03*
D14*
G04 #@! TO.P,RS1,2*
G04 #@! TO.N,Net-(R5-Pad1)*
X147741000Y-110994000D03*
G04 #@! TO.P,RS1,3*
G04 #@! TO.N,Net-(R6-Pad1)*
X145283000Y-106735000D03*
G04 #@! TO.P,RS1,4*
G04 #@! TO.N,Net-(R7-Pad2)*
X145283000Y-101817000D03*
G04 #@! TO.P,RS1,5*
G04 #@! TO.N,Net-(R8-Pad2)*
X147741000Y-97558000D03*
G04 #@! TO.P,RS1,6*
G04 #@! TO.N,Net-(R10-Pad1)*
X152000000Y-95100000D03*
G04 #@! TO.P,RS1,7*
G04 #@! TO.N,Net-(R10-Pad2)*
X156918000Y-95100000D03*
G04 #@! TO.P,RS1,8*
G04 #@! TO.N,Net-(R11-Pad2)*
X161177000Y-97558000D03*
G04 #@! TO.P,RS1,9*
G04 #@! TO.N,Net-(R12-Pad2)*
X163635000Y-101817000D03*
G04 #@! TO.P,RS1,10*
G04 #@! TO.N,Net-(R1-Pad1)*
X163635000Y-106735000D03*
G04 #@! TO.P,RS1,11*
G04 #@! TO.N,Net-(R2-Pad1)*
X161177000Y-110994000D03*
G04 #@! TO.P,RS1,12*
G04 #@! TO.N,Net-(R3-Pad1)*
X156918000Y-113452000D03*
G04 #@! TO.P,RS1,13*
G04 #@! TO.N,/OUT*
X149863000Y-108872000D03*
G04 #@! TO.P,RS1,14*
X149863000Y-99680000D03*
G04 #@! TO.P,RS1,15*
X159055000Y-108872000D03*
G04 #@! TO.P,RS1,16*
X159055000Y-99680000D03*
G04 #@! TD*
D15*
G04 #@! TO.P,R4,1*
G04 #@! TO.N,Net-(R4-Pad1)*
X153500000Y-116500000D03*
G04 #@! TO.P,R4,2*
G04 #@! TO.N,Net-(R3-Pad1)*
X155150000Y-116500000D03*
G04 #@! TD*
D16*
G04 #@! TO.P,R2,1*
G04 #@! TO.N,Net-(R2-Pad1)*
X165750000Y-111000000D03*
G04 #@! TO.P,R2,2*
G04 #@! TO.N,Net-(R1-Pad1)*
X165750000Y-109350000D03*
G04 #@! TD*
D17*
G04 #@! TO.P,R16,1*
G04 #@! TO.N,Net-(D4-A)*
X139750000Y-103425000D03*
G04 #@! TO.P,R16,2*
G04 #@! TO.N,VDD*
X139750000Y-105075000D03*
G04 #@! TD*
D18*
G04 #@! TO.P,R13,1*
G04 #@! TO.N,/OUT*
X155750000Y-119750000D03*
G04 #@! TO.P,R13,2*
G04 #@! TO.N,GND*
X154100000Y-119750000D03*
G04 #@! TD*
D15*
G04 #@! TO.P,R11,1*
G04 #@! TO.N,Net-(R10-Pad2)*
X159425000Y-93750000D03*
G04 #@! TO.P,R11,2*
G04 #@! TO.N,Net-(R11-Pad2)*
X161075000Y-93750000D03*
G04 #@! TD*
G04 #@! TO.P,R3,1*
G04 #@! TO.N,Net-(R3-Pad1)*
X159500000Y-115250000D03*
G04 #@! TO.P,R3,2*
G04 #@! TO.N,Net-(R2-Pad1)*
X161150000Y-115250000D03*
G04 #@! TD*
D16*
G04 #@! TO.P,R8,1*
G04 #@! TO.N,Net-(R7-Pad2)*
X143000000Y-99250000D03*
G04 #@! TO.P,R8,2*
G04 #@! TO.N,Net-(R8-Pad2)*
X143000000Y-97600000D03*
G04 #@! TD*
D15*
G04 #@! TO.P,R1,1*
G04 #@! TO.N,Net-(R1-Pad1)*
X166175000Y-104250000D03*
G04 #@! TO.P,R1,2*
G04 #@! TO.N,VDD*
X167825000Y-104250000D03*
G04 #@! TD*
D16*
G04 #@! TO.P,R18,1*
G04 #@! TO.N,Net-(D6-A)*
X166750000Y-120325000D03*
G04 #@! TO.P,R18,2*
G04 #@! TO.N,VDD*
X166750000Y-118675000D03*
G04 #@! TD*
D15*
G04 #@! TO.P,R10,1*
G04 #@! TO.N,Net-(R10-Pad1)*
X153750000Y-92000000D03*
G04 #@! TO.P,R10,2*
G04 #@! TO.N,Net-(R10-Pad2)*
X155400000Y-92000000D03*
G04 #@! TD*
D16*
G04 #@! TO.P,R7,1*
G04 #@! TO.N,Net-(R6-Pad1)*
X143000000Y-104750000D03*
G04 #@! TO.P,R7,2*
G04 #@! TO.N,Net-(R7-Pad2)*
X143000000Y-103100000D03*
G04 #@! TD*
D17*
G04 #@! TO.P,R15,1*
G04 #@! TO.N,Net-(D3-A)*
X149250000Y-88425000D03*
G04 #@! TO.P,R15,2*
G04 #@! TO.N,VDD*
X149250000Y-90075000D03*
G04 #@! TD*
D15*
G04 #@! TO.P,R5,1*
G04 #@! TO.N,Net-(R5-Pad1)*
X147750000Y-115250000D03*
G04 #@! TO.P,R5,2*
G04 #@! TO.N,Net-(R4-Pad1)*
X149400000Y-115250000D03*
G04 #@! TD*
D17*
G04 #@! TO.P,R14,1*
G04 #@! TO.N,Net-(D2-A)*
X167000000Y-88425000D03*
G04 #@! TO.P,R14,2*
G04 #@! TO.N,VDD*
X167000000Y-90075000D03*
G04 #@! TD*
D15*
G04 #@! TO.P,R9,1*
G04 #@! TO.N,Net-(R8-Pad2)*
X147750000Y-93750000D03*
G04 #@! TO.P,R9,2*
G04 #@! TO.N,Net-(R10-Pad1)*
X149400000Y-93750000D03*
G04 #@! TD*
D17*
G04 #@! TO.P,R19,1*
G04 #@! TO.N,Net-(D1-A)*
X169750000Y-103425000D03*
G04 #@! TO.P,R19,2*
G04 #@! TO.N,VDD*
X169750000Y-105075000D03*
G04 #@! TD*
G04 #@! TO.P,R6,1*
G04 #@! TO.N,Net-(R6-Pad1)*
X143000000Y-109250000D03*
G04 #@! TO.P,R6,2*
G04 #@! TO.N,Net-(R5-Pad1)*
X143000000Y-110900000D03*
G04 #@! TD*
G04 #@! TO.P,R17,1*
G04 #@! TO.N,Net-(D5-A)*
X149250000Y-118425000D03*
G04 #@! TO.P,R17,2*
G04 #@! TO.N,VDD*
X149250000Y-120075000D03*
G04 #@! TD*
G04 #@! TO.P,R12,1*
G04 #@! TO.N,Net-(R11-Pad2)*
X165750000Y-97500000D03*
G04 #@! TO.P,R12,2*
G04 #@! TO.N,Net-(R12-Pad2)*
X165750000Y-99150000D03*
G04 #@! TD*
D19*
G04 #@! TO.N,Net-(R1-Pad1)*
X165235000Y-106735000D02*
X163635000Y-106735000D01*
X165750000Y-107250000D02*
X165235000Y-106735000D01*
X166175000Y-105795000D02*
X165235000Y-106735000D01*
X165750000Y-109350000D02*
X165750000Y-107250000D01*
X166175000Y-104250000D02*
X166175000Y-105795000D01*
G04 #@! TO.N,VDD*
X165575000Y-91500000D02*
X167000000Y-90075000D01*
X156500000Y-118250000D02*
X158209000Y-119959000D01*
X147325000Y-92000000D02*
X143000000Y-92000000D01*
X158209000Y-119959000D02*
X158209000Y-123150000D01*
X149250000Y-90075000D02*
X159075000Y-90075000D01*
X150175000Y-120075000D02*
X152000000Y-118250000D01*
X165575000Y-91500000D02*
X167825000Y-93750000D01*
X167825000Y-118675000D02*
X169750000Y-116750000D01*
X149250000Y-120075000D02*
X150175000Y-120075000D01*
X165250000Y-117250000D02*
X160918000Y-117250000D01*
X143000000Y-92000000D02*
X141250000Y-93750000D01*
X169750000Y-105075000D02*
X168650000Y-105075000D01*
X167825000Y-93750000D02*
X167825000Y-104250000D01*
X166675000Y-118675000D02*
X165250000Y-117250000D01*
X141250000Y-93750000D02*
X141250000Y-104250000D01*
X160918000Y-117250000D02*
X158209000Y-119959000D01*
X166750000Y-118675000D02*
X166675000Y-118675000D01*
X141250000Y-104250000D02*
X140425000Y-105075000D01*
X168650000Y-105075000D02*
X167825000Y-104250000D01*
X152000000Y-118250000D02*
X156500000Y-118250000D01*
X160500000Y-91500000D02*
X165575000Y-91500000D01*
X140425000Y-105075000D02*
X139750000Y-105075000D01*
X149250000Y-90075000D02*
X147325000Y-92000000D01*
X159075000Y-90075000D02*
X160500000Y-91500000D01*
X166750000Y-118675000D02*
X167825000Y-118675000D01*
X169750000Y-116750000D02*
X169750000Y-105075000D01*
G04 #@! TO.N,Net-(R2-Pad1)*
X161177000Y-110994000D02*
X165744000Y-110994000D01*
X161150000Y-111021000D02*
X161177000Y-110994000D01*
X161150000Y-115250000D02*
X161150000Y-111021000D01*
X165744000Y-110994000D02*
X165750000Y-111000000D01*
G04 #@! TO.N,Net-(R3-Pad1)*
X159500000Y-115250000D02*
X158716000Y-115250000D01*
X155150000Y-116500000D02*
X155150000Y-115220000D01*
X155150000Y-115220000D02*
X156918000Y-113452000D01*
X158716000Y-115250000D02*
X156918000Y-113452000D01*
G04 #@! TO.N,Net-(R4-Pad1)*
X153500000Y-116500000D02*
X153500000Y-114952000D01*
X150202000Y-115250000D02*
X152000000Y-113452000D01*
X149400000Y-115250000D02*
X150202000Y-115250000D01*
X153500000Y-114952000D02*
X152000000Y-113452000D01*
G04 #@! TO.N,Net-(R5-Pad1)*
X143000000Y-110900000D02*
X147647000Y-110900000D01*
X147741000Y-110994000D02*
X147741000Y-115241000D01*
X147741000Y-115241000D02*
X147750000Y-115250000D01*
X147647000Y-110900000D02*
X147741000Y-110994000D01*
G04 #@! TO.N,Net-(R6-Pad1)*
X143000000Y-107250000D02*
X143000000Y-109250000D01*
X143000000Y-104750000D02*
X143000000Y-106250000D01*
X143500000Y-106750000D02*
X143515000Y-106735000D01*
X143515000Y-106735000D02*
X143000000Y-107250000D01*
X143515000Y-106735000D02*
X145283000Y-106735000D01*
X143000000Y-106250000D02*
X143500000Y-106750000D01*
G04 #@! TO.N,Net-(R7-Pad2)*
X145283000Y-101817000D02*
X145283000Y-101533000D01*
X145283000Y-101817000D02*
X144000000Y-103100000D01*
X144000000Y-103100000D02*
X143000000Y-103100000D01*
X145283000Y-101533000D02*
X143000000Y-99250000D01*
G04 #@! TO.N,Net-(R8-Pad2)*
X147741000Y-94009000D02*
X147741000Y-97558000D01*
X147750000Y-94000000D02*
X147741000Y-94009000D01*
X147750000Y-93750000D02*
X147750000Y-94000000D01*
X142542000Y-97558000D02*
X142500000Y-97600000D01*
X147741000Y-97558000D02*
X142542000Y-97558000D01*
G04 #@! TO.N,Net-(R10-Pad1)*
X150650000Y-93750000D02*
X152000000Y-95100000D01*
X149400000Y-93750000D02*
X150650000Y-93750000D01*
X153750000Y-93350000D02*
X152000000Y-95100000D01*
X153750000Y-92000000D02*
X153750000Y-93350000D01*
G04 #@! TO.N,Net-(R10-Pad2)*
X155400000Y-93582000D02*
X156918000Y-95100000D01*
X159425000Y-93750000D02*
X158268000Y-93750000D01*
X158268000Y-93750000D02*
X156918000Y-95100000D01*
X155400000Y-92000000D02*
X155400000Y-93582000D01*
G04 #@! TO.N,Net-(R11-Pad2)*
X161075000Y-97456000D02*
X161177000Y-97558000D01*
X161235000Y-97500000D02*
X161177000Y-97558000D01*
X165750000Y-97500000D02*
X161235000Y-97500000D01*
X161075000Y-93750000D02*
X161075000Y-97456000D01*
G04 #@! TO.N,Net-(R12-Pad2)*
X165750000Y-99702000D02*
X165750000Y-99150000D01*
X163635000Y-101817000D02*
X165750000Y-99702000D01*
G04 #@! TO.N,GND*
X150709000Y-121791000D02*
X152750000Y-119750000D01*
X152750000Y-119750000D02*
X154100000Y-119750000D01*
X150709000Y-123150000D02*
X150709000Y-121791000D01*
G04 #@! TO.N,/LED_K*
X172250000Y-90750000D02*
X167500000Y-86000000D01*
X167500000Y-86000000D02*
X163500000Y-86000000D01*
X144500000Y-119300000D02*
X140800000Y-119300000D01*
X145750000Y-86000000D02*
X160500000Y-86000000D01*
X134900000Y-104300000D02*
X134900000Y-94850000D01*
X144500000Y-123750000D02*
X145750000Y-125000000D01*
X144500000Y-87250000D02*
X145750000Y-86000000D01*
X134900000Y-94850000D02*
X140450000Y-89300000D01*
X176250000Y-101750000D02*
X172250000Y-97750000D01*
X163500000Y-86000000D02*
X162000000Y-87500000D01*
X162000000Y-87500000D02*
X162000000Y-89300000D01*
X134900000Y-113400000D02*
X134900000Y-104300000D01*
X172000000Y-106250000D02*
X172000000Y-104300000D01*
X144500000Y-89300000D02*
X144500000Y-87250000D01*
X162000000Y-123500000D02*
X162000000Y-119300000D01*
X167250000Y-125000000D02*
X173750000Y-118500000D01*
X140450000Y-89300000D02*
X144500000Y-89300000D01*
X176250000Y-105500000D02*
X176250000Y-101750000D01*
X145750000Y-125000000D02*
X160500000Y-125000000D01*
X173750000Y-108000000D02*
X176250000Y-105500000D01*
X162000000Y-123500000D02*
X163500000Y-125000000D01*
X163500000Y-125000000D02*
X167250000Y-125000000D01*
X140800000Y-119300000D02*
X134900000Y-113400000D01*
X160500000Y-86000000D02*
X162000000Y-87500000D01*
X160500000Y-125000000D02*
X162000000Y-123500000D01*
X173750000Y-108000000D02*
X172000000Y-106250000D01*
X172250000Y-97750000D02*
X172250000Y-90750000D01*
X144500000Y-119300000D02*
X144500000Y-123750000D01*
X173750000Y-118500000D02*
X173750000Y-108000000D01*
X153209000Y-123150000D02*
X153209000Y-124959000D01*
G04 #@! TO.N,Net-(D1-A)*
X174000000Y-102250000D02*
X170925000Y-102250000D01*
X174540000Y-102790000D02*
X174000000Y-102250000D01*
X174540000Y-104300000D02*
X174540000Y-102790000D01*
X170925000Y-102250000D02*
X169750000Y-103425000D01*
G04 #@! TO.N,/OUT*
X155709000Y-123150000D02*
X155709000Y-123041000D01*
X155750000Y-123000000D02*
X155750000Y-119750000D01*
X155709000Y-123041000D02*
X155750000Y-123000000D01*
G04 #@! TO.N,Net-(D2-A)*
X167000000Y-88425000D02*
X165415000Y-88425000D01*
X165415000Y-88425000D02*
X164540000Y-89300000D01*
G04 #@! TO.N,Net-(D3-A)*
X149250000Y-88425000D02*
X147915000Y-88425000D01*
X147915000Y-88425000D02*
X147040000Y-89300000D01*
G04 #@! TO.N,Net-(D4-A)*
X138325000Y-103425000D02*
X137450000Y-104300000D01*
X139750000Y-103425000D02*
X138325000Y-103425000D01*
X137450000Y-104300000D02*
X137440000Y-104300000D01*
G04 #@! TO.N,Net-(D5-A)*
X147915000Y-118425000D02*
X147040000Y-119300000D01*
X149250000Y-118425000D02*
X147915000Y-118425000D01*
G04 #@! TO.N,Net-(D6-A)*
X165565000Y-120325000D02*
X164540000Y-119300000D01*
X166750000Y-120325000D02*
X165565000Y-120325000D01*
G04 #@! TD*
G04 #@! TA.AperFunction,Conductor*
G04 #@! TO.N,/OUT*
G36*
X159629044Y-96769685D02*
G01*
X159674799Y-96822489D01*
X159684743Y-96891647D01*
X159672492Y-96930291D01*
X159670591Y-96934022D01*
X159670588Y-96934027D01*
X159591526Y-97177359D01*
X159551500Y-97430070D01*
X159551500Y-97685929D01*
X159591526Y-97938641D01*
X159591541Y-97938687D01*
X159591541Y-97938705D01*
X159592664Y-97943382D01*
X159591681Y-97943617D01*
X159593538Y-98008528D01*
X159557458Y-98068362D01*
X159494758Y-98099191D01*
X159440466Y-98095309D01*
X159440265Y-98096151D01*
X159435525Y-98095013D01*
X159182889Y-98055000D01*
X158927111Y-98055000D01*
X158674476Y-98095013D01*
X158431218Y-98174051D01*
X158431215Y-98174052D01*
X158203310Y-98290177D01*
X158096403Y-98367849D01*
X158096402Y-98367850D01*
X158730974Y-99002421D01*
X158699742Y-99015359D01*
X158576903Y-99097437D01*
X158472437Y-99201903D01*
X158390359Y-99324742D01*
X158377421Y-99355974D01*
X157742850Y-98721402D01*
X157742849Y-98721403D01*
X157665177Y-98828310D01*
X157549052Y-99056215D01*
X157549051Y-99056218D01*
X157470013Y-99299476D01*
X157430000Y-99552110D01*
X157430000Y-99807889D01*
X157470013Y-100060523D01*
X157549051Y-100303781D01*
X157549052Y-100303784D01*
X157665175Y-100531686D01*
X157742850Y-100638595D01*
X157742850Y-100638596D01*
X158377421Y-100004024D01*
X158390359Y-100035258D01*
X158472437Y-100158097D01*
X158576903Y-100262563D01*
X158699742Y-100344641D01*
X158730974Y-100357577D01*
X158096402Y-100992148D01*
X158203313Y-101069824D01*
X158431215Y-101185947D01*
X158431218Y-101185948D01*
X158674476Y-101264986D01*
X158927111Y-101305000D01*
X159182889Y-101305000D01*
X159435523Y-101264986D01*
X159678781Y-101185948D01*
X159678784Y-101185947D01*
X159906685Y-101069825D01*
X160013595Y-100992148D01*
X160013596Y-100992148D01*
X159379025Y-100357578D01*
X159410258Y-100344641D01*
X159533097Y-100262563D01*
X159637563Y-100158097D01*
X159719641Y-100035258D01*
X159732578Y-100004025D01*
X160367148Y-100638596D01*
X160367148Y-100638595D01*
X160444825Y-100531685D01*
X160560947Y-100303784D01*
X160560948Y-100303781D01*
X160639986Y-100060523D01*
X160680000Y-99807889D01*
X160680000Y-99552110D01*
X160639986Y-99299476D01*
X160638848Y-99294731D01*
X160639916Y-99294474D01*
X160638061Y-99229883D01*
X160674133Y-99170045D01*
X160736829Y-99139207D01*
X160791440Y-99143109D01*
X160791626Y-99142337D01*
X160796287Y-99143456D01*
X160796311Y-99143457D01*
X160796361Y-99143474D01*
X161049070Y-99183500D01*
X161049071Y-99183500D01*
X161304929Y-99183500D01*
X161304930Y-99183500D01*
X161557639Y-99143474D01*
X161800975Y-99064410D01*
X161819702Y-99054867D01*
X161888371Y-99041970D01*
X161953112Y-99068244D01*
X161993371Y-99125350D01*
X162000000Y-99165351D01*
X162000000Y-109386648D01*
X161980315Y-109453687D01*
X161927511Y-109499442D01*
X161858353Y-109509386D01*
X161819706Y-109497133D01*
X161800981Y-109487592D01*
X161800972Y-109487588D01*
X161557640Y-109408526D01*
X161352825Y-109376086D01*
X161304930Y-109368500D01*
X161049070Y-109368500D01*
X161001175Y-109376086D01*
X160796357Y-109408526D01*
X160796353Y-109408527D01*
X160796290Y-109408548D01*
X160796264Y-109408548D01*
X160791618Y-109409664D01*
X160791383Y-109408687D01*
X160726449Y-109410531D01*
X160666622Y-109374439D01*
X160635805Y-109311733D01*
X160639693Y-109257471D01*
X160638848Y-109257269D01*
X160639986Y-109252523D01*
X160680000Y-108999889D01*
X160680000Y-108744110D01*
X160639986Y-108491476D01*
X160560948Y-108248218D01*
X160560947Y-108248215D01*
X160444824Y-108020313D01*
X160367148Y-107913403D01*
X160367148Y-107913402D01*
X159732577Y-108547974D01*
X159719641Y-108516742D01*
X159637563Y-108393903D01*
X159533097Y-108289437D01*
X159410258Y-108207359D01*
X159379024Y-108194421D01*
X160013596Y-107559850D01*
X159906686Y-107482175D01*
X159678784Y-107366052D01*
X159678781Y-107366051D01*
X159435523Y-107287013D01*
X159182889Y-107247000D01*
X158927111Y-107247000D01*
X158674476Y-107287013D01*
X158431218Y-107366051D01*
X158431215Y-107366052D01*
X158203310Y-107482177D01*
X158096403Y-107559849D01*
X158096402Y-107559850D01*
X158730974Y-108194421D01*
X158699742Y-108207359D01*
X158576903Y-108289437D01*
X158472437Y-108393903D01*
X158390359Y-108516742D01*
X158377421Y-108547974D01*
X157742850Y-107913402D01*
X157742849Y-107913403D01*
X157665177Y-108020310D01*
X157549052Y-108248215D01*
X157549051Y-108248218D01*
X157470013Y-108491476D01*
X157430000Y-108744110D01*
X157430000Y-108999889D01*
X157470013Y-109252523D01*
X157549051Y-109495781D01*
X157549052Y-109495784D01*
X157665175Y-109723686D01*
X157742850Y-109830595D01*
X157742850Y-109830596D01*
X158377421Y-109196024D01*
X158390359Y-109227258D01*
X158472437Y-109350097D01*
X158576903Y-109454563D01*
X158699742Y-109536641D01*
X158730974Y-109549577D01*
X158096402Y-110184148D01*
X158203313Y-110261824D01*
X158431215Y-110377947D01*
X158431218Y-110377948D01*
X158674476Y-110456986D01*
X158927111Y-110497000D01*
X159182889Y-110497000D01*
X159435523Y-110456986D01*
X159440269Y-110455848D01*
X159440525Y-110456914D01*
X159505124Y-110455064D01*
X159564959Y-110491140D01*
X159595792Y-110553839D01*
X159591894Y-110608433D01*
X159592664Y-110608618D01*
X159591550Y-110613257D01*
X159591548Y-110613290D01*
X159591527Y-110613353D01*
X159591526Y-110613357D01*
X159551500Y-110866070D01*
X159551500Y-111121929D01*
X159591526Y-111374640D01*
X159670588Y-111617972D01*
X159670589Y-111617975D01*
X159773377Y-111819705D01*
X159786273Y-111888374D01*
X159759997Y-111953115D01*
X159702890Y-111993372D01*
X159662892Y-112000000D01*
X157678531Y-112000000D01*
X157622236Y-111986485D01*
X157541975Y-111945589D01*
X157541972Y-111945588D01*
X157298640Y-111866526D01*
X157168711Y-111845947D01*
X157045930Y-111826500D01*
X156790070Y-111826500D01*
X156705833Y-111839842D01*
X156537359Y-111866526D01*
X156294027Y-111945588D01*
X156294024Y-111945589D01*
X156213764Y-111986485D01*
X156157469Y-112000000D01*
X153564454Y-112000000D01*
X153497415Y-111980315D01*
X153489978Y-111974322D01*
X153489645Y-111974768D01*
X153367335Y-111883206D01*
X153367328Y-111883202D01*
X153232482Y-111832908D01*
X153232483Y-111832908D01*
X153172883Y-111826501D01*
X153172881Y-111826500D01*
X153172873Y-111826500D01*
X153172864Y-111826500D01*
X150827129Y-111826500D01*
X150827123Y-111826501D01*
X150767516Y-111832908D01*
X150632671Y-111883202D01*
X150632664Y-111883206D01*
X150510355Y-111974768D01*
X150508198Y-111971887D01*
X150461904Y-111997166D01*
X150435546Y-112000000D01*
X149255108Y-112000000D01*
X149188069Y-111980315D01*
X149142314Y-111927511D01*
X149132370Y-111858353D01*
X149144623Y-111819705D01*
X149247410Y-111617975D01*
X149247411Y-111617972D01*
X149296167Y-111467914D01*
X149326474Y-111374639D01*
X149366500Y-111121930D01*
X149366500Y-110866070D01*
X149326474Y-110613361D01*
X149326457Y-110613311D01*
X149326457Y-110613290D01*
X149325337Y-110608626D01*
X149326317Y-110608390D01*
X149324461Y-110543471D01*
X149360541Y-110483637D01*
X149423241Y-110452808D01*
X149477527Y-110456694D01*
X149477731Y-110455848D01*
X149482476Y-110456986D01*
X149735111Y-110497000D01*
X149990889Y-110497000D01*
X150243523Y-110456986D01*
X150486781Y-110377948D01*
X150486784Y-110377947D01*
X150714685Y-110261825D01*
X150821595Y-110184148D01*
X150821596Y-110184148D01*
X150187025Y-109549578D01*
X150218258Y-109536641D01*
X150341097Y-109454563D01*
X150445563Y-109350097D01*
X150527641Y-109227258D01*
X150540578Y-109196025D01*
X151175148Y-109830596D01*
X151175148Y-109830595D01*
X151252825Y-109723685D01*
X151368947Y-109495784D01*
X151368948Y-109495781D01*
X151447986Y-109252523D01*
X151488000Y-108999889D01*
X151488000Y-108744110D01*
X151447986Y-108491476D01*
X151368948Y-108248218D01*
X151368947Y-108248215D01*
X151252824Y-108020313D01*
X151175148Y-107913403D01*
X151175148Y-107913402D01*
X150540577Y-108547973D01*
X150527641Y-108516742D01*
X150445563Y-108393903D01*
X150341097Y-108289437D01*
X150218258Y-108207359D01*
X150187024Y-108194421D01*
X150821596Y-107559850D01*
X150714686Y-107482175D01*
X150486784Y-107366052D01*
X150486781Y-107366051D01*
X150243523Y-107287013D01*
X149990889Y-107247000D01*
X149735111Y-107247000D01*
X149482476Y-107287013D01*
X149239218Y-107366051D01*
X149239215Y-107366052D01*
X149011310Y-107482177D01*
X148904403Y-107559849D01*
X148904402Y-107559850D01*
X149538974Y-108194421D01*
X149507742Y-108207359D01*
X149384903Y-108289437D01*
X149280437Y-108393903D01*
X149198359Y-108516742D01*
X149185421Y-108547975D01*
X148550850Y-107913402D01*
X148550849Y-107913403D01*
X148473177Y-108020310D01*
X148357052Y-108248215D01*
X148357051Y-108248218D01*
X148278013Y-108491476D01*
X148238000Y-108744110D01*
X148238000Y-108999889D01*
X148278013Y-109252525D01*
X148279151Y-109257265D01*
X148278088Y-109257519D01*
X148279931Y-109322141D01*
X148243848Y-109381972D01*
X148181145Y-109412796D01*
X148126567Y-109408890D01*
X148126382Y-109409664D01*
X148121710Y-109408542D01*
X148121687Y-109408541D01*
X148121640Y-109408526D01*
X148121642Y-109408526D01*
X147916825Y-109376086D01*
X147868930Y-109368500D01*
X147613070Y-109368500D01*
X147565175Y-109376086D01*
X147360359Y-109408526D01*
X147162318Y-109472873D01*
X147092477Y-109474868D01*
X147032644Y-109438787D01*
X147001816Y-109376086D01*
X147000000Y-109354942D01*
X147000000Y-99197058D01*
X147019685Y-99130019D01*
X147072489Y-99084264D01*
X147141647Y-99074320D01*
X147162318Y-99079127D01*
X147282006Y-99118015D01*
X147360361Y-99143474D01*
X147613070Y-99183500D01*
X147613071Y-99183500D01*
X147868929Y-99183500D01*
X147868930Y-99183500D01*
X148121639Y-99143474D01*
X148121682Y-99143459D01*
X148121699Y-99143459D01*
X148126374Y-99142337D01*
X148126609Y-99143318D01*
X148191521Y-99141459D01*
X148251356Y-99177535D01*
X148282189Y-99240234D01*
X148278311Y-99294533D01*
X148279151Y-99294735D01*
X148278013Y-99299474D01*
X148238000Y-99552110D01*
X148238000Y-99807889D01*
X148278013Y-100060523D01*
X148357051Y-100303781D01*
X148357052Y-100303784D01*
X148473175Y-100531686D01*
X148550850Y-100638595D01*
X148550850Y-100638596D01*
X149185421Y-100004024D01*
X149198359Y-100035258D01*
X149280437Y-100158097D01*
X149384903Y-100262563D01*
X149507742Y-100344641D01*
X149538974Y-100357577D01*
X148904402Y-100992148D01*
X149011313Y-101069824D01*
X149239215Y-101185947D01*
X149239218Y-101185948D01*
X149482476Y-101264986D01*
X149735111Y-101305000D01*
X149990889Y-101305000D01*
X150243523Y-101264986D01*
X150486781Y-101185948D01*
X150486784Y-101185947D01*
X150714685Y-101069825D01*
X150821595Y-100992148D01*
X150821596Y-100992148D01*
X150187025Y-100357578D01*
X150218258Y-100344641D01*
X150341097Y-100262563D01*
X150445563Y-100158097D01*
X150527641Y-100035258D01*
X150540578Y-100004025D01*
X151175148Y-100638596D01*
X151175148Y-100638595D01*
X151252825Y-100531685D01*
X151368947Y-100303784D01*
X151368948Y-100303781D01*
X151447986Y-100060523D01*
X151488000Y-99807889D01*
X151488000Y-99552110D01*
X151447986Y-99299476D01*
X151368948Y-99056218D01*
X151368947Y-99056215D01*
X151252824Y-98828313D01*
X151175148Y-98721403D01*
X151175148Y-98721402D01*
X150540577Y-99355973D01*
X150527641Y-99324742D01*
X150445563Y-99201903D01*
X150341097Y-99097437D01*
X150218258Y-99015359D01*
X150187024Y-99002421D01*
X150821596Y-98367850D01*
X150714686Y-98290175D01*
X150486784Y-98174052D01*
X150486781Y-98174051D01*
X150243523Y-98095013D01*
X149990889Y-98055000D01*
X149735111Y-98055000D01*
X149482474Y-98095013D01*
X149477735Y-98096151D01*
X149477480Y-98095091D01*
X149412850Y-98096929D01*
X149353022Y-98060842D01*
X149322202Y-97998137D01*
X149326110Y-97943559D01*
X149325337Y-97943374D01*
X149326458Y-97938704D01*
X149326459Y-97938682D01*
X149326474Y-97938639D01*
X149366500Y-97685930D01*
X149366500Y-97430070D01*
X149326474Y-97177361D01*
X149247410Y-96934025D01*
X149246552Y-96932342D01*
X149245508Y-96930291D01*
X149232614Y-96861621D01*
X149258893Y-96796882D01*
X149316001Y-96756627D01*
X149355995Y-96750000D01*
X159562005Y-96750000D01*
X159629044Y-96769685D01*
G37*
G04 #@! TD.AperFunction*
G04 #@! TD*
M02*
