%TF.GenerationSoftware,KiCad,Pcbnew,9.0.4-9.0.4-0~ubuntu24.04.1*%
%TF.CreationDate,2025-09-13T11:56:24+02:00*%
%TF.ProjectId,SMG_OVN_DE96-00994A,534d475f-4f56-44e5-9f44-4539362d3030,1*%
%TF.SameCoordinates,Original*%
%TF.FileFunction,Drillmap*%
%TF.FilePolarity,Positive*%
%FSLAX45Y45*%
G04 Gerber Fmt 4.5, Leading zero omitted, Abs format (unit mm)*
G04 Created by KiCad (PCBNEW 9.0.4-9.0.4-0~ubuntu24.04.1) date 2025-09-13 11:56:24*
%MOMM*%
%LPD*%
G01*
G04 APERTURE LIST*
%ADD10C,0.100000*%
%ADD11C,0.050000*%
%ADD12C,0.200000*%
%ADD13C,0.102000*%
%ADD14C,0.150000*%
G04 APERTURE END LIST*
D10*
X17770000Y-10030000D02*
X18200000Y-9600000D01*
X18200000Y-9600000D02*
X18200000Y-7700000D01*
D11*
X13500000Y-8750000D02*
G75*
G02*
X12900000Y-8750000I-300000J0D01*
G01*
X12900000Y-8750000D02*
G75*
G02*
X13500000Y-8750000I300000J0D01*
G01*
D10*
X18200000Y-11220000D02*
X17770000Y-10790000D01*
X18200000Y-13120000D02*
X18200000Y-11220000D01*
X13130000Y-10790000D02*
X12700000Y-11220000D01*
D11*
X17745000Y-8750000D02*
G75*
G02*
X17395000Y-8750000I-175000J0D01*
G01*
X17395000Y-8750000D02*
G75*
G02*
X17745000Y-8750000I175000J0D01*
G01*
D10*
X18200000Y-7700000D02*
X18050000Y-7550000D01*
X12700000Y-7725000D02*
X12700000Y-9600000D01*
X13130000Y-10040000D02*
X13130000Y-10790000D01*
X17770000Y-10790000D02*
X17770000Y-10030000D01*
X18050000Y-7550000D02*
X12875000Y-7550000D01*
X12700000Y-11220000D02*
X12700000Y-13120000D01*
X12875000Y-7550000D02*
X12700000Y-7725000D01*
X12850000Y-13270000D02*
X18050000Y-13270000D01*
X12700000Y-9600000D02*
X13130000Y-10040000D01*
D11*
X13375000Y-12070000D02*
G75*
G02*
X13025000Y-12070000I-175000J0D01*
G01*
X13025000Y-12070000D02*
G75*
G02*
X13375000Y-12070000I175000J0D01*
G01*
D10*
X18050000Y-13270000D02*
X18200000Y-13120000D01*
X12700000Y-13120000D02*
X12850000Y-13270000D01*
D11*
X18080000Y-12070000D02*
G75*
G02*
X17480000Y-12070000I-300000J0D01*
G01*
X17480000Y-12070000D02*
G75*
G02*
X18080000Y-12070000I300000J0D01*
G01*
D12*
D10*
X13445000Y-10385000D02*
X13535000Y-10475000D01*
X13535000Y-10385000D02*
X13445000Y-10475000D01*
X13699000Y-10385000D02*
X13789000Y-10475000D01*
X13789000Y-10385000D02*
X13699000Y-10475000D01*
X14405000Y-8885000D02*
X14495000Y-8975000D01*
X14495000Y-8885000D02*
X14405000Y-8975000D01*
X14405000Y-11885000D02*
X14495000Y-11975000D01*
X14495000Y-11885000D02*
X14405000Y-11975000D01*
X14659000Y-8885000D02*
X14749000Y-8975000D01*
X14749000Y-8885000D02*
X14659000Y-8975000D01*
X14659000Y-11885000D02*
X14749000Y-11975000D01*
X14749000Y-11885000D02*
X14659000Y-11975000D01*
X16155000Y-8885000D02*
X16245000Y-8975000D01*
X16245000Y-8885000D02*
X16155000Y-8975000D01*
X16155000Y-11885000D02*
X16245000Y-11975000D01*
X16245000Y-11885000D02*
X16155000Y-11975000D01*
X16409000Y-8885000D02*
X16499000Y-8975000D01*
X16499000Y-8885000D02*
X16409000Y-8975000D01*
X16409000Y-11885000D02*
X16499000Y-11975000D01*
X16499000Y-11885000D02*
X16409000Y-11975000D01*
X17155000Y-10385000D02*
X17245000Y-10475000D01*
X17245000Y-10385000D02*
X17155000Y-10475000D01*
X17409000Y-10385000D02*
X17499000Y-10475000D01*
X17499000Y-10385000D02*
X17409000Y-10475000D01*
D13*
X15126000Y-12315000D02*
G75*
G02*
X15024000Y-12315000I-51000J0D01*
G01*
X15024000Y-12315000D02*
G75*
G02*
X15126000Y-12315000I51000J0D01*
G01*
X15376000Y-12315000D02*
G75*
G02*
X15274000Y-12315000I-51000J0D01*
G01*
X15274000Y-12315000D02*
G75*
G02*
X15376000Y-12315000I51000J0D01*
G01*
X15626000Y-12315000D02*
G75*
G02*
X15524000Y-12315000I-51000J0D01*
G01*
X15524000Y-12315000D02*
G75*
G02*
X15626000Y-12315000I51000J0D01*
G01*
X15874807Y-12315000D02*
G75*
G02*
X15772807Y-12315000I-51000J0D01*
G01*
X15772807Y-12315000D02*
G75*
G02*
X15874807Y-12315000I51000J0D01*
G01*
D14*
X14528300Y-10106700D02*
X14528300Y-10256700D01*
X14453300Y-10181700D02*
X14603300Y-10181700D01*
X14528300Y-10598500D02*
X14528300Y-10748500D01*
X14453300Y-10673500D02*
X14603300Y-10673500D01*
X14774100Y-9680800D02*
X14774100Y-9830800D01*
X14699100Y-9755800D02*
X14849100Y-9755800D01*
X14774100Y-11024400D02*
X14774100Y-11174400D01*
X14699100Y-11099400D02*
X14849100Y-11099400D01*
X14986300Y-9893000D02*
X14986300Y-10043000D01*
X14911300Y-9968000D02*
X15061300Y-9968000D01*
X14986300Y-10812200D02*
X14986300Y-10962200D01*
X14911300Y-10887200D02*
X15061300Y-10887200D01*
X15200000Y-9435000D02*
X15200000Y-9585000D01*
X15125000Y-9510000D02*
X15275000Y-9510000D01*
X15200000Y-11270200D02*
X15200000Y-11420200D01*
X15125000Y-11345200D02*
X15275000Y-11345200D01*
X15691800Y-9435000D02*
X15691800Y-9585000D01*
X15616800Y-9510000D02*
X15766800Y-9510000D01*
X15691800Y-11270200D02*
X15691800Y-11420200D01*
X15616800Y-11345200D02*
X15766800Y-11345200D01*
X15905500Y-9893000D02*
X15905500Y-10043000D01*
X15830500Y-9968000D02*
X15980500Y-9968000D01*
X15905500Y-10812200D02*
X15905500Y-10962200D01*
X15830500Y-10887200D02*
X15980500Y-10887200D01*
X16117700Y-9680800D02*
X16117700Y-9830800D01*
X16042700Y-9755800D02*
X16192700Y-9755800D01*
X16117700Y-11024400D02*
X16117700Y-11174400D01*
X16042700Y-11099400D02*
X16192700Y-11099400D01*
X16363500Y-10106700D02*
X16363500Y-10256700D01*
X16288500Y-10181700D02*
X16438500Y-10181700D01*
X16363500Y-10598500D02*
X16363500Y-10748500D01*
X16288500Y-10673500D02*
X16438500Y-10673500D01*
D12*
X12955777Y-13586484D02*
X12955777Y-13386484D01*
X12955777Y-13386484D02*
X13003396Y-13386484D01*
X13003396Y-13386484D02*
X13031967Y-13396008D01*
X13031967Y-13396008D02*
X13051015Y-13415055D01*
X13051015Y-13415055D02*
X13060539Y-13434103D01*
X13060539Y-13434103D02*
X13070062Y-13472198D01*
X13070062Y-13472198D02*
X13070062Y-13500769D01*
X13070062Y-13500769D02*
X13060539Y-13538865D01*
X13060539Y-13538865D02*
X13051015Y-13557912D01*
X13051015Y-13557912D02*
X13031967Y-13576960D01*
X13031967Y-13576960D02*
X13003396Y-13586484D01*
X13003396Y-13586484D02*
X12955777Y-13586484D01*
X13155777Y-13586484D02*
X13155777Y-13453150D01*
X13155777Y-13491246D02*
X13165301Y-13472198D01*
X13165301Y-13472198D02*
X13174824Y-13462674D01*
X13174824Y-13462674D02*
X13193872Y-13453150D01*
X13193872Y-13453150D02*
X13212920Y-13453150D01*
X13279586Y-13586484D02*
X13279586Y-13453150D01*
X13279586Y-13386484D02*
X13270062Y-13396008D01*
X13270062Y-13396008D02*
X13279586Y-13405531D01*
X13279586Y-13405531D02*
X13289110Y-13396008D01*
X13289110Y-13396008D02*
X13279586Y-13386484D01*
X13279586Y-13386484D02*
X13279586Y-13405531D01*
X13403396Y-13586484D02*
X13384348Y-13576960D01*
X13384348Y-13576960D02*
X13374824Y-13557912D01*
X13374824Y-13557912D02*
X13374824Y-13386484D01*
X13508158Y-13586484D02*
X13489110Y-13576960D01*
X13489110Y-13576960D02*
X13479586Y-13557912D01*
X13479586Y-13557912D02*
X13479586Y-13386484D01*
X13736729Y-13586484D02*
X13736729Y-13386484D01*
X13736729Y-13386484D02*
X13803396Y-13529341D01*
X13803396Y-13529341D02*
X13870062Y-13386484D01*
X13870062Y-13386484D02*
X13870062Y-13586484D01*
X14051015Y-13586484D02*
X14051015Y-13481722D01*
X14051015Y-13481722D02*
X14041491Y-13462674D01*
X14041491Y-13462674D02*
X14022443Y-13453150D01*
X14022443Y-13453150D02*
X13984348Y-13453150D01*
X13984348Y-13453150D02*
X13965301Y-13462674D01*
X14051015Y-13576960D02*
X14031967Y-13586484D01*
X14031967Y-13586484D02*
X13984348Y-13586484D01*
X13984348Y-13586484D02*
X13965301Y-13576960D01*
X13965301Y-13576960D02*
X13955777Y-13557912D01*
X13955777Y-13557912D02*
X13955777Y-13538865D01*
X13955777Y-13538865D02*
X13965301Y-13519817D01*
X13965301Y-13519817D02*
X13984348Y-13510293D01*
X13984348Y-13510293D02*
X14031967Y-13510293D01*
X14031967Y-13510293D02*
X14051015Y-13500769D01*
X14146253Y-13453150D02*
X14146253Y-13653150D01*
X14146253Y-13462674D02*
X14165301Y-13453150D01*
X14165301Y-13453150D02*
X14203396Y-13453150D01*
X14203396Y-13453150D02*
X14222443Y-13462674D01*
X14222443Y-13462674D02*
X14231967Y-13472198D01*
X14231967Y-13472198D02*
X14241491Y-13491246D01*
X14241491Y-13491246D02*
X14241491Y-13548388D01*
X14241491Y-13548388D02*
X14231967Y-13567436D01*
X14231967Y-13567436D02*
X14222443Y-13576960D01*
X14222443Y-13576960D02*
X14203396Y-13586484D01*
X14203396Y-13586484D02*
X14165301Y-13586484D01*
X14165301Y-13586484D02*
X14146253Y-13576960D01*
X14327205Y-13567436D02*
X14336729Y-13576960D01*
X14336729Y-13576960D02*
X14327205Y-13586484D01*
X14327205Y-13586484D02*
X14317682Y-13576960D01*
X14317682Y-13576960D02*
X14327205Y-13567436D01*
X14327205Y-13567436D02*
X14327205Y-13586484D01*
X14327205Y-13462674D02*
X14336729Y-13472198D01*
X14336729Y-13472198D02*
X14327205Y-13481722D01*
X14327205Y-13481722D02*
X14317682Y-13472198D01*
X14317682Y-13472198D02*
X14327205Y-13462674D01*
X14327205Y-13462674D02*
X14327205Y-13481722D01*
D10*
X12605000Y-13870000D02*
X12695000Y-13960000D01*
X12695000Y-13870000D02*
X12605000Y-13960000D01*
D12*
X12993872Y-13806484D02*
X13012920Y-13806484D01*
X13012920Y-13806484D02*
X13031967Y-13816008D01*
X13031967Y-13816008D02*
X13041491Y-13825531D01*
X13041491Y-13825531D02*
X13051015Y-13844579D01*
X13051015Y-13844579D02*
X13060539Y-13882674D01*
X13060539Y-13882674D02*
X13060539Y-13930293D01*
X13060539Y-13930293D02*
X13051015Y-13968388D01*
X13051015Y-13968388D02*
X13041491Y-13987436D01*
X13041491Y-13987436D02*
X13031967Y-13996960D01*
X13031967Y-13996960D02*
X13012920Y-14006484D01*
X13012920Y-14006484D02*
X12993872Y-14006484D01*
X12993872Y-14006484D02*
X12974824Y-13996960D01*
X12974824Y-13996960D02*
X12965301Y-13987436D01*
X12965301Y-13987436D02*
X12955777Y-13968388D01*
X12955777Y-13968388D02*
X12946253Y-13930293D01*
X12946253Y-13930293D02*
X12946253Y-13882674D01*
X12946253Y-13882674D02*
X12955777Y-13844579D01*
X12955777Y-13844579D02*
X12965301Y-13825531D01*
X12965301Y-13825531D02*
X12974824Y-13816008D01*
X12974824Y-13816008D02*
X12993872Y-13806484D01*
X13146253Y-13987436D02*
X13155777Y-13996960D01*
X13155777Y-13996960D02*
X13146253Y-14006484D01*
X13146253Y-14006484D02*
X13136729Y-13996960D01*
X13136729Y-13996960D02*
X13146253Y-13987436D01*
X13146253Y-13987436D02*
X13146253Y-14006484D01*
X13251015Y-14006484D02*
X13289110Y-14006484D01*
X13289110Y-14006484D02*
X13308158Y-13996960D01*
X13308158Y-13996960D02*
X13317682Y-13987436D01*
X13317682Y-13987436D02*
X13336729Y-13958865D01*
X13336729Y-13958865D02*
X13346253Y-13920769D01*
X13346253Y-13920769D02*
X13346253Y-13844579D01*
X13346253Y-13844579D02*
X13336729Y-13825531D01*
X13336729Y-13825531D02*
X13327205Y-13816008D01*
X13327205Y-13816008D02*
X13308158Y-13806484D01*
X13308158Y-13806484D02*
X13270062Y-13806484D01*
X13270062Y-13806484D02*
X13251015Y-13816008D01*
X13251015Y-13816008D02*
X13241491Y-13825531D01*
X13241491Y-13825531D02*
X13231967Y-13844579D01*
X13231967Y-13844579D02*
X13231967Y-13892198D01*
X13231967Y-13892198D02*
X13241491Y-13911246D01*
X13241491Y-13911246D02*
X13251015Y-13920769D01*
X13251015Y-13920769D02*
X13270062Y-13930293D01*
X13270062Y-13930293D02*
X13308158Y-13930293D01*
X13308158Y-13930293D02*
X13327205Y-13920769D01*
X13327205Y-13920769D02*
X13336729Y-13911246D01*
X13336729Y-13911246D02*
X13346253Y-13892198D01*
X13470062Y-13806484D02*
X13489110Y-13806484D01*
X13489110Y-13806484D02*
X13508158Y-13816008D01*
X13508158Y-13816008D02*
X13517682Y-13825531D01*
X13517682Y-13825531D02*
X13527205Y-13844579D01*
X13527205Y-13844579D02*
X13536729Y-13882674D01*
X13536729Y-13882674D02*
X13536729Y-13930293D01*
X13536729Y-13930293D02*
X13527205Y-13968388D01*
X13527205Y-13968388D02*
X13517682Y-13987436D01*
X13517682Y-13987436D02*
X13508158Y-13996960D01*
X13508158Y-13996960D02*
X13489110Y-14006484D01*
X13489110Y-14006484D02*
X13470062Y-14006484D01*
X13470062Y-14006484D02*
X13451015Y-13996960D01*
X13451015Y-13996960D02*
X13441491Y-13987436D01*
X13441491Y-13987436D02*
X13431967Y-13968388D01*
X13431967Y-13968388D02*
X13422443Y-13930293D01*
X13422443Y-13930293D02*
X13422443Y-13882674D01*
X13422443Y-13882674D02*
X13431967Y-13844579D01*
X13431967Y-13844579D02*
X13441491Y-13825531D01*
X13441491Y-13825531D02*
X13451015Y-13816008D01*
X13451015Y-13816008D02*
X13470062Y-13806484D01*
X13660539Y-13806484D02*
X13679586Y-13806484D01*
X13679586Y-13806484D02*
X13698634Y-13816008D01*
X13698634Y-13816008D02*
X13708158Y-13825531D01*
X13708158Y-13825531D02*
X13717682Y-13844579D01*
X13717682Y-13844579D02*
X13727205Y-13882674D01*
X13727205Y-13882674D02*
X13727205Y-13930293D01*
X13727205Y-13930293D02*
X13717682Y-13968388D01*
X13717682Y-13968388D02*
X13708158Y-13987436D01*
X13708158Y-13987436D02*
X13698634Y-13996960D01*
X13698634Y-13996960D02*
X13679586Y-14006484D01*
X13679586Y-14006484D02*
X13660539Y-14006484D01*
X13660539Y-14006484D02*
X13641491Y-13996960D01*
X13641491Y-13996960D02*
X13631967Y-13987436D01*
X13631967Y-13987436D02*
X13622443Y-13968388D01*
X13622443Y-13968388D02*
X13612920Y-13930293D01*
X13612920Y-13930293D02*
X13612920Y-13882674D01*
X13612920Y-13882674D02*
X13622443Y-13844579D01*
X13622443Y-13844579D02*
X13631967Y-13825531D01*
X13631967Y-13825531D02*
X13641491Y-13816008D01*
X13641491Y-13816008D02*
X13660539Y-13806484D01*
X13812920Y-14006484D02*
X13812920Y-13873150D01*
X13812920Y-13892198D02*
X13822443Y-13882674D01*
X13822443Y-13882674D02*
X13841491Y-13873150D01*
X13841491Y-13873150D02*
X13870063Y-13873150D01*
X13870063Y-13873150D02*
X13889110Y-13882674D01*
X13889110Y-13882674D02*
X13898634Y-13901722D01*
X13898634Y-13901722D02*
X13898634Y-14006484D01*
X13898634Y-13901722D02*
X13908158Y-13882674D01*
X13908158Y-13882674D02*
X13927205Y-13873150D01*
X13927205Y-13873150D02*
X13955777Y-13873150D01*
X13955777Y-13873150D02*
X13974824Y-13882674D01*
X13974824Y-13882674D02*
X13984348Y-13901722D01*
X13984348Y-13901722D02*
X13984348Y-14006484D01*
X14079586Y-14006484D02*
X14079586Y-13873150D01*
X14079586Y-13892198D02*
X14089110Y-13882674D01*
X14089110Y-13882674D02*
X14108158Y-13873150D01*
X14108158Y-13873150D02*
X14136729Y-13873150D01*
X14136729Y-13873150D02*
X14155777Y-13882674D01*
X14155777Y-13882674D02*
X14165301Y-13901722D01*
X14165301Y-13901722D02*
X14165301Y-14006484D01*
X14165301Y-13901722D02*
X14174824Y-13882674D01*
X14174824Y-13882674D02*
X14193872Y-13873150D01*
X14193872Y-13873150D02*
X14222443Y-13873150D01*
X14222443Y-13873150D02*
X14241491Y-13882674D01*
X14241491Y-13882674D02*
X14251015Y-13901722D01*
X14251015Y-13901722D02*
X14251015Y-14006484D01*
X14641491Y-13796960D02*
X14470063Y-14054103D01*
X14898634Y-13806484D02*
X14917682Y-13806484D01*
X14917682Y-13806484D02*
X14936729Y-13816008D01*
X14936729Y-13816008D02*
X14946253Y-13825531D01*
X14946253Y-13825531D02*
X14955777Y-13844579D01*
X14955777Y-13844579D02*
X14965301Y-13882674D01*
X14965301Y-13882674D02*
X14965301Y-13930293D01*
X14965301Y-13930293D02*
X14955777Y-13968388D01*
X14955777Y-13968388D02*
X14946253Y-13987436D01*
X14946253Y-13987436D02*
X14936729Y-13996960D01*
X14936729Y-13996960D02*
X14917682Y-14006484D01*
X14917682Y-14006484D02*
X14898634Y-14006484D01*
X14898634Y-14006484D02*
X14879586Y-13996960D01*
X14879586Y-13996960D02*
X14870063Y-13987436D01*
X14870063Y-13987436D02*
X14860539Y-13968388D01*
X14860539Y-13968388D02*
X14851015Y-13930293D01*
X14851015Y-13930293D02*
X14851015Y-13882674D01*
X14851015Y-13882674D02*
X14860539Y-13844579D01*
X14860539Y-13844579D02*
X14870063Y-13825531D01*
X14870063Y-13825531D02*
X14879586Y-13816008D01*
X14879586Y-13816008D02*
X14898634Y-13806484D01*
X15051015Y-13987436D02*
X15060539Y-13996960D01*
X15060539Y-13996960D02*
X15051015Y-14006484D01*
X15051015Y-14006484D02*
X15041491Y-13996960D01*
X15041491Y-13996960D02*
X15051015Y-13987436D01*
X15051015Y-13987436D02*
X15051015Y-14006484D01*
X15184348Y-13806484D02*
X15203396Y-13806484D01*
X15203396Y-13806484D02*
X15222444Y-13816008D01*
X15222444Y-13816008D02*
X15231967Y-13825531D01*
X15231967Y-13825531D02*
X15241491Y-13844579D01*
X15241491Y-13844579D02*
X15251015Y-13882674D01*
X15251015Y-13882674D02*
X15251015Y-13930293D01*
X15251015Y-13930293D02*
X15241491Y-13968388D01*
X15241491Y-13968388D02*
X15231967Y-13987436D01*
X15231967Y-13987436D02*
X15222444Y-13996960D01*
X15222444Y-13996960D02*
X15203396Y-14006484D01*
X15203396Y-14006484D02*
X15184348Y-14006484D01*
X15184348Y-14006484D02*
X15165301Y-13996960D01*
X15165301Y-13996960D02*
X15155777Y-13987436D01*
X15155777Y-13987436D02*
X15146253Y-13968388D01*
X15146253Y-13968388D02*
X15136729Y-13930293D01*
X15136729Y-13930293D02*
X15136729Y-13882674D01*
X15136729Y-13882674D02*
X15146253Y-13844579D01*
X15146253Y-13844579D02*
X15155777Y-13825531D01*
X15155777Y-13825531D02*
X15165301Y-13816008D01*
X15165301Y-13816008D02*
X15184348Y-13806484D01*
X15317682Y-13806484D02*
X15441491Y-13806484D01*
X15441491Y-13806484D02*
X15374825Y-13882674D01*
X15374825Y-13882674D02*
X15403396Y-13882674D01*
X15403396Y-13882674D02*
X15422444Y-13892198D01*
X15422444Y-13892198D02*
X15431967Y-13901722D01*
X15431967Y-13901722D02*
X15441491Y-13920769D01*
X15441491Y-13920769D02*
X15441491Y-13968388D01*
X15441491Y-13968388D02*
X15431967Y-13987436D01*
X15431967Y-13987436D02*
X15422444Y-13996960D01*
X15422444Y-13996960D02*
X15403396Y-14006484D01*
X15403396Y-14006484D02*
X15346253Y-14006484D01*
X15346253Y-14006484D02*
X15327206Y-13996960D01*
X15327206Y-13996960D02*
X15317682Y-13987436D01*
X15622444Y-13806484D02*
X15527206Y-13806484D01*
X15527206Y-13806484D02*
X15517682Y-13901722D01*
X15517682Y-13901722D02*
X15527206Y-13892198D01*
X15527206Y-13892198D02*
X15546253Y-13882674D01*
X15546253Y-13882674D02*
X15593872Y-13882674D01*
X15593872Y-13882674D02*
X15612920Y-13892198D01*
X15612920Y-13892198D02*
X15622444Y-13901722D01*
X15622444Y-13901722D02*
X15631967Y-13920769D01*
X15631967Y-13920769D02*
X15631967Y-13968388D01*
X15631967Y-13968388D02*
X15622444Y-13987436D01*
X15622444Y-13987436D02*
X15612920Y-13996960D01*
X15612920Y-13996960D02*
X15593872Y-14006484D01*
X15593872Y-14006484D02*
X15546253Y-14006484D01*
X15546253Y-14006484D02*
X15527206Y-13996960D01*
X15527206Y-13996960D02*
X15517682Y-13987436D01*
X15803396Y-13873150D02*
X15803396Y-14006484D01*
X15755777Y-13796960D02*
X15708158Y-13939817D01*
X15708158Y-13939817D02*
X15831967Y-13939817D01*
X15898634Y-13806484D02*
X15898634Y-13844579D01*
X15974825Y-13806484D02*
X15974825Y-13844579D01*
X16270063Y-14082674D02*
X16260539Y-14073150D01*
X16260539Y-14073150D02*
X16241491Y-14044579D01*
X16241491Y-14044579D02*
X16231968Y-14025531D01*
X16231968Y-14025531D02*
X16222444Y-13996960D01*
X16222444Y-13996960D02*
X16212920Y-13949341D01*
X16212920Y-13949341D02*
X16212920Y-13911246D01*
X16212920Y-13911246D02*
X16222444Y-13863627D01*
X16222444Y-13863627D02*
X16231968Y-13835055D01*
X16231968Y-13835055D02*
X16241491Y-13816008D01*
X16241491Y-13816008D02*
X16260539Y-13787436D01*
X16260539Y-13787436D02*
X16270063Y-13777912D01*
X16451015Y-14006484D02*
X16336729Y-14006484D01*
X16393872Y-14006484D02*
X16393872Y-13806484D01*
X16393872Y-13806484D02*
X16374825Y-13835055D01*
X16374825Y-13835055D02*
X16355777Y-13854103D01*
X16355777Y-13854103D02*
X16336729Y-13863627D01*
X16527206Y-13825531D02*
X16536729Y-13816008D01*
X16536729Y-13816008D02*
X16555777Y-13806484D01*
X16555777Y-13806484D02*
X16603396Y-13806484D01*
X16603396Y-13806484D02*
X16622444Y-13816008D01*
X16622444Y-13816008D02*
X16631968Y-13825531D01*
X16631968Y-13825531D02*
X16641491Y-13844579D01*
X16641491Y-13844579D02*
X16641491Y-13863627D01*
X16641491Y-13863627D02*
X16631968Y-13892198D01*
X16631968Y-13892198D02*
X16517682Y-14006484D01*
X16517682Y-14006484D02*
X16641491Y-14006484D01*
X16879587Y-14006484D02*
X16879587Y-13806484D01*
X16965301Y-14006484D02*
X16965301Y-13901722D01*
X16965301Y-13901722D02*
X16955777Y-13882674D01*
X16955777Y-13882674D02*
X16936730Y-13873150D01*
X16936730Y-13873150D02*
X16908158Y-13873150D01*
X16908158Y-13873150D02*
X16889111Y-13882674D01*
X16889111Y-13882674D02*
X16879587Y-13892198D01*
X17089111Y-14006484D02*
X17070063Y-13996960D01*
X17070063Y-13996960D02*
X17060539Y-13987436D01*
X17060539Y-13987436D02*
X17051015Y-13968388D01*
X17051015Y-13968388D02*
X17051015Y-13911246D01*
X17051015Y-13911246D02*
X17060539Y-13892198D01*
X17060539Y-13892198D02*
X17070063Y-13882674D01*
X17070063Y-13882674D02*
X17089111Y-13873150D01*
X17089111Y-13873150D02*
X17117682Y-13873150D01*
X17117682Y-13873150D02*
X17136730Y-13882674D01*
X17136730Y-13882674D02*
X17146253Y-13892198D01*
X17146253Y-13892198D02*
X17155777Y-13911246D01*
X17155777Y-13911246D02*
X17155777Y-13968388D01*
X17155777Y-13968388D02*
X17146253Y-13987436D01*
X17146253Y-13987436D02*
X17136730Y-13996960D01*
X17136730Y-13996960D02*
X17117682Y-14006484D01*
X17117682Y-14006484D02*
X17089111Y-14006484D01*
X17270063Y-14006484D02*
X17251015Y-13996960D01*
X17251015Y-13996960D02*
X17241492Y-13977912D01*
X17241492Y-13977912D02*
X17241492Y-13806484D01*
X17422444Y-13996960D02*
X17403396Y-14006484D01*
X17403396Y-14006484D02*
X17365301Y-14006484D01*
X17365301Y-14006484D02*
X17346253Y-13996960D01*
X17346253Y-13996960D02*
X17336730Y-13977912D01*
X17336730Y-13977912D02*
X17336730Y-13901722D01*
X17336730Y-13901722D02*
X17346253Y-13882674D01*
X17346253Y-13882674D02*
X17365301Y-13873150D01*
X17365301Y-13873150D02*
X17403396Y-13873150D01*
X17403396Y-13873150D02*
X17422444Y-13882674D01*
X17422444Y-13882674D02*
X17431968Y-13901722D01*
X17431968Y-13901722D02*
X17431968Y-13920769D01*
X17431968Y-13920769D02*
X17336730Y-13939817D01*
X17508158Y-13996960D02*
X17527206Y-14006484D01*
X17527206Y-14006484D02*
X17565301Y-14006484D01*
X17565301Y-14006484D02*
X17584349Y-13996960D01*
X17584349Y-13996960D02*
X17593873Y-13977912D01*
X17593873Y-13977912D02*
X17593873Y-13968388D01*
X17593873Y-13968388D02*
X17584349Y-13949341D01*
X17584349Y-13949341D02*
X17565301Y-13939817D01*
X17565301Y-13939817D02*
X17536730Y-13939817D01*
X17536730Y-13939817D02*
X17517682Y-13930293D01*
X17517682Y-13930293D02*
X17508158Y-13911246D01*
X17508158Y-13911246D02*
X17508158Y-13901722D01*
X17508158Y-13901722D02*
X17517682Y-13882674D01*
X17517682Y-13882674D02*
X17536730Y-13873150D01*
X17536730Y-13873150D02*
X17565301Y-13873150D01*
X17565301Y-13873150D02*
X17584349Y-13882674D01*
X17660539Y-14082674D02*
X17670063Y-14073150D01*
X17670063Y-14073150D02*
X17689111Y-14044579D01*
X17689111Y-14044579D02*
X17698634Y-14025531D01*
X17698634Y-14025531D02*
X17708158Y-13996960D01*
X17708158Y-13996960D02*
X17717682Y-13949341D01*
X17717682Y-13949341D02*
X17717682Y-13911246D01*
X17717682Y-13911246D02*
X17708158Y-13863627D01*
X17708158Y-13863627D02*
X17698634Y-13835055D01*
X17698634Y-13835055D02*
X17689111Y-13816008D01*
X17689111Y-13816008D02*
X17670063Y-13787436D01*
X17670063Y-13787436D02*
X17660539Y-13777912D01*
D13*
X12695000Y-14179000D02*
G75*
G02*
X12593000Y-14179000I-51000J0D01*
G01*
X12593000Y-14179000D02*
G75*
G02*
X12695000Y-14179000I51000J0D01*
G01*
D12*
X13060539Y-14270484D02*
X12946253Y-14270484D01*
X13003396Y-14270484D02*
X13003396Y-14070484D01*
X13003396Y-14070484D02*
X12984348Y-14099055D01*
X12984348Y-14099055D02*
X12965301Y-14118103D01*
X12965301Y-14118103D02*
X12946253Y-14127627D01*
X13146253Y-14251436D02*
X13155777Y-14260960D01*
X13155777Y-14260960D02*
X13146253Y-14270484D01*
X13146253Y-14270484D02*
X13136729Y-14260960D01*
X13136729Y-14260960D02*
X13146253Y-14251436D01*
X13146253Y-14251436D02*
X13146253Y-14270484D01*
X13279586Y-14070484D02*
X13298634Y-14070484D01*
X13298634Y-14070484D02*
X13317682Y-14080008D01*
X13317682Y-14080008D02*
X13327205Y-14089531D01*
X13327205Y-14089531D02*
X13336729Y-14108579D01*
X13336729Y-14108579D02*
X13346253Y-14146674D01*
X13346253Y-14146674D02*
X13346253Y-14194293D01*
X13346253Y-14194293D02*
X13336729Y-14232388D01*
X13336729Y-14232388D02*
X13327205Y-14251436D01*
X13327205Y-14251436D02*
X13317682Y-14260960D01*
X13317682Y-14260960D02*
X13298634Y-14270484D01*
X13298634Y-14270484D02*
X13279586Y-14270484D01*
X13279586Y-14270484D02*
X13260539Y-14260960D01*
X13260539Y-14260960D02*
X13251015Y-14251436D01*
X13251015Y-14251436D02*
X13241491Y-14232388D01*
X13241491Y-14232388D02*
X13231967Y-14194293D01*
X13231967Y-14194293D02*
X13231967Y-14146674D01*
X13231967Y-14146674D02*
X13241491Y-14108579D01*
X13241491Y-14108579D02*
X13251015Y-14089531D01*
X13251015Y-14089531D02*
X13260539Y-14080008D01*
X13260539Y-14080008D02*
X13279586Y-14070484D01*
X13422443Y-14089531D02*
X13431967Y-14080008D01*
X13431967Y-14080008D02*
X13451015Y-14070484D01*
X13451015Y-14070484D02*
X13498634Y-14070484D01*
X13498634Y-14070484D02*
X13517682Y-14080008D01*
X13517682Y-14080008D02*
X13527205Y-14089531D01*
X13527205Y-14089531D02*
X13536729Y-14108579D01*
X13536729Y-14108579D02*
X13536729Y-14127627D01*
X13536729Y-14127627D02*
X13527205Y-14156198D01*
X13527205Y-14156198D02*
X13412920Y-14270484D01*
X13412920Y-14270484D02*
X13536729Y-14270484D01*
X13660539Y-14070484D02*
X13679586Y-14070484D01*
X13679586Y-14070484D02*
X13698634Y-14080008D01*
X13698634Y-14080008D02*
X13708158Y-14089531D01*
X13708158Y-14089531D02*
X13717682Y-14108579D01*
X13717682Y-14108579D02*
X13727205Y-14146674D01*
X13727205Y-14146674D02*
X13727205Y-14194293D01*
X13727205Y-14194293D02*
X13717682Y-14232388D01*
X13717682Y-14232388D02*
X13708158Y-14251436D01*
X13708158Y-14251436D02*
X13698634Y-14260960D01*
X13698634Y-14260960D02*
X13679586Y-14270484D01*
X13679586Y-14270484D02*
X13660539Y-14270484D01*
X13660539Y-14270484D02*
X13641491Y-14260960D01*
X13641491Y-14260960D02*
X13631967Y-14251436D01*
X13631967Y-14251436D02*
X13622443Y-14232388D01*
X13622443Y-14232388D02*
X13612920Y-14194293D01*
X13612920Y-14194293D02*
X13612920Y-14146674D01*
X13612920Y-14146674D02*
X13622443Y-14108579D01*
X13622443Y-14108579D02*
X13631967Y-14089531D01*
X13631967Y-14089531D02*
X13641491Y-14080008D01*
X13641491Y-14080008D02*
X13660539Y-14070484D01*
X13812920Y-14270484D02*
X13812920Y-14137150D01*
X13812920Y-14156198D02*
X13822443Y-14146674D01*
X13822443Y-14146674D02*
X13841491Y-14137150D01*
X13841491Y-14137150D02*
X13870063Y-14137150D01*
X13870063Y-14137150D02*
X13889110Y-14146674D01*
X13889110Y-14146674D02*
X13898634Y-14165722D01*
X13898634Y-14165722D02*
X13898634Y-14270484D01*
X13898634Y-14165722D02*
X13908158Y-14146674D01*
X13908158Y-14146674D02*
X13927205Y-14137150D01*
X13927205Y-14137150D02*
X13955777Y-14137150D01*
X13955777Y-14137150D02*
X13974824Y-14146674D01*
X13974824Y-14146674D02*
X13984348Y-14165722D01*
X13984348Y-14165722D02*
X13984348Y-14270484D01*
X14079586Y-14270484D02*
X14079586Y-14137150D01*
X14079586Y-14156198D02*
X14089110Y-14146674D01*
X14089110Y-14146674D02*
X14108158Y-14137150D01*
X14108158Y-14137150D02*
X14136729Y-14137150D01*
X14136729Y-14137150D02*
X14155777Y-14146674D01*
X14155777Y-14146674D02*
X14165301Y-14165722D01*
X14165301Y-14165722D02*
X14165301Y-14270484D01*
X14165301Y-14165722D02*
X14174824Y-14146674D01*
X14174824Y-14146674D02*
X14193872Y-14137150D01*
X14193872Y-14137150D02*
X14222443Y-14137150D01*
X14222443Y-14137150D02*
X14241491Y-14146674D01*
X14241491Y-14146674D02*
X14251015Y-14165722D01*
X14251015Y-14165722D02*
X14251015Y-14270484D01*
X14641491Y-14060960D02*
X14470063Y-14318103D01*
X14898634Y-14070484D02*
X14917682Y-14070484D01*
X14917682Y-14070484D02*
X14936729Y-14080008D01*
X14936729Y-14080008D02*
X14946253Y-14089531D01*
X14946253Y-14089531D02*
X14955777Y-14108579D01*
X14955777Y-14108579D02*
X14965301Y-14146674D01*
X14965301Y-14146674D02*
X14965301Y-14194293D01*
X14965301Y-14194293D02*
X14955777Y-14232388D01*
X14955777Y-14232388D02*
X14946253Y-14251436D01*
X14946253Y-14251436D02*
X14936729Y-14260960D01*
X14936729Y-14260960D02*
X14917682Y-14270484D01*
X14917682Y-14270484D02*
X14898634Y-14270484D01*
X14898634Y-14270484D02*
X14879586Y-14260960D01*
X14879586Y-14260960D02*
X14870063Y-14251436D01*
X14870063Y-14251436D02*
X14860539Y-14232388D01*
X14860539Y-14232388D02*
X14851015Y-14194293D01*
X14851015Y-14194293D02*
X14851015Y-14146674D01*
X14851015Y-14146674D02*
X14860539Y-14108579D01*
X14860539Y-14108579D02*
X14870063Y-14089531D01*
X14870063Y-14089531D02*
X14879586Y-14080008D01*
X14879586Y-14080008D02*
X14898634Y-14070484D01*
X15051015Y-14251436D02*
X15060539Y-14260960D01*
X15060539Y-14260960D02*
X15051015Y-14270484D01*
X15051015Y-14270484D02*
X15041491Y-14260960D01*
X15041491Y-14260960D02*
X15051015Y-14251436D01*
X15051015Y-14251436D02*
X15051015Y-14270484D01*
X15184348Y-14070484D02*
X15203396Y-14070484D01*
X15203396Y-14070484D02*
X15222444Y-14080008D01*
X15222444Y-14080008D02*
X15231967Y-14089531D01*
X15231967Y-14089531D02*
X15241491Y-14108579D01*
X15241491Y-14108579D02*
X15251015Y-14146674D01*
X15251015Y-14146674D02*
X15251015Y-14194293D01*
X15251015Y-14194293D02*
X15241491Y-14232388D01*
X15241491Y-14232388D02*
X15231967Y-14251436D01*
X15231967Y-14251436D02*
X15222444Y-14260960D01*
X15222444Y-14260960D02*
X15203396Y-14270484D01*
X15203396Y-14270484D02*
X15184348Y-14270484D01*
X15184348Y-14270484D02*
X15165301Y-14260960D01*
X15165301Y-14260960D02*
X15155777Y-14251436D01*
X15155777Y-14251436D02*
X15146253Y-14232388D01*
X15146253Y-14232388D02*
X15136729Y-14194293D01*
X15136729Y-14194293D02*
X15136729Y-14146674D01*
X15136729Y-14146674D02*
X15146253Y-14108579D01*
X15146253Y-14108579D02*
X15155777Y-14089531D01*
X15155777Y-14089531D02*
X15165301Y-14080008D01*
X15165301Y-14080008D02*
X15184348Y-14070484D01*
X15422444Y-14137150D02*
X15422444Y-14270484D01*
X15374825Y-14060960D02*
X15327206Y-14203817D01*
X15327206Y-14203817D02*
X15451015Y-14203817D01*
X15565301Y-14070484D02*
X15584348Y-14070484D01*
X15584348Y-14070484D02*
X15603396Y-14080008D01*
X15603396Y-14080008D02*
X15612920Y-14089531D01*
X15612920Y-14089531D02*
X15622444Y-14108579D01*
X15622444Y-14108579D02*
X15631967Y-14146674D01*
X15631967Y-14146674D02*
X15631967Y-14194293D01*
X15631967Y-14194293D02*
X15622444Y-14232388D01*
X15622444Y-14232388D02*
X15612920Y-14251436D01*
X15612920Y-14251436D02*
X15603396Y-14260960D01*
X15603396Y-14260960D02*
X15584348Y-14270484D01*
X15584348Y-14270484D02*
X15565301Y-14270484D01*
X15565301Y-14270484D02*
X15546253Y-14260960D01*
X15546253Y-14260960D02*
X15536729Y-14251436D01*
X15536729Y-14251436D02*
X15527206Y-14232388D01*
X15527206Y-14232388D02*
X15517682Y-14194293D01*
X15517682Y-14194293D02*
X15517682Y-14146674D01*
X15517682Y-14146674D02*
X15527206Y-14108579D01*
X15527206Y-14108579D02*
X15536729Y-14089531D01*
X15536729Y-14089531D02*
X15546253Y-14080008D01*
X15546253Y-14080008D02*
X15565301Y-14070484D01*
X15708158Y-14089531D02*
X15717682Y-14080008D01*
X15717682Y-14080008D02*
X15736729Y-14070484D01*
X15736729Y-14070484D02*
X15784348Y-14070484D01*
X15784348Y-14070484D02*
X15803396Y-14080008D01*
X15803396Y-14080008D02*
X15812920Y-14089531D01*
X15812920Y-14089531D02*
X15822444Y-14108579D01*
X15822444Y-14108579D02*
X15822444Y-14127627D01*
X15822444Y-14127627D02*
X15812920Y-14156198D01*
X15812920Y-14156198D02*
X15698634Y-14270484D01*
X15698634Y-14270484D02*
X15822444Y-14270484D01*
X15898634Y-14070484D02*
X15898634Y-14108579D01*
X15974825Y-14070484D02*
X15974825Y-14108579D01*
X16270063Y-14346674D02*
X16260539Y-14337150D01*
X16260539Y-14337150D02*
X16241491Y-14308579D01*
X16241491Y-14308579D02*
X16231968Y-14289531D01*
X16231968Y-14289531D02*
X16222444Y-14260960D01*
X16222444Y-14260960D02*
X16212920Y-14213341D01*
X16212920Y-14213341D02*
X16212920Y-14175246D01*
X16212920Y-14175246D02*
X16222444Y-14127627D01*
X16222444Y-14127627D02*
X16231968Y-14099055D01*
X16231968Y-14099055D02*
X16241491Y-14080008D01*
X16241491Y-14080008D02*
X16260539Y-14051436D01*
X16260539Y-14051436D02*
X16270063Y-14041912D01*
X16431968Y-14137150D02*
X16431968Y-14270484D01*
X16384348Y-14060960D02*
X16336729Y-14203817D01*
X16336729Y-14203817D02*
X16460539Y-14203817D01*
X16689110Y-14270484D02*
X16689110Y-14070484D01*
X16774825Y-14270484D02*
X16774825Y-14165722D01*
X16774825Y-14165722D02*
X16765301Y-14146674D01*
X16765301Y-14146674D02*
X16746253Y-14137150D01*
X16746253Y-14137150D02*
X16717682Y-14137150D01*
X16717682Y-14137150D02*
X16698634Y-14146674D01*
X16698634Y-14146674D02*
X16689110Y-14156198D01*
X16898634Y-14270484D02*
X16879587Y-14260960D01*
X16879587Y-14260960D02*
X16870063Y-14251436D01*
X16870063Y-14251436D02*
X16860539Y-14232388D01*
X16860539Y-14232388D02*
X16860539Y-14175246D01*
X16860539Y-14175246D02*
X16870063Y-14156198D01*
X16870063Y-14156198D02*
X16879587Y-14146674D01*
X16879587Y-14146674D02*
X16898634Y-14137150D01*
X16898634Y-14137150D02*
X16927206Y-14137150D01*
X16927206Y-14137150D02*
X16946253Y-14146674D01*
X16946253Y-14146674D02*
X16955777Y-14156198D01*
X16955777Y-14156198D02*
X16965301Y-14175246D01*
X16965301Y-14175246D02*
X16965301Y-14232388D01*
X16965301Y-14232388D02*
X16955777Y-14251436D01*
X16955777Y-14251436D02*
X16946253Y-14260960D01*
X16946253Y-14260960D02*
X16927206Y-14270484D01*
X16927206Y-14270484D02*
X16898634Y-14270484D01*
X17079587Y-14270484D02*
X17060539Y-14260960D01*
X17060539Y-14260960D02*
X17051015Y-14241912D01*
X17051015Y-14241912D02*
X17051015Y-14070484D01*
X17231968Y-14260960D02*
X17212920Y-14270484D01*
X17212920Y-14270484D02*
X17174825Y-14270484D01*
X17174825Y-14270484D02*
X17155777Y-14260960D01*
X17155777Y-14260960D02*
X17146253Y-14241912D01*
X17146253Y-14241912D02*
X17146253Y-14165722D01*
X17146253Y-14165722D02*
X17155777Y-14146674D01*
X17155777Y-14146674D02*
X17174825Y-14137150D01*
X17174825Y-14137150D02*
X17212920Y-14137150D01*
X17212920Y-14137150D02*
X17231968Y-14146674D01*
X17231968Y-14146674D02*
X17241492Y-14165722D01*
X17241492Y-14165722D02*
X17241492Y-14184769D01*
X17241492Y-14184769D02*
X17146253Y-14203817D01*
X17317682Y-14260960D02*
X17336730Y-14270484D01*
X17336730Y-14270484D02*
X17374825Y-14270484D01*
X17374825Y-14270484D02*
X17393873Y-14260960D01*
X17393873Y-14260960D02*
X17403396Y-14241912D01*
X17403396Y-14241912D02*
X17403396Y-14232388D01*
X17403396Y-14232388D02*
X17393873Y-14213341D01*
X17393873Y-14213341D02*
X17374825Y-14203817D01*
X17374825Y-14203817D02*
X17346253Y-14203817D01*
X17346253Y-14203817D02*
X17327206Y-14194293D01*
X17327206Y-14194293D02*
X17317682Y-14175246D01*
X17317682Y-14175246D02*
X17317682Y-14165722D01*
X17317682Y-14165722D02*
X17327206Y-14146674D01*
X17327206Y-14146674D02*
X17346253Y-14137150D01*
X17346253Y-14137150D02*
X17374825Y-14137150D01*
X17374825Y-14137150D02*
X17393873Y-14146674D01*
X17470063Y-14346674D02*
X17479587Y-14337150D01*
X17479587Y-14337150D02*
X17498634Y-14308579D01*
X17498634Y-14308579D02*
X17508158Y-14289531D01*
X17508158Y-14289531D02*
X17517682Y-14260960D01*
X17517682Y-14260960D02*
X17527206Y-14213341D01*
X17527206Y-14213341D02*
X17527206Y-14175246D01*
X17527206Y-14175246D02*
X17517682Y-14127627D01*
X17517682Y-14127627D02*
X17508158Y-14099055D01*
X17508158Y-14099055D02*
X17498634Y-14080008D01*
X17498634Y-14080008D02*
X17479587Y-14051436D01*
X17479587Y-14051436D02*
X17470063Y-14041912D01*
D14*
X12620000Y-14368000D02*
X12620000Y-14518000D01*
X12545000Y-14443000D02*
X12695000Y-14443000D01*
D12*
X13060539Y-14534484D02*
X12946253Y-14534484D01*
X13003396Y-14534484D02*
X13003396Y-14334484D01*
X13003396Y-14334484D02*
X12984348Y-14363055D01*
X12984348Y-14363055D02*
X12965301Y-14382103D01*
X12965301Y-14382103D02*
X12946253Y-14391627D01*
X13146253Y-14515436D02*
X13155777Y-14524960D01*
X13155777Y-14524960D02*
X13146253Y-14534484D01*
X13146253Y-14534484D02*
X13136729Y-14524960D01*
X13136729Y-14524960D02*
X13146253Y-14515436D01*
X13146253Y-14515436D02*
X13146253Y-14534484D01*
X13336729Y-14334484D02*
X13241491Y-14334484D01*
X13241491Y-14334484D02*
X13231967Y-14429722D01*
X13231967Y-14429722D02*
X13241491Y-14420198D01*
X13241491Y-14420198D02*
X13260539Y-14410674D01*
X13260539Y-14410674D02*
X13308158Y-14410674D01*
X13308158Y-14410674D02*
X13327205Y-14420198D01*
X13327205Y-14420198D02*
X13336729Y-14429722D01*
X13336729Y-14429722D02*
X13346253Y-14448769D01*
X13346253Y-14448769D02*
X13346253Y-14496388D01*
X13346253Y-14496388D02*
X13336729Y-14515436D01*
X13336729Y-14515436D02*
X13327205Y-14524960D01*
X13327205Y-14524960D02*
X13308158Y-14534484D01*
X13308158Y-14534484D02*
X13260539Y-14534484D01*
X13260539Y-14534484D02*
X13241491Y-14524960D01*
X13241491Y-14524960D02*
X13231967Y-14515436D01*
X13470062Y-14334484D02*
X13489110Y-14334484D01*
X13489110Y-14334484D02*
X13508158Y-14344008D01*
X13508158Y-14344008D02*
X13517682Y-14353531D01*
X13517682Y-14353531D02*
X13527205Y-14372579D01*
X13527205Y-14372579D02*
X13536729Y-14410674D01*
X13536729Y-14410674D02*
X13536729Y-14458293D01*
X13536729Y-14458293D02*
X13527205Y-14496388D01*
X13527205Y-14496388D02*
X13517682Y-14515436D01*
X13517682Y-14515436D02*
X13508158Y-14524960D01*
X13508158Y-14524960D02*
X13489110Y-14534484D01*
X13489110Y-14534484D02*
X13470062Y-14534484D01*
X13470062Y-14534484D02*
X13451015Y-14524960D01*
X13451015Y-14524960D02*
X13441491Y-14515436D01*
X13441491Y-14515436D02*
X13431967Y-14496388D01*
X13431967Y-14496388D02*
X13422443Y-14458293D01*
X13422443Y-14458293D02*
X13422443Y-14410674D01*
X13422443Y-14410674D02*
X13431967Y-14372579D01*
X13431967Y-14372579D02*
X13441491Y-14353531D01*
X13441491Y-14353531D02*
X13451015Y-14344008D01*
X13451015Y-14344008D02*
X13470062Y-14334484D01*
X13660539Y-14334484D02*
X13679586Y-14334484D01*
X13679586Y-14334484D02*
X13698634Y-14344008D01*
X13698634Y-14344008D02*
X13708158Y-14353531D01*
X13708158Y-14353531D02*
X13717682Y-14372579D01*
X13717682Y-14372579D02*
X13727205Y-14410674D01*
X13727205Y-14410674D02*
X13727205Y-14458293D01*
X13727205Y-14458293D02*
X13717682Y-14496388D01*
X13717682Y-14496388D02*
X13708158Y-14515436D01*
X13708158Y-14515436D02*
X13698634Y-14524960D01*
X13698634Y-14524960D02*
X13679586Y-14534484D01*
X13679586Y-14534484D02*
X13660539Y-14534484D01*
X13660539Y-14534484D02*
X13641491Y-14524960D01*
X13641491Y-14524960D02*
X13631967Y-14515436D01*
X13631967Y-14515436D02*
X13622443Y-14496388D01*
X13622443Y-14496388D02*
X13612920Y-14458293D01*
X13612920Y-14458293D02*
X13612920Y-14410674D01*
X13612920Y-14410674D02*
X13622443Y-14372579D01*
X13622443Y-14372579D02*
X13631967Y-14353531D01*
X13631967Y-14353531D02*
X13641491Y-14344008D01*
X13641491Y-14344008D02*
X13660539Y-14334484D01*
X13812920Y-14534484D02*
X13812920Y-14401150D01*
X13812920Y-14420198D02*
X13822443Y-14410674D01*
X13822443Y-14410674D02*
X13841491Y-14401150D01*
X13841491Y-14401150D02*
X13870063Y-14401150D01*
X13870063Y-14401150D02*
X13889110Y-14410674D01*
X13889110Y-14410674D02*
X13898634Y-14429722D01*
X13898634Y-14429722D02*
X13898634Y-14534484D01*
X13898634Y-14429722D02*
X13908158Y-14410674D01*
X13908158Y-14410674D02*
X13927205Y-14401150D01*
X13927205Y-14401150D02*
X13955777Y-14401150D01*
X13955777Y-14401150D02*
X13974824Y-14410674D01*
X13974824Y-14410674D02*
X13984348Y-14429722D01*
X13984348Y-14429722D02*
X13984348Y-14534484D01*
X14079586Y-14534484D02*
X14079586Y-14401150D01*
X14079586Y-14420198D02*
X14089110Y-14410674D01*
X14089110Y-14410674D02*
X14108158Y-14401150D01*
X14108158Y-14401150D02*
X14136729Y-14401150D01*
X14136729Y-14401150D02*
X14155777Y-14410674D01*
X14155777Y-14410674D02*
X14165301Y-14429722D01*
X14165301Y-14429722D02*
X14165301Y-14534484D01*
X14165301Y-14429722D02*
X14174824Y-14410674D01*
X14174824Y-14410674D02*
X14193872Y-14401150D01*
X14193872Y-14401150D02*
X14222443Y-14401150D01*
X14222443Y-14401150D02*
X14241491Y-14410674D01*
X14241491Y-14410674D02*
X14251015Y-14429722D01*
X14251015Y-14429722D02*
X14251015Y-14534484D01*
X14641491Y-14324960D02*
X14470063Y-14582103D01*
X14898634Y-14334484D02*
X14917682Y-14334484D01*
X14917682Y-14334484D02*
X14936729Y-14344008D01*
X14936729Y-14344008D02*
X14946253Y-14353531D01*
X14946253Y-14353531D02*
X14955777Y-14372579D01*
X14955777Y-14372579D02*
X14965301Y-14410674D01*
X14965301Y-14410674D02*
X14965301Y-14458293D01*
X14965301Y-14458293D02*
X14955777Y-14496388D01*
X14955777Y-14496388D02*
X14946253Y-14515436D01*
X14946253Y-14515436D02*
X14936729Y-14524960D01*
X14936729Y-14524960D02*
X14917682Y-14534484D01*
X14917682Y-14534484D02*
X14898634Y-14534484D01*
X14898634Y-14534484D02*
X14879586Y-14524960D01*
X14879586Y-14524960D02*
X14870063Y-14515436D01*
X14870063Y-14515436D02*
X14860539Y-14496388D01*
X14860539Y-14496388D02*
X14851015Y-14458293D01*
X14851015Y-14458293D02*
X14851015Y-14410674D01*
X14851015Y-14410674D02*
X14860539Y-14372579D01*
X14860539Y-14372579D02*
X14870063Y-14353531D01*
X14870063Y-14353531D02*
X14879586Y-14344008D01*
X14879586Y-14344008D02*
X14898634Y-14334484D01*
X15051015Y-14515436D02*
X15060539Y-14524960D01*
X15060539Y-14524960D02*
X15051015Y-14534484D01*
X15051015Y-14534484D02*
X15041491Y-14524960D01*
X15041491Y-14524960D02*
X15051015Y-14515436D01*
X15051015Y-14515436D02*
X15051015Y-14534484D01*
X15184348Y-14334484D02*
X15203396Y-14334484D01*
X15203396Y-14334484D02*
X15222444Y-14344008D01*
X15222444Y-14344008D02*
X15231967Y-14353531D01*
X15231967Y-14353531D02*
X15241491Y-14372579D01*
X15241491Y-14372579D02*
X15251015Y-14410674D01*
X15251015Y-14410674D02*
X15251015Y-14458293D01*
X15251015Y-14458293D02*
X15241491Y-14496388D01*
X15241491Y-14496388D02*
X15231967Y-14515436D01*
X15231967Y-14515436D02*
X15222444Y-14524960D01*
X15222444Y-14524960D02*
X15203396Y-14534484D01*
X15203396Y-14534484D02*
X15184348Y-14534484D01*
X15184348Y-14534484D02*
X15165301Y-14524960D01*
X15165301Y-14524960D02*
X15155777Y-14515436D01*
X15155777Y-14515436D02*
X15146253Y-14496388D01*
X15146253Y-14496388D02*
X15136729Y-14458293D01*
X15136729Y-14458293D02*
X15136729Y-14410674D01*
X15136729Y-14410674D02*
X15146253Y-14372579D01*
X15146253Y-14372579D02*
X15155777Y-14353531D01*
X15155777Y-14353531D02*
X15165301Y-14344008D01*
X15165301Y-14344008D02*
X15184348Y-14334484D01*
X15431967Y-14334484D02*
X15336729Y-14334484D01*
X15336729Y-14334484D02*
X15327206Y-14429722D01*
X15327206Y-14429722D02*
X15336729Y-14420198D01*
X15336729Y-14420198D02*
X15355777Y-14410674D01*
X15355777Y-14410674D02*
X15403396Y-14410674D01*
X15403396Y-14410674D02*
X15422444Y-14420198D01*
X15422444Y-14420198D02*
X15431967Y-14429722D01*
X15431967Y-14429722D02*
X15441491Y-14448769D01*
X15441491Y-14448769D02*
X15441491Y-14496388D01*
X15441491Y-14496388D02*
X15431967Y-14515436D01*
X15431967Y-14515436D02*
X15422444Y-14524960D01*
X15422444Y-14524960D02*
X15403396Y-14534484D01*
X15403396Y-14534484D02*
X15355777Y-14534484D01*
X15355777Y-14534484D02*
X15336729Y-14524960D01*
X15336729Y-14524960D02*
X15327206Y-14515436D01*
X15536729Y-14534484D02*
X15574825Y-14534484D01*
X15574825Y-14534484D02*
X15593872Y-14524960D01*
X15593872Y-14524960D02*
X15603396Y-14515436D01*
X15603396Y-14515436D02*
X15622444Y-14486865D01*
X15622444Y-14486865D02*
X15631967Y-14448769D01*
X15631967Y-14448769D02*
X15631967Y-14372579D01*
X15631967Y-14372579D02*
X15622444Y-14353531D01*
X15622444Y-14353531D02*
X15612920Y-14344008D01*
X15612920Y-14344008D02*
X15593872Y-14334484D01*
X15593872Y-14334484D02*
X15555777Y-14334484D01*
X15555777Y-14334484D02*
X15536729Y-14344008D01*
X15536729Y-14344008D02*
X15527206Y-14353531D01*
X15527206Y-14353531D02*
X15517682Y-14372579D01*
X15517682Y-14372579D02*
X15517682Y-14420198D01*
X15517682Y-14420198D02*
X15527206Y-14439246D01*
X15527206Y-14439246D02*
X15536729Y-14448769D01*
X15536729Y-14448769D02*
X15555777Y-14458293D01*
X15555777Y-14458293D02*
X15593872Y-14458293D01*
X15593872Y-14458293D02*
X15612920Y-14448769D01*
X15612920Y-14448769D02*
X15622444Y-14439246D01*
X15622444Y-14439246D02*
X15631967Y-14420198D01*
X15822444Y-14534484D02*
X15708158Y-14534484D01*
X15765301Y-14534484D02*
X15765301Y-14334484D01*
X15765301Y-14334484D02*
X15746253Y-14363055D01*
X15746253Y-14363055D02*
X15727206Y-14382103D01*
X15727206Y-14382103D02*
X15708158Y-14391627D01*
X15898634Y-14334484D02*
X15898634Y-14372579D01*
X15974825Y-14334484D02*
X15974825Y-14372579D01*
X16270063Y-14610674D02*
X16260539Y-14601150D01*
X16260539Y-14601150D02*
X16241491Y-14572579D01*
X16241491Y-14572579D02*
X16231968Y-14553531D01*
X16231968Y-14553531D02*
X16222444Y-14524960D01*
X16222444Y-14524960D02*
X16212920Y-14477341D01*
X16212920Y-14477341D02*
X16212920Y-14439246D01*
X16212920Y-14439246D02*
X16222444Y-14391627D01*
X16222444Y-14391627D02*
X16231968Y-14363055D01*
X16231968Y-14363055D02*
X16241491Y-14344008D01*
X16241491Y-14344008D02*
X16260539Y-14315436D01*
X16260539Y-14315436D02*
X16270063Y-14305912D01*
X16451015Y-14534484D02*
X16336729Y-14534484D01*
X16393872Y-14534484D02*
X16393872Y-14334484D01*
X16393872Y-14334484D02*
X16374825Y-14363055D01*
X16374825Y-14363055D02*
X16355777Y-14382103D01*
X16355777Y-14382103D02*
X16336729Y-14391627D01*
X16622444Y-14334484D02*
X16584348Y-14334484D01*
X16584348Y-14334484D02*
X16565301Y-14344008D01*
X16565301Y-14344008D02*
X16555777Y-14353531D01*
X16555777Y-14353531D02*
X16536729Y-14382103D01*
X16536729Y-14382103D02*
X16527206Y-14420198D01*
X16527206Y-14420198D02*
X16527206Y-14496388D01*
X16527206Y-14496388D02*
X16536729Y-14515436D01*
X16536729Y-14515436D02*
X16546253Y-14524960D01*
X16546253Y-14524960D02*
X16565301Y-14534484D01*
X16565301Y-14534484D02*
X16603396Y-14534484D01*
X16603396Y-14534484D02*
X16622444Y-14524960D01*
X16622444Y-14524960D02*
X16631968Y-14515436D01*
X16631968Y-14515436D02*
X16641491Y-14496388D01*
X16641491Y-14496388D02*
X16641491Y-14448769D01*
X16641491Y-14448769D02*
X16631968Y-14429722D01*
X16631968Y-14429722D02*
X16622444Y-14420198D01*
X16622444Y-14420198D02*
X16603396Y-14410674D01*
X16603396Y-14410674D02*
X16565301Y-14410674D01*
X16565301Y-14410674D02*
X16546253Y-14420198D01*
X16546253Y-14420198D02*
X16536729Y-14429722D01*
X16536729Y-14429722D02*
X16527206Y-14448769D01*
X16879587Y-14534484D02*
X16879587Y-14334484D01*
X16965301Y-14534484D02*
X16965301Y-14429722D01*
X16965301Y-14429722D02*
X16955777Y-14410674D01*
X16955777Y-14410674D02*
X16936730Y-14401150D01*
X16936730Y-14401150D02*
X16908158Y-14401150D01*
X16908158Y-14401150D02*
X16889111Y-14410674D01*
X16889111Y-14410674D02*
X16879587Y-14420198D01*
X17089111Y-14534484D02*
X17070063Y-14524960D01*
X17070063Y-14524960D02*
X17060539Y-14515436D01*
X17060539Y-14515436D02*
X17051015Y-14496388D01*
X17051015Y-14496388D02*
X17051015Y-14439246D01*
X17051015Y-14439246D02*
X17060539Y-14420198D01*
X17060539Y-14420198D02*
X17070063Y-14410674D01*
X17070063Y-14410674D02*
X17089111Y-14401150D01*
X17089111Y-14401150D02*
X17117682Y-14401150D01*
X17117682Y-14401150D02*
X17136730Y-14410674D01*
X17136730Y-14410674D02*
X17146253Y-14420198D01*
X17146253Y-14420198D02*
X17155777Y-14439246D01*
X17155777Y-14439246D02*
X17155777Y-14496388D01*
X17155777Y-14496388D02*
X17146253Y-14515436D01*
X17146253Y-14515436D02*
X17136730Y-14524960D01*
X17136730Y-14524960D02*
X17117682Y-14534484D01*
X17117682Y-14534484D02*
X17089111Y-14534484D01*
X17270063Y-14534484D02*
X17251015Y-14524960D01*
X17251015Y-14524960D02*
X17241492Y-14505912D01*
X17241492Y-14505912D02*
X17241492Y-14334484D01*
X17422444Y-14524960D02*
X17403396Y-14534484D01*
X17403396Y-14534484D02*
X17365301Y-14534484D01*
X17365301Y-14534484D02*
X17346253Y-14524960D01*
X17346253Y-14524960D02*
X17336730Y-14505912D01*
X17336730Y-14505912D02*
X17336730Y-14429722D01*
X17336730Y-14429722D02*
X17346253Y-14410674D01*
X17346253Y-14410674D02*
X17365301Y-14401150D01*
X17365301Y-14401150D02*
X17403396Y-14401150D01*
X17403396Y-14401150D02*
X17422444Y-14410674D01*
X17422444Y-14410674D02*
X17431968Y-14429722D01*
X17431968Y-14429722D02*
X17431968Y-14448769D01*
X17431968Y-14448769D02*
X17336730Y-14467817D01*
X17508158Y-14524960D02*
X17527206Y-14534484D01*
X17527206Y-14534484D02*
X17565301Y-14534484D01*
X17565301Y-14534484D02*
X17584349Y-14524960D01*
X17584349Y-14524960D02*
X17593873Y-14505912D01*
X17593873Y-14505912D02*
X17593873Y-14496388D01*
X17593873Y-14496388D02*
X17584349Y-14477341D01*
X17584349Y-14477341D02*
X17565301Y-14467817D01*
X17565301Y-14467817D02*
X17536730Y-14467817D01*
X17536730Y-14467817D02*
X17517682Y-14458293D01*
X17517682Y-14458293D02*
X17508158Y-14439246D01*
X17508158Y-14439246D02*
X17508158Y-14429722D01*
X17508158Y-14429722D02*
X17517682Y-14410674D01*
X17517682Y-14410674D02*
X17536730Y-14401150D01*
X17536730Y-14401150D02*
X17565301Y-14401150D01*
X17565301Y-14401150D02*
X17584349Y-14410674D01*
X17660539Y-14610674D02*
X17670063Y-14601150D01*
X17670063Y-14601150D02*
X17689111Y-14572579D01*
X17689111Y-14572579D02*
X17698634Y-14553531D01*
X17698634Y-14553531D02*
X17708158Y-14524960D01*
X17708158Y-14524960D02*
X17717682Y-14477341D01*
X17717682Y-14477341D02*
X17717682Y-14439246D01*
X17717682Y-14439246D02*
X17708158Y-14391627D01*
X17708158Y-14391627D02*
X17698634Y-14363055D01*
X17698634Y-14363055D02*
X17689111Y-14344008D01*
X17689111Y-14344008D02*
X17670063Y-14315436D01*
X17670063Y-14315436D02*
X17660539Y-14305912D01*
M02*
