G04 #@! TF.GenerationSoftware,KiCad,Pcbnew,9.0.4-9.0.4-0~ubuntu24.04.1*
G04 #@! TF.CreationDate,2025-09-13T11:56:24+02:00*
G04 #@! TF.ProjectId,SMG_OVN_DE96-00994A,534d475f-4f56-44e5-9f44-4539362d3030,1*
G04 #@! TF.SameCoordinates,Original*
G04 #@! TF.FileFunction,Legend,Bot*
G04 #@! TF.FilePolarity,Positive*
%FSLAX46Y46*%
G04 Gerber Fmt 4.6, Leading zero omitted, Abs format (unit mm)*
G04 Created by KiCad (PCBNEW 9.0.4-9.0.4-0~ubuntu24.04.1) date 2025-09-13 11:56:24*
%MOMM*%
%LPD*%
G01*
G04 APERTURE LIST*
G04 Aperture macros list*
%AMRoundRect*
0 Rectangle with rounded corners*
0 $1 Rounding radius*
0 $2 $3 $4 $5 $6 $7 $8 $9 X,Y pos of 4 corners*
0 Add a 4 corners polygon primitive as box body*
4,1,4,$2,$3,$4,$5,$6,$7,$8,$9,$2,$3,0*
0 Add four circle primitives for the rounded corners*
1,1,$1+$1,$2,$3*
1,1,$1+$1,$4,$5*
1,1,$1+$1,$6,$7*
1,1,$1+$1,$8,$9*
0 Add four rect primitives between the rounded corners*
20,1,$1+$1,$2,$3,$4,$5,0*
20,1,$1+$1,$4,$5,$6,$7,0*
20,1,$1+$1,$6,$7,$8,$9,0*
20,1,$1+$1,$8,$9,$2,$3,0*%
G04 Aperture macros list end*
%ADD10C,0.150000*%
%ADD11C,0.120000*%
%ADD12C,0.000000*%
%ADD13R,1.800000X1.800000*%
%ADD14C,1.800000*%
%ADD15C,2.000000*%
%ADD16RoundRect,0.102000X1.125000X-1.125000X1.125000X1.125000X-1.125000X1.125000X-1.125000X-1.125000X0*%
%ADD17C,2.454000*%
%ADD18RoundRect,0.200000X-0.200000X-0.275000X0.200000X-0.275000X0.200000X0.275000X-0.200000X0.275000X0*%
%ADD19RoundRect,0.200000X0.275000X-0.200000X0.275000X0.200000X-0.275000X0.200000X-0.275000X-0.200000X0*%
%ADD20RoundRect,0.200000X-0.275000X0.200000X-0.275000X-0.200000X0.275000X-0.200000X0.275000X0.200000X0*%
%ADD21RoundRect,0.200000X0.200000X0.275000X-0.200000X0.275000X-0.200000X-0.275000X0.200000X-0.275000X0*%
G04 APERTURE END LIST*
D10*
X154491666Y-118384819D02*
X154824999Y-117908628D01*
X155063094Y-118384819D02*
X155063094Y-117384819D01*
X155063094Y-117384819D02*
X154682142Y-117384819D01*
X154682142Y-117384819D02*
X154586904Y-117432438D01*
X154586904Y-117432438D02*
X154539285Y-117480057D01*
X154539285Y-117480057D02*
X154491666Y-117575295D01*
X154491666Y-117575295D02*
X154491666Y-117718152D01*
X154491666Y-117718152D02*
X154539285Y-117813390D01*
X154539285Y-117813390D02*
X154586904Y-117861009D01*
X154586904Y-117861009D02*
X154682142Y-117908628D01*
X154682142Y-117908628D02*
X155063094Y-117908628D01*
X153634523Y-117718152D02*
X153634523Y-118384819D01*
X153872618Y-117337200D02*
X154110713Y-118051485D01*
X154110713Y-118051485D02*
X153491666Y-118051485D01*
X167634819Y-110008333D02*
X167158628Y-109675000D01*
X167634819Y-109436905D02*
X166634819Y-109436905D01*
X166634819Y-109436905D02*
X166634819Y-109817857D01*
X166634819Y-109817857D02*
X166682438Y-109913095D01*
X166682438Y-109913095D02*
X166730057Y-109960714D01*
X166730057Y-109960714D02*
X166825295Y-110008333D01*
X166825295Y-110008333D02*
X166968152Y-110008333D01*
X166968152Y-110008333D02*
X167063390Y-109960714D01*
X167063390Y-109960714D02*
X167111009Y-109913095D01*
X167111009Y-109913095D02*
X167158628Y-109817857D01*
X167158628Y-109817857D02*
X167158628Y-109436905D01*
X166730057Y-110389286D02*
X166682438Y-110436905D01*
X166682438Y-110436905D02*
X166634819Y-110532143D01*
X166634819Y-110532143D02*
X166634819Y-110770238D01*
X166634819Y-110770238D02*
X166682438Y-110865476D01*
X166682438Y-110865476D02*
X166730057Y-110913095D01*
X166730057Y-110913095D02*
X166825295Y-110960714D01*
X166825295Y-110960714D02*
X166920533Y-110960714D01*
X166920533Y-110960714D02*
X167063390Y-110913095D01*
X167063390Y-110913095D02*
X167634819Y-110341667D01*
X167634819Y-110341667D02*
X167634819Y-110960714D01*
X140149819Y-100552142D02*
X139673628Y-100218809D01*
X140149819Y-99980714D02*
X139149819Y-99980714D01*
X139149819Y-99980714D02*
X139149819Y-100361666D01*
X139149819Y-100361666D02*
X139197438Y-100456904D01*
X139197438Y-100456904D02*
X139245057Y-100504523D01*
X139245057Y-100504523D02*
X139340295Y-100552142D01*
X139340295Y-100552142D02*
X139483152Y-100552142D01*
X139483152Y-100552142D02*
X139578390Y-100504523D01*
X139578390Y-100504523D02*
X139626009Y-100456904D01*
X139626009Y-100456904D02*
X139673628Y-100361666D01*
X139673628Y-100361666D02*
X139673628Y-99980714D01*
X140149819Y-101504523D02*
X140149819Y-100933095D01*
X140149819Y-101218809D02*
X139149819Y-101218809D01*
X139149819Y-101218809D02*
X139292676Y-101123571D01*
X139292676Y-101123571D02*
X139387914Y-101028333D01*
X139387914Y-101028333D02*
X139435533Y-100933095D01*
X139149819Y-102361666D02*
X139149819Y-102171190D01*
X139149819Y-102171190D02*
X139197438Y-102075952D01*
X139197438Y-102075952D02*
X139245057Y-102028333D01*
X139245057Y-102028333D02*
X139387914Y-101933095D01*
X139387914Y-101933095D02*
X139578390Y-101885476D01*
X139578390Y-101885476D02*
X139959342Y-101885476D01*
X139959342Y-101885476D02*
X140054580Y-101933095D01*
X140054580Y-101933095D02*
X140102200Y-101980714D01*
X140102200Y-101980714D02*
X140149819Y-102075952D01*
X140149819Y-102075952D02*
X140149819Y-102266428D01*
X140149819Y-102266428D02*
X140102200Y-102361666D01*
X140102200Y-102361666D02*
X140054580Y-102409285D01*
X140054580Y-102409285D02*
X139959342Y-102456904D01*
X139959342Y-102456904D02*
X139721247Y-102456904D01*
X139721247Y-102456904D02*
X139626009Y-102409285D01*
X139626009Y-102409285D02*
X139578390Y-102361666D01*
X139578390Y-102361666D02*
X139530771Y-102266428D01*
X139530771Y-102266428D02*
X139530771Y-102075952D01*
X139530771Y-102075952D02*
X139578390Y-101980714D01*
X139578390Y-101980714D02*
X139626009Y-101933095D01*
X139626009Y-101933095D02*
X139721247Y-101885476D01*
X158642857Y-120204819D02*
X158976190Y-119728628D01*
X159214285Y-120204819D02*
X159214285Y-119204819D01*
X159214285Y-119204819D02*
X158833333Y-119204819D01*
X158833333Y-119204819D02*
X158738095Y-119252438D01*
X158738095Y-119252438D02*
X158690476Y-119300057D01*
X158690476Y-119300057D02*
X158642857Y-119395295D01*
X158642857Y-119395295D02*
X158642857Y-119538152D01*
X158642857Y-119538152D02*
X158690476Y-119633390D01*
X158690476Y-119633390D02*
X158738095Y-119681009D01*
X158738095Y-119681009D02*
X158833333Y-119728628D01*
X158833333Y-119728628D02*
X159214285Y-119728628D01*
X157690476Y-120204819D02*
X158261904Y-120204819D01*
X157976190Y-120204819D02*
X157976190Y-119204819D01*
X157976190Y-119204819D02*
X158071428Y-119347676D01*
X158071428Y-119347676D02*
X158166666Y-119442914D01*
X158166666Y-119442914D02*
X158261904Y-119490533D01*
X157357142Y-119204819D02*
X156738095Y-119204819D01*
X156738095Y-119204819D02*
X157071428Y-119585771D01*
X157071428Y-119585771D02*
X156928571Y-119585771D01*
X156928571Y-119585771D02*
X156833333Y-119633390D01*
X156833333Y-119633390D02*
X156785714Y-119681009D01*
X156785714Y-119681009D02*
X156738095Y-119776247D01*
X156738095Y-119776247D02*
X156738095Y-120014342D01*
X156738095Y-120014342D02*
X156785714Y-120109580D01*
X156785714Y-120109580D02*
X156833333Y-120157200D01*
X156833333Y-120157200D02*
X156928571Y-120204819D01*
X156928571Y-120204819D02*
X157214285Y-120204819D01*
X157214285Y-120204819D02*
X157309523Y-120157200D01*
X157309523Y-120157200D02*
X157357142Y-120109580D01*
X160892857Y-95634819D02*
X161226190Y-95158628D01*
X161464285Y-95634819D02*
X161464285Y-94634819D01*
X161464285Y-94634819D02*
X161083333Y-94634819D01*
X161083333Y-94634819D02*
X160988095Y-94682438D01*
X160988095Y-94682438D02*
X160940476Y-94730057D01*
X160940476Y-94730057D02*
X160892857Y-94825295D01*
X160892857Y-94825295D02*
X160892857Y-94968152D01*
X160892857Y-94968152D02*
X160940476Y-95063390D01*
X160940476Y-95063390D02*
X160988095Y-95111009D01*
X160988095Y-95111009D02*
X161083333Y-95158628D01*
X161083333Y-95158628D02*
X161464285Y-95158628D01*
X159940476Y-95634819D02*
X160511904Y-95634819D01*
X160226190Y-95634819D02*
X160226190Y-94634819D01*
X160226190Y-94634819D02*
X160321428Y-94777676D01*
X160321428Y-94777676D02*
X160416666Y-94872914D01*
X160416666Y-94872914D02*
X160511904Y-94920533D01*
X158988095Y-95634819D02*
X159559523Y-95634819D01*
X159273809Y-95634819D02*
X159273809Y-94634819D01*
X159273809Y-94634819D02*
X159369047Y-94777676D01*
X159369047Y-94777676D02*
X159464285Y-94872914D01*
X159464285Y-94872914D02*
X159559523Y-94920533D01*
X160491666Y-117134819D02*
X160824999Y-116658628D01*
X161063094Y-117134819D02*
X161063094Y-116134819D01*
X161063094Y-116134819D02*
X160682142Y-116134819D01*
X160682142Y-116134819D02*
X160586904Y-116182438D01*
X160586904Y-116182438D02*
X160539285Y-116230057D01*
X160539285Y-116230057D02*
X160491666Y-116325295D01*
X160491666Y-116325295D02*
X160491666Y-116468152D01*
X160491666Y-116468152D02*
X160539285Y-116563390D01*
X160539285Y-116563390D02*
X160586904Y-116611009D01*
X160586904Y-116611009D02*
X160682142Y-116658628D01*
X160682142Y-116658628D02*
X161063094Y-116658628D01*
X160158332Y-116134819D02*
X159539285Y-116134819D01*
X159539285Y-116134819D02*
X159872618Y-116515771D01*
X159872618Y-116515771D02*
X159729761Y-116515771D01*
X159729761Y-116515771D02*
X159634523Y-116563390D01*
X159634523Y-116563390D02*
X159586904Y-116611009D01*
X159586904Y-116611009D02*
X159539285Y-116706247D01*
X159539285Y-116706247D02*
X159539285Y-116944342D01*
X159539285Y-116944342D02*
X159586904Y-117039580D01*
X159586904Y-117039580D02*
X159634523Y-117087200D01*
X159634523Y-117087200D02*
X159729761Y-117134819D01*
X159729761Y-117134819D02*
X160015475Y-117134819D01*
X160015475Y-117134819D02*
X160110713Y-117087200D01*
X160110713Y-117087200D02*
X160158332Y-117039580D01*
X144884819Y-98258333D02*
X144408628Y-97925000D01*
X144884819Y-97686905D02*
X143884819Y-97686905D01*
X143884819Y-97686905D02*
X143884819Y-98067857D01*
X143884819Y-98067857D02*
X143932438Y-98163095D01*
X143932438Y-98163095D02*
X143980057Y-98210714D01*
X143980057Y-98210714D02*
X144075295Y-98258333D01*
X144075295Y-98258333D02*
X144218152Y-98258333D01*
X144218152Y-98258333D02*
X144313390Y-98210714D01*
X144313390Y-98210714D02*
X144361009Y-98163095D01*
X144361009Y-98163095D02*
X144408628Y-98067857D01*
X144408628Y-98067857D02*
X144408628Y-97686905D01*
X144313390Y-98829762D02*
X144265771Y-98734524D01*
X144265771Y-98734524D02*
X144218152Y-98686905D01*
X144218152Y-98686905D02*
X144122914Y-98639286D01*
X144122914Y-98639286D02*
X144075295Y-98639286D01*
X144075295Y-98639286D02*
X143980057Y-98686905D01*
X143980057Y-98686905D02*
X143932438Y-98734524D01*
X143932438Y-98734524D02*
X143884819Y-98829762D01*
X143884819Y-98829762D02*
X143884819Y-99020238D01*
X143884819Y-99020238D02*
X143932438Y-99115476D01*
X143932438Y-99115476D02*
X143980057Y-99163095D01*
X143980057Y-99163095D02*
X144075295Y-99210714D01*
X144075295Y-99210714D02*
X144122914Y-99210714D01*
X144122914Y-99210714D02*
X144218152Y-99163095D01*
X144218152Y-99163095D02*
X144265771Y-99115476D01*
X144265771Y-99115476D02*
X144313390Y-99020238D01*
X144313390Y-99020238D02*
X144313390Y-98829762D01*
X144313390Y-98829762D02*
X144361009Y-98734524D01*
X144361009Y-98734524D02*
X144408628Y-98686905D01*
X144408628Y-98686905D02*
X144503866Y-98639286D01*
X144503866Y-98639286D02*
X144694342Y-98639286D01*
X144694342Y-98639286D02*
X144789580Y-98686905D01*
X144789580Y-98686905D02*
X144837200Y-98734524D01*
X144837200Y-98734524D02*
X144884819Y-98829762D01*
X144884819Y-98829762D02*
X144884819Y-99020238D01*
X144884819Y-99020238D02*
X144837200Y-99115476D01*
X144837200Y-99115476D02*
X144789580Y-99163095D01*
X144789580Y-99163095D02*
X144694342Y-99210714D01*
X144694342Y-99210714D02*
X144503866Y-99210714D01*
X144503866Y-99210714D02*
X144408628Y-99163095D01*
X144408628Y-99163095D02*
X144361009Y-99115476D01*
X144361009Y-99115476D02*
X144313390Y-99020238D01*
X167166666Y-106134819D02*
X167499999Y-105658628D01*
X167738094Y-106134819D02*
X167738094Y-105134819D01*
X167738094Y-105134819D02*
X167357142Y-105134819D01*
X167357142Y-105134819D02*
X167261904Y-105182438D01*
X167261904Y-105182438D02*
X167214285Y-105230057D01*
X167214285Y-105230057D02*
X167166666Y-105325295D01*
X167166666Y-105325295D02*
X167166666Y-105468152D01*
X167166666Y-105468152D02*
X167214285Y-105563390D01*
X167214285Y-105563390D02*
X167261904Y-105611009D01*
X167261904Y-105611009D02*
X167357142Y-105658628D01*
X167357142Y-105658628D02*
X167738094Y-105658628D01*
X166214285Y-106134819D02*
X166785713Y-106134819D01*
X166499999Y-106134819D02*
X166499999Y-105134819D01*
X166499999Y-105134819D02*
X166595237Y-105277676D01*
X166595237Y-105277676D02*
X166690475Y-105372914D01*
X166690475Y-105372914D02*
X166785713Y-105420533D01*
X167204819Y-121912142D02*
X166728628Y-121578809D01*
X167204819Y-121340714D02*
X166204819Y-121340714D01*
X166204819Y-121340714D02*
X166204819Y-121721666D01*
X166204819Y-121721666D02*
X166252438Y-121816904D01*
X166252438Y-121816904D02*
X166300057Y-121864523D01*
X166300057Y-121864523D02*
X166395295Y-121912142D01*
X166395295Y-121912142D02*
X166538152Y-121912142D01*
X166538152Y-121912142D02*
X166633390Y-121864523D01*
X166633390Y-121864523D02*
X166681009Y-121816904D01*
X166681009Y-121816904D02*
X166728628Y-121721666D01*
X166728628Y-121721666D02*
X166728628Y-121340714D01*
X167204819Y-122864523D02*
X167204819Y-122293095D01*
X167204819Y-122578809D02*
X166204819Y-122578809D01*
X166204819Y-122578809D02*
X166347676Y-122483571D01*
X166347676Y-122483571D02*
X166442914Y-122388333D01*
X166442914Y-122388333D02*
X166490533Y-122293095D01*
X166633390Y-123435952D02*
X166585771Y-123340714D01*
X166585771Y-123340714D02*
X166538152Y-123293095D01*
X166538152Y-123293095D02*
X166442914Y-123245476D01*
X166442914Y-123245476D02*
X166395295Y-123245476D01*
X166395295Y-123245476D02*
X166300057Y-123293095D01*
X166300057Y-123293095D02*
X166252438Y-123340714D01*
X166252438Y-123340714D02*
X166204819Y-123435952D01*
X166204819Y-123435952D02*
X166204819Y-123626428D01*
X166204819Y-123626428D02*
X166252438Y-123721666D01*
X166252438Y-123721666D02*
X166300057Y-123769285D01*
X166300057Y-123769285D02*
X166395295Y-123816904D01*
X166395295Y-123816904D02*
X166442914Y-123816904D01*
X166442914Y-123816904D02*
X166538152Y-123769285D01*
X166538152Y-123769285D02*
X166585771Y-123721666D01*
X166585771Y-123721666D02*
X166633390Y-123626428D01*
X166633390Y-123626428D02*
X166633390Y-123435952D01*
X166633390Y-123435952D02*
X166681009Y-123340714D01*
X166681009Y-123340714D02*
X166728628Y-123293095D01*
X166728628Y-123293095D02*
X166823866Y-123245476D01*
X166823866Y-123245476D02*
X167014342Y-123245476D01*
X167014342Y-123245476D02*
X167109580Y-123293095D01*
X167109580Y-123293095D02*
X167157200Y-123340714D01*
X167157200Y-123340714D02*
X167204819Y-123435952D01*
X167204819Y-123435952D02*
X167204819Y-123626428D01*
X167204819Y-123626428D02*
X167157200Y-123721666D01*
X167157200Y-123721666D02*
X167109580Y-123769285D01*
X167109580Y-123769285D02*
X167014342Y-123816904D01*
X167014342Y-123816904D02*
X166823866Y-123816904D01*
X166823866Y-123816904D02*
X166728628Y-123769285D01*
X166728628Y-123769285D02*
X166681009Y-123721666D01*
X166681009Y-123721666D02*
X166633390Y-123626428D01*
X155217857Y-93884819D02*
X155551190Y-93408628D01*
X155789285Y-93884819D02*
X155789285Y-92884819D01*
X155789285Y-92884819D02*
X155408333Y-92884819D01*
X155408333Y-92884819D02*
X155313095Y-92932438D01*
X155313095Y-92932438D02*
X155265476Y-92980057D01*
X155265476Y-92980057D02*
X155217857Y-93075295D01*
X155217857Y-93075295D02*
X155217857Y-93218152D01*
X155217857Y-93218152D02*
X155265476Y-93313390D01*
X155265476Y-93313390D02*
X155313095Y-93361009D01*
X155313095Y-93361009D02*
X155408333Y-93408628D01*
X155408333Y-93408628D02*
X155789285Y-93408628D01*
X154265476Y-93884819D02*
X154836904Y-93884819D01*
X154551190Y-93884819D02*
X154551190Y-92884819D01*
X154551190Y-92884819D02*
X154646428Y-93027676D01*
X154646428Y-93027676D02*
X154741666Y-93122914D01*
X154741666Y-93122914D02*
X154836904Y-93170533D01*
X153646428Y-92884819D02*
X153551190Y-92884819D01*
X153551190Y-92884819D02*
X153455952Y-92932438D01*
X153455952Y-92932438D02*
X153408333Y-92980057D01*
X153408333Y-92980057D02*
X153360714Y-93075295D01*
X153360714Y-93075295D02*
X153313095Y-93265771D01*
X153313095Y-93265771D02*
X153313095Y-93503866D01*
X153313095Y-93503866D02*
X153360714Y-93694342D01*
X153360714Y-93694342D02*
X153408333Y-93789580D01*
X153408333Y-93789580D02*
X153455952Y-93837200D01*
X153455952Y-93837200D02*
X153551190Y-93884819D01*
X153551190Y-93884819D02*
X153646428Y-93884819D01*
X153646428Y-93884819D02*
X153741666Y-93837200D01*
X153741666Y-93837200D02*
X153789285Y-93789580D01*
X153789285Y-93789580D02*
X153836904Y-93694342D01*
X153836904Y-93694342D02*
X153884523Y-93503866D01*
X153884523Y-93503866D02*
X153884523Y-93265771D01*
X153884523Y-93265771D02*
X153836904Y-93075295D01*
X153836904Y-93075295D02*
X153789285Y-92980057D01*
X153789285Y-92980057D02*
X153741666Y-92932438D01*
X153741666Y-92932438D02*
X153646428Y-92884819D01*
X144884819Y-103758333D02*
X144408628Y-103425000D01*
X144884819Y-103186905D02*
X143884819Y-103186905D01*
X143884819Y-103186905D02*
X143884819Y-103567857D01*
X143884819Y-103567857D02*
X143932438Y-103663095D01*
X143932438Y-103663095D02*
X143980057Y-103710714D01*
X143980057Y-103710714D02*
X144075295Y-103758333D01*
X144075295Y-103758333D02*
X144218152Y-103758333D01*
X144218152Y-103758333D02*
X144313390Y-103710714D01*
X144313390Y-103710714D02*
X144361009Y-103663095D01*
X144361009Y-103663095D02*
X144408628Y-103567857D01*
X144408628Y-103567857D02*
X144408628Y-103186905D01*
X143884819Y-104091667D02*
X143884819Y-104758333D01*
X143884819Y-104758333D02*
X144884819Y-104329762D01*
X149659819Y-85552142D02*
X149183628Y-85218809D01*
X149659819Y-84980714D02*
X148659819Y-84980714D01*
X148659819Y-84980714D02*
X148659819Y-85361666D01*
X148659819Y-85361666D02*
X148707438Y-85456904D01*
X148707438Y-85456904D02*
X148755057Y-85504523D01*
X148755057Y-85504523D02*
X148850295Y-85552142D01*
X148850295Y-85552142D02*
X148993152Y-85552142D01*
X148993152Y-85552142D02*
X149088390Y-85504523D01*
X149088390Y-85504523D02*
X149136009Y-85456904D01*
X149136009Y-85456904D02*
X149183628Y-85361666D01*
X149183628Y-85361666D02*
X149183628Y-84980714D01*
X149659819Y-86504523D02*
X149659819Y-85933095D01*
X149659819Y-86218809D02*
X148659819Y-86218809D01*
X148659819Y-86218809D02*
X148802676Y-86123571D01*
X148802676Y-86123571D02*
X148897914Y-86028333D01*
X148897914Y-86028333D02*
X148945533Y-85933095D01*
X148659819Y-87409285D02*
X148659819Y-86933095D01*
X148659819Y-86933095D02*
X149136009Y-86885476D01*
X149136009Y-86885476D02*
X149088390Y-86933095D01*
X149088390Y-86933095D02*
X149040771Y-87028333D01*
X149040771Y-87028333D02*
X149040771Y-87266428D01*
X149040771Y-87266428D02*
X149088390Y-87361666D01*
X149088390Y-87361666D02*
X149136009Y-87409285D01*
X149136009Y-87409285D02*
X149231247Y-87456904D01*
X149231247Y-87456904D02*
X149469342Y-87456904D01*
X149469342Y-87456904D02*
X149564580Y-87409285D01*
X149564580Y-87409285D02*
X149612200Y-87361666D01*
X149612200Y-87361666D02*
X149659819Y-87266428D01*
X149659819Y-87266428D02*
X149659819Y-87028333D01*
X149659819Y-87028333D02*
X149612200Y-86933095D01*
X149612200Y-86933095D02*
X149564580Y-86885476D01*
X146166666Y-115704819D02*
X146499999Y-115228628D01*
X146738094Y-115704819D02*
X146738094Y-114704819D01*
X146738094Y-114704819D02*
X146357142Y-114704819D01*
X146357142Y-114704819D02*
X146261904Y-114752438D01*
X146261904Y-114752438D02*
X146214285Y-114800057D01*
X146214285Y-114800057D02*
X146166666Y-114895295D01*
X146166666Y-114895295D02*
X146166666Y-115038152D01*
X146166666Y-115038152D02*
X146214285Y-115133390D01*
X146214285Y-115133390D02*
X146261904Y-115181009D01*
X146261904Y-115181009D02*
X146357142Y-115228628D01*
X146357142Y-115228628D02*
X146738094Y-115228628D01*
X145261904Y-114704819D02*
X145738094Y-114704819D01*
X145738094Y-114704819D02*
X145785713Y-115181009D01*
X145785713Y-115181009D02*
X145738094Y-115133390D01*
X145738094Y-115133390D02*
X145642856Y-115085771D01*
X145642856Y-115085771D02*
X145404761Y-115085771D01*
X145404761Y-115085771D02*
X145309523Y-115133390D01*
X145309523Y-115133390D02*
X145261904Y-115181009D01*
X145261904Y-115181009D02*
X145214285Y-115276247D01*
X145214285Y-115276247D02*
X145214285Y-115514342D01*
X145214285Y-115514342D02*
X145261904Y-115609580D01*
X145261904Y-115609580D02*
X145309523Y-115657200D01*
X145309523Y-115657200D02*
X145404761Y-115704819D01*
X145404761Y-115704819D02*
X145642856Y-115704819D01*
X145642856Y-115704819D02*
X145738094Y-115657200D01*
X145738094Y-115657200D02*
X145785713Y-115609580D01*
X167419819Y-85552142D02*
X166943628Y-85218809D01*
X167419819Y-84980714D02*
X166419819Y-84980714D01*
X166419819Y-84980714D02*
X166419819Y-85361666D01*
X166419819Y-85361666D02*
X166467438Y-85456904D01*
X166467438Y-85456904D02*
X166515057Y-85504523D01*
X166515057Y-85504523D02*
X166610295Y-85552142D01*
X166610295Y-85552142D02*
X166753152Y-85552142D01*
X166753152Y-85552142D02*
X166848390Y-85504523D01*
X166848390Y-85504523D02*
X166896009Y-85456904D01*
X166896009Y-85456904D02*
X166943628Y-85361666D01*
X166943628Y-85361666D02*
X166943628Y-84980714D01*
X167419819Y-86504523D02*
X167419819Y-85933095D01*
X167419819Y-86218809D02*
X166419819Y-86218809D01*
X166419819Y-86218809D02*
X166562676Y-86123571D01*
X166562676Y-86123571D02*
X166657914Y-86028333D01*
X166657914Y-86028333D02*
X166705533Y-85933095D01*
X166753152Y-87361666D02*
X167419819Y-87361666D01*
X166372200Y-87123571D02*
X167086485Y-86885476D01*
X167086485Y-86885476D02*
X167086485Y-87504523D01*
X148741666Y-95634819D02*
X149074999Y-95158628D01*
X149313094Y-95634819D02*
X149313094Y-94634819D01*
X149313094Y-94634819D02*
X148932142Y-94634819D01*
X148932142Y-94634819D02*
X148836904Y-94682438D01*
X148836904Y-94682438D02*
X148789285Y-94730057D01*
X148789285Y-94730057D02*
X148741666Y-94825295D01*
X148741666Y-94825295D02*
X148741666Y-94968152D01*
X148741666Y-94968152D02*
X148789285Y-95063390D01*
X148789285Y-95063390D02*
X148836904Y-95111009D01*
X148836904Y-95111009D02*
X148932142Y-95158628D01*
X148932142Y-95158628D02*
X149313094Y-95158628D01*
X148265475Y-95634819D02*
X148074999Y-95634819D01*
X148074999Y-95634819D02*
X147979761Y-95587200D01*
X147979761Y-95587200D02*
X147932142Y-95539580D01*
X147932142Y-95539580D02*
X147836904Y-95396723D01*
X147836904Y-95396723D02*
X147789285Y-95206247D01*
X147789285Y-95206247D02*
X147789285Y-94825295D01*
X147789285Y-94825295D02*
X147836904Y-94730057D01*
X147836904Y-94730057D02*
X147884523Y-94682438D01*
X147884523Y-94682438D02*
X147979761Y-94634819D01*
X147979761Y-94634819D02*
X148170237Y-94634819D01*
X148170237Y-94634819D02*
X148265475Y-94682438D01*
X148265475Y-94682438D02*
X148313094Y-94730057D01*
X148313094Y-94730057D02*
X148360713Y-94825295D01*
X148360713Y-94825295D02*
X148360713Y-95063390D01*
X148360713Y-95063390D02*
X148313094Y-95158628D01*
X148313094Y-95158628D02*
X148265475Y-95206247D01*
X148265475Y-95206247D02*
X148170237Y-95253866D01*
X148170237Y-95253866D02*
X147979761Y-95253866D01*
X147979761Y-95253866D02*
X147884523Y-95206247D01*
X147884523Y-95206247D02*
X147836904Y-95158628D01*
X147836904Y-95158628D02*
X147789285Y-95063390D01*
X170369819Y-100552142D02*
X169893628Y-100218809D01*
X170369819Y-99980714D02*
X169369819Y-99980714D01*
X169369819Y-99980714D02*
X169369819Y-100361666D01*
X169369819Y-100361666D02*
X169417438Y-100456904D01*
X169417438Y-100456904D02*
X169465057Y-100504523D01*
X169465057Y-100504523D02*
X169560295Y-100552142D01*
X169560295Y-100552142D02*
X169703152Y-100552142D01*
X169703152Y-100552142D02*
X169798390Y-100504523D01*
X169798390Y-100504523D02*
X169846009Y-100456904D01*
X169846009Y-100456904D02*
X169893628Y-100361666D01*
X169893628Y-100361666D02*
X169893628Y-99980714D01*
X170369819Y-101504523D02*
X170369819Y-100933095D01*
X170369819Y-101218809D02*
X169369819Y-101218809D01*
X169369819Y-101218809D02*
X169512676Y-101123571D01*
X169512676Y-101123571D02*
X169607914Y-101028333D01*
X169607914Y-101028333D02*
X169655533Y-100933095D01*
X170369819Y-101980714D02*
X170369819Y-102171190D01*
X170369819Y-102171190D02*
X170322200Y-102266428D01*
X170322200Y-102266428D02*
X170274580Y-102314047D01*
X170274580Y-102314047D02*
X170131723Y-102409285D01*
X170131723Y-102409285D02*
X169941247Y-102456904D01*
X169941247Y-102456904D02*
X169560295Y-102456904D01*
X169560295Y-102456904D02*
X169465057Y-102409285D01*
X169465057Y-102409285D02*
X169417438Y-102361666D01*
X169417438Y-102361666D02*
X169369819Y-102266428D01*
X169369819Y-102266428D02*
X169369819Y-102075952D01*
X169369819Y-102075952D02*
X169417438Y-101980714D01*
X169417438Y-101980714D02*
X169465057Y-101933095D01*
X169465057Y-101933095D02*
X169560295Y-101885476D01*
X169560295Y-101885476D02*
X169798390Y-101885476D01*
X169798390Y-101885476D02*
X169893628Y-101933095D01*
X169893628Y-101933095D02*
X169941247Y-101980714D01*
X169941247Y-101980714D02*
X169988866Y-102075952D01*
X169988866Y-102075952D02*
X169988866Y-102266428D01*
X169988866Y-102266428D02*
X169941247Y-102361666D01*
X169941247Y-102361666D02*
X169893628Y-102409285D01*
X169893628Y-102409285D02*
X169798390Y-102456904D01*
X142024819Y-109908333D02*
X141548628Y-109575000D01*
X142024819Y-109336905D02*
X141024819Y-109336905D01*
X141024819Y-109336905D02*
X141024819Y-109717857D01*
X141024819Y-109717857D02*
X141072438Y-109813095D01*
X141072438Y-109813095D02*
X141120057Y-109860714D01*
X141120057Y-109860714D02*
X141215295Y-109908333D01*
X141215295Y-109908333D02*
X141358152Y-109908333D01*
X141358152Y-109908333D02*
X141453390Y-109860714D01*
X141453390Y-109860714D02*
X141501009Y-109813095D01*
X141501009Y-109813095D02*
X141548628Y-109717857D01*
X141548628Y-109717857D02*
X141548628Y-109336905D01*
X141024819Y-110765476D02*
X141024819Y-110575000D01*
X141024819Y-110575000D02*
X141072438Y-110479762D01*
X141072438Y-110479762D02*
X141120057Y-110432143D01*
X141120057Y-110432143D02*
X141262914Y-110336905D01*
X141262914Y-110336905D02*
X141453390Y-110289286D01*
X141453390Y-110289286D02*
X141834342Y-110289286D01*
X141834342Y-110289286D02*
X141929580Y-110336905D01*
X141929580Y-110336905D02*
X141977200Y-110384524D01*
X141977200Y-110384524D02*
X142024819Y-110479762D01*
X142024819Y-110479762D02*
X142024819Y-110670238D01*
X142024819Y-110670238D02*
X141977200Y-110765476D01*
X141977200Y-110765476D02*
X141929580Y-110813095D01*
X141929580Y-110813095D02*
X141834342Y-110860714D01*
X141834342Y-110860714D02*
X141596247Y-110860714D01*
X141596247Y-110860714D02*
X141501009Y-110813095D01*
X141501009Y-110813095D02*
X141453390Y-110765476D01*
X141453390Y-110765476D02*
X141405771Y-110670238D01*
X141405771Y-110670238D02*
X141405771Y-110479762D01*
X141405771Y-110479762D02*
X141453390Y-110384524D01*
X141453390Y-110384524D02*
X141501009Y-110336905D01*
X141501009Y-110336905D02*
X141596247Y-110289286D01*
X151204819Y-118607142D02*
X150728628Y-118273809D01*
X151204819Y-118035714D02*
X150204819Y-118035714D01*
X150204819Y-118035714D02*
X150204819Y-118416666D01*
X150204819Y-118416666D02*
X150252438Y-118511904D01*
X150252438Y-118511904D02*
X150300057Y-118559523D01*
X150300057Y-118559523D02*
X150395295Y-118607142D01*
X150395295Y-118607142D02*
X150538152Y-118607142D01*
X150538152Y-118607142D02*
X150633390Y-118559523D01*
X150633390Y-118559523D02*
X150681009Y-118511904D01*
X150681009Y-118511904D02*
X150728628Y-118416666D01*
X150728628Y-118416666D02*
X150728628Y-118035714D01*
X151204819Y-119559523D02*
X151204819Y-118988095D01*
X151204819Y-119273809D02*
X150204819Y-119273809D01*
X150204819Y-119273809D02*
X150347676Y-119178571D01*
X150347676Y-119178571D02*
X150442914Y-119083333D01*
X150442914Y-119083333D02*
X150490533Y-118988095D01*
X150204819Y-119892857D02*
X150204819Y-120559523D01*
X150204819Y-120559523D02*
X151204819Y-120130952D01*
X168642857Y-97954819D02*
X168976190Y-97478628D01*
X169214285Y-97954819D02*
X169214285Y-96954819D01*
X169214285Y-96954819D02*
X168833333Y-96954819D01*
X168833333Y-96954819D02*
X168738095Y-97002438D01*
X168738095Y-97002438D02*
X168690476Y-97050057D01*
X168690476Y-97050057D02*
X168642857Y-97145295D01*
X168642857Y-97145295D02*
X168642857Y-97288152D01*
X168642857Y-97288152D02*
X168690476Y-97383390D01*
X168690476Y-97383390D02*
X168738095Y-97431009D01*
X168738095Y-97431009D02*
X168833333Y-97478628D01*
X168833333Y-97478628D02*
X169214285Y-97478628D01*
X167690476Y-97954819D02*
X168261904Y-97954819D01*
X167976190Y-97954819D02*
X167976190Y-96954819D01*
X167976190Y-96954819D02*
X168071428Y-97097676D01*
X168071428Y-97097676D02*
X168166666Y-97192914D01*
X168166666Y-97192914D02*
X168261904Y-97240533D01*
X167309523Y-97050057D02*
X167261904Y-97002438D01*
X167261904Y-97002438D02*
X167166666Y-96954819D01*
X167166666Y-96954819D02*
X166928571Y-96954819D01*
X166928571Y-96954819D02*
X166833333Y-97002438D01*
X166833333Y-97002438D02*
X166785714Y-97050057D01*
X166785714Y-97050057D02*
X166738095Y-97145295D01*
X166738095Y-97145295D02*
X166738095Y-97240533D01*
X166738095Y-97240533D02*
X166785714Y-97383390D01*
X166785714Y-97383390D02*
X167357142Y-97954819D01*
X167357142Y-97954819D02*
X166738095Y-97954819D01*
D11*
G04 #@! TO.C,R4*
X154087742Y-115977500D02*
X154562258Y-115977500D01*
X154087742Y-117022500D02*
X154562258Y-117022500D01*
G04 #@! TO.C,R2*
X165227500Y-110412258D02*
X165227500Y-109937742D01*
X166272500Y-110412258D02*
X166272500Y-109937742D01*
G04 #@! TO.C,R16*
X139227500Y-104012742D02*
X139227500Y-104487258D01*
X140272500Y-104012742D02*
X140272500Y-104487258D01*
G04 #@! TO.C,R13*
X155162258Y-119227500D02*
X154687742Y-119227500D01*
X155162258Y-120272500D02*
X154687742Y-120272500D01*
G04 #@! TO.C,R11*
X160012742Y-93227500D02*
X160487258Y-93227500D01*
X160012742Y-94272500D02*
X160487258Y-94272500D01*
G04 #@! TO.C,R3*
X160087742Y-114727500D02*
X160562258Y-114727500D01*
X160087742Y-115772500D02*
X160562258Y-115772500D01*
D12*
G04 #@! TO.C,G\u002A\u002A\u002A*
G36*
X129417468Y-124183984D02*
G01*
X129417468Y-124633282D01*
X128965728Y-124633282D01*
X128513988Y-124633282D01*
X128513988Y-124183984D01*
X128513988Y-123734686D01*
X128965728Y-123734686D01*
X129417468Y-123734686D01*
X129417468Y-124183984D01*
G37*
G36*
X136015314Y-124183984D02*
G01*
X136015314Y-124633282D01*
X135566016Y-124633282D01*
X135116718Y-124633282D01*
X135116718Y-124183984D01*
X135116718Y-123734686D01*
X135566016Y-123734686D01*
X136015314Y-123734686D01*
X136015314Y-124183984D01*
G37*
G36*
X136015314Y-130784272D02*
G01*
X136015314Y-131236012D01*
X135566016Y-131236012D01*
X135116718Y-131236012D01*
X135116718Y-130784272D01*
X135116718Y-130332532D01*
X135566016Y-130332532D01*
X136015314Y-130332532D01*
X136015314Y-130784272D01*
G37*
G36*
X136616007Y-131831821D02*
G01*
X135566016Y-131831821D01*
X134516026Y-131831821D01*
X134516026Y-130784272D01*
X134516026Y-130034628D01*
X134818814Y-130034628D01*
X134818814Y-130784272D01*
X134818814Y-131533916D01*
X135568458Y-131533916D01*
X136318102Y-131533916D01*
X136318102Y-130784272D01*
X136318102Y-130034628D01*
X135568458Y-130034628D01*
X134818814Y-130034628D01*
X134516026Y-130034628D01*
X134516026Y-129736724D01*
X135566016Y-129736724D01*
X136616007Y-129736724D01*
X136616007Y-130784272D01*
X136616007Y-131831821D01*
G37*
G36*
X130013276Y-124183984D02*
G01*
X130013276Y-125233974D01*
X128965728Y-125233974D01*
X127918179Y-125233974D01*
X127918179Y-124183984D01*
X127918179Y-123431898D01*
X128216084Y-123431898D01*
X128216084Y-124181542D01*
X128216084Y-124931186D01*
X128965728Y-124931186D01*
X129715372Y-124931186D01*
X129715372Y-124181542D01*
X129715372Y-123431898D01*
X128965728Y-123431898D01*
X128216084Y-123431898D01*
X127918179Y-123431898D01*
X127918179Y-123133993D01*
X128965728Y-123133993D01*
X130013276Y-123133993D01*
X130013276Y-124181542D01*
X130013276Y-124183984D01*
G37*
G36*
X136616007Y-124183995D02*
G01*
X136616007Y-125233997D01*
X135567237Y-125232764D01*
X134518468Y-125231532D01*
X134517236Y-124182763D01*
X134516353Y-123431898D01*
X134818814Y-123431898D01*
X134818814Y-124181542D01*
X134818814Y-124931186D01*
X135568458Y-124931186D01*
X136318102Y-124931186D01*
X136318102Y-124181542D01*
X136318102Y-123431898D01*
X135568458Y-123431898D01*
X134818814Y-123431898D01*
X134516353Y-123431898D01*
X134516003Y-123133993D01*
X135566005Y-123133993D01*
X136616007Y-123133993D01*
X136616007Y-124181542D01*
X136616007Y-124183995D01*
G37*
G36*
X129888459Y-129736258D02*
G01*
X129924630Y-129746785D01*
X129957247Y-129765206D01*
X129983222Y-129790642D01*
X130002152Y-129822691D01*
X130013633Y-129860950D01*
X130014632Y-129867258D01*
X130014572Y-129901626D01*
X130006019Y-129935114D01*
X129990000Y-129966104D01*
X129967544Y-129992980D01*
X129939680Y-130014125D01*
X129907436Y-130027922D01*
X129877931Y-130033146D01*
X129842782Y-130031519D01*
X129809924Y-130021924D01*
X129780413Y-130005352D01*
X129755306Y-129982792D01*
X129735660Y-129955234D01*
X129722532Y-129923666D01*
X129716978Y-129889078D01*
X129720054Y-129852460D01*
X129724591Y-129835964D01*
X129739940Y-129804619D01*
X129762101Y-129777767D01*
X129789553Y-129756456D01*
X129820776Y-129741736D01*
X129854251Y-129734653D01*
X129888459Y-129736258D01*
G37*
G36*
X131998609Y-124037736D02*
G01*
X132031019Y-124048607D01*
X132046244Y-124057051D01*
X132075607Y-124080696D01*
X132097222Y-124109852D01*
X132110588Y-124143730D01*
X132115207Y-124181542D01*
X132113653Y-124204063D01*
X132103927Y-124240110D01*
X132085943Y-124272060D01*
X132060475Y-124298695D01*
X132028292Y-124318796D01*
X132024523Y-124320448D01*
X131996740Y-124328174D01*
X131965636Y-124330820D01*
X131935060Y-124328326D01*
X131908865Y-124320635D01*
X131885426Y-124307752D01*
X131856632Y-124283434D01*
X131835403Y-124253679D01*
X131822354Y-124219431D01*
X131818103Y-124181634D01*
X131820092Y-124158278D01*
X131830333Y-124122946D01*
X131848447Y-124091613D01*
X131873509Y-124065725D01*
X131904592Y-124046725D01*
X131927972Y-124038843D01*
X131963197Y-124034465D01*
X131998609Y-124037736D01*
G37*
G36*
X130500023Y-123737662D02*
G01*
X130532668Y-123749469D01*
X130562496Y-123769721D01*
X130577506Y-123784149D01*
X130596505Y-123809267D01*
X130607887Y-123836864D01*
X130612934Y-123869481D01*
X130613412Y-123886879D01*
X130612283Y-123909202D01*
X130609388Y-123926348D01*
X130596833Y-123955991D01*
X130575566Y-123984378D01*
X130547856Y-124007374D01*
X130515294Y-124023339D01*
X130482773Y-124030712D01*
X130446571Y-124030295D01*
X130412024Y-124021218D01*
X130380492Y-124004043D01*
X130353340Y-123979333D01*
X130331931Y-123947651D01*
X130328836Y-123941006D01*
X130320767Y-123912574D01*
X130318014Y-123880798D01*
X130320670Y-123849460D01*
X130328830Y-123822344D01*
X130346021Y-123793729D01*
X130370692Y-123768273D01*
X130399898Y-123749607D01*
X130432168Y-123738062D01*
X130466034Y-123733970D01*
X130500023Y-123737662D01*
G37*
G36*
X130793550Y-127937304D02*
G01*
X130826192Y-127947212D01*
X130856150Y-127964460D01*
X130882006Y-127988852D01*
X130902337Y-128020189D01*
X130904933Y-128025972D01*
X130912736Y-128054801D01*
X130914936Y-128086955D01*
X130911528Y-128118664D01*
X130902508Y-128146153D01*
X130894745Y-128159861D01*
X130874119Y-128185926D01*
X130849155Y-128207708D01*
X130822675Y-128222510D01*
X130797070Y-128229458D01*
X130763102Y-128231619D01*
X130729101Y-128227235D01*
X130698830Y-128216489D01*
X130677770Y-128203405D01*
X130652092Y-128178876D01*
X130633367Y-128149613D01*
X130621890Y-128117140D01*
X130617953Y-128082981D01*
X130621851Y-128048659D01*
X130633877Y-128015698D01*
X130654325Y-127985622D01*
X130664558Y-127975043D01*
X130693729Y-127953607D01*
X130725899Y-127940304D01*
X130759646Y-127934936D01*
X130793550Y-127937304D01*
G37*
G36*
X131998052Y-125837867D02*
G01*
X132029471Y-125848376D01*
X132058286Y-125865999D01*
X132083159Y-125890732D01*
X132102750Y-125922573D01*
X132110503Y-125944302D01*
X132115482Y-125977355D01*
X132113663Y-126010552D01*
X132104981Y-126040379D01*
X132095654Y-126057923D01*
X132071764Y-126087879D01*
X132041300Y-126111795D01*
X132005816Y-126128294D01*
X131995432Y-126130614D01*
X131972502Y-126131727D01*
X131946584Y-126129495D01*
X131921436Y-126124334D01*
X131900817Y-126116662D01*
X131890048Y-126110599D01*
X131860874Y-126087514D01*
X131838752Y-126059189D01*
X131824192Y-126027040D01*
X131817700Y-125992483D01*
X131819785Y-125956936D01*
X131830955Y-125921814D01*
X131848722Y-125892170D01*
X131873091Y-125867051D01*
X131901547Y-125849065D01*
X131932751Y-125838208D01*
X131965365Y-125834477D01*
X131998052Y-125837867D01*
G37*
G36*
X134686790Y-126135734D02*
G01*
X134720677Y-126144159D01*
X134752058Y-126160423D01*
X134779307Y-126184512D01*
X134799205Y-126213810D01*
X134811477Y-126247401D01*
X134815534Y-126282929D01*
X134811384Y-126318711D01*
X134799032Y-126353064D01*
X134778487Y-126384305D01*
X134764983Y-126396863D01*
X134743325Y-126411142D01*
X134718957Y-126422956D01*
X134695635Y-126430224D01*
X134670713Y-126432790D01*
X134636520Y-126428530D01*
X134600443Y-126415230D01*
X134585739Y-126407298D01*
X134557013Y-126384548D01*
X134536141Y-126356122D01*
X134523389Y-126322451D01*
X134519024Y-126283965D01*
X134519375Y-126270567D01*
X134524601Y-126237965D01*
X134536925Y-126209453D01*
X134557424Y-126182176D01*
X134558702Y-126180780D01*
X134586353Y-126157672D01*
X134618002Y-126142474D01*
X134652023Y-126135166D01*
X134686790Y-126135734D01*
G37*
G36*
X131088286Y-126436625D02*
G01*
X131118678Y-126443448D01*
X131145354Y-126457184D01*
X131171070Y-126478950D01*
X131187013Y-126496738D01*
X131203128Y-126522854D01*
X131211956Y-126551825D01*
X131214613Y-126586402D01*
X131214595Y-126588586D01*
X131209439Y-126625555D01*
X131195673Y-126658884D01*
X131174078Y-126687523D01*
X131145434Y-126710420D01*
X131110520Y-126726527D01*
X131087597Y-126730998D01*
X131058313Y-126731320D01*
X131028859Y-126727145D01*
X131003511Y-126718782D01*
X130976984Y-126702858D01*
X130951656Y-126678750D01*
X130933334Y-126650435D01*
X130922026Y-126619281D01*
X130917741Y-126586656D01*
X130920487Y-126553929D01*
X130930272Y-126522469D01*
X130947103Y-126493642D01*
X130970989Y-126468817D01*
X131001937Y-126449363D01*
X131019867Y-126441801D01*
X131040172Y-126436747D01*
X131063618Y-126435362D01*
X131088286Y-126436625D01*
G37*
G36*
X131088952Y-128536701D02*
G01*
X131119095Y-128543587D01*
X131145547Y-128557292D01*
X131171070Y-128578930D01*
X131187620Y-128597490D01*
X131203386Y-128623413D01*
X131212028Y-128652272D01*
X131214661Y-128686823D01*
X131211327Y-128717285D01*
X131199261Y-128751108D01*
X131179328Y-128781031D01*
X131152512Y-128805634D01*
X131119799Y-128823497D01*
X131096505Y-128829854D01*
X131064059Y-128832095D01*
X131031282Y-128828265D01*
X131002086Y-128818527D01*
X130980362Y-128805810D01*
X130953901Y-128782157D01*
X130934603Y-128754132D01*
X130922473Y-128723101D01*
X130917519Y-128690430D01*
X130919750Y-128657487D01*
X130929171Y-128625638D01*
X130945791Y-128596250D01*
X130969616Y-128570690D01*
X131000654Y-128550324D01*
X131003812Y-128548764D01*
X131023497Y-128540438D01*
X131041475Y-128536397D01*
X131063177Y-128535339D01*
X131088952Y-128536701D01*
G37*
G36*
X131690248Y-128536955D02*
G01*
X131720757Y-128544888D01*
X131748939Y-128558955D01*
X131773584Y-128578932D01*
X131793479Y-128604596D01*
X131807414Y-128635720D01*
X131814177Y-128672082D01*
X131814371Y-128675028D01*
X131813586Y-128708069D01*
X131806279Y-128737022D01*
X131791568Y-128765528D01*
X131777848Y-128783829D01*
X131750377Y-128807609D01*
X131716056Y-128824502D01*
X131699585Y-128828964D01*
X131667324Y-128831866D01*
X131634150Y-128828707D01*
X131604204Y-128819667D01*
X131588966Y-128811410D01*
X131563520Y-128790844D01*
X131541994Y-128764976D01*
X131527032Y-128736649D01*
X131520432Y-128711712D01*
X131518122Y-128679205D01*
X131521809Y-128647326D01*
X131531358Y-128619719D01*
X131545198Y-128597153D01*
X131569171Y-128571051D01*
X131596874Y-128552204D01*
X131627096Y-128540389D01*
X131658624Y-128535380D01*
X131690248Y-128536955D01*
G37*
G36*
X133511855Y-124940980D02*
G01*
X133542733Y-124955067D01*
X133569879Y-124975672D01*
X133591988Y-125002031D01*
X133607756Y-125033377D01*
X133615877Y-125068946D01*
X133615601Y-125098719D01*
X133607173Y-125132958D01*
X133590983Y-125164509D01*
X133568118Y-125191794D01*
X133539663Y-125213239D01*
X133506705Y-125227267D01*
X133477851Y-125232339D01*
X133442722Y-125230592D01*
X133409679Y-125220749D01*
X133379932Y-125203739D01*
X133354690Y-125180490D01*
X133335162Y-125151928D01*
X133322559Y-125118982D01*
X133318089Y-125082580D01*
X133318194Y-125073778D01*
X133319899Y-125054431D01*
X133324635Y-125037229D01*
X133333616Y-125017049D01*
X133342062Y-125001403D01*
X133358620Y-124979125D01*
X133379471Y-124961734D01*
X133407351Y-124946619D01*
X133409875Y-124945487D01*
X133444121Y-124935425D01*
X133478549Y-124934178D01*
X133511855Y-124940980D01*
G37*
G36*
X136194532Y-129137775D02*
G01*
X136227902Y-129147719D01*
X136258225Y-129165231D01*
X136283825Y-129190218D01*
X136295095Y-129205739D01*
X136307172Y-129229001D01*
X136313535Y-129254208D01*
X136315391Y-129284984D01*
X136315353Y-129288701D01*
X136310102Y-129326401D01*
X136296316Y-129359716D01*
X136274441Y-129388051D01*
X136244927Y-129410810D01*
X136208220Y-129427400D01*
X136190207Y-129431376D01*
X136160318Y-129432112D01*
X136129297Y-129427243D01*
X136100926Y-129417129D01*
X136098586Y-129415958D01*
X136068742Y-129395660D01*
X136045619Y-129369644D01*
X136029462Y-129339416D01*
X136020519Y-129306482D01*
X136019034Y-129272346D01*
X136025255Y-129238514D01*
X136039427Y-129206491D01*
X136061796Y-129177782D01*
X136064059Y-129175568D01*
X136092878Y-129154298D01*
X136125345Y-129140971D01*
X136159788Y-129135495D01*
X136194532Y-129137775D01*
G37*
G36*
X131088952Y-123736047D02*
G01*
X131119095Y-123742934D01*
X131145547Y-123756639D01*
X131171070Y-123778277D01*
X131187013Y-123796065D01*
X131203128Y-123822181D01*
X131211956Y-123851152D01*
X131214613Y-123885729D01*
X131214595Y-123887913D01*
X131209439Y-123924882D01*
X131195673Y-123958211D01*
X131174078Y-123986850D01*
X131145434Y-124009747D01*
X131110520Y-124025855D01*
X131085567Y-124030510D01*
X131056390Y-124030617D01*
X131027425Y-124026454D01*
X131003015Y-124018323D01*
X130980856Y-124005330D01*
X130954327Y-123981583D01*
X130934952Y-123953496D01*
X130922744Y-123922430D01*
X130917714Y-123889746D01*
X130919873Y-123856804D01*
X130929235Y-123824965D01*
X130945812Y-123795589D01*
X130969614Y-123770038D01*
X131000654Y-123749670D01*
X131003812Y-123748110D01*
X131023497Y-123739785D01*
X131041475Y-123735744D01*
X131063177Y-123734686D01*
X131088952Y-123736047D01*
G37*
G36*
X131382350Y-125835955D02*
G01*
X131408704Y-125839704D01*
X131429542Y-125846757D01*
X131441792Y-125853723D01*
X131471054Y-125877171D01*
X131493417Y-125905796D01*
X131508346Y-125938173D01*
X131515307Y-125972874D01*
X131513767Y-126008473D01*
X131503192Y-126043542D01*
X131502323Y-126045437D01*
X131487013Y-126069739D01*
X131465703Y-126092799D01*
X131441298Y-126111903D01*
X131416704Y-126124338D01*
X131387292Y-126130996D01*
X131351221Y-126130889D01*
X131315986Y-126122574D01*
X131283714Y-126106594D01*
X131256533Y-126083490D01*
X131241862Y-126064487D01*
X131225491Y-126031292D01*
X131217740Y-125995678D01*
X131218888Y-125959271D01*
X131229211Y-125923695D01*
X131229646Y-125922709D01*
X131244974Y-125897601D01*
X131266704Y-125873964D01*
X131291941Y-125854472D01*
X131317792Y-125841801D01*
X131328033Y-125839031D01*
X131354215Y-125835675D01*
X131382350Y-125835955D01*
G37*
G36*
X132296897Y-128537891D02*
G01*
X132331937Y-128550219D01*
X132336895Y-128552788D01*
X132368601Y-128574788D01*
X132392307Y-128602315D01*
X132407823Y-128635088D01*
X132414957Y-128672825D01*
X132415370Y-128682326D01*
X132411398Y-128720046D01*
X132398780Y-128754211D01*
X132378209Y-128783760D01*
X132350374Y-128807632D01*
X132315967Y-128824766D01*
X132310453Y-128826581D01*
X132278121Y-128831960D01*
X132244137Y-128830032D01*
X132211030Y-128821408D01*
X132181332Y-128806699D01*
X132157574Y-128786517D01*
X132152495Y-128780531D01*
X132134604Y-128753817D01*
X132123947Y-128725112D01*
X132119186Y-128691094D01*
X132118441Y-128671225D01*
X132119556Y-128655517D01*
X132123347Y-128641113D01*
X132130540Y-128623697D01*
X132143274Y-128600629D01*
X132167783Y-128572170D01*
X132191760Y-128554642D01*
X132225143Y-128540325D01*
X132260743Y-128534667D01*
X132296897Y-128537891D01*
G37*
G36*
X128080757Y-126135854D02*
G01*
X128118024Y-126143790D01*
X128150620Y-126160260D01*
X128178230Y-126185072D01*
X128200539Y-126218035D01*
X128203891Y-126225160D01*
X128211739Y-126253170D01*
X128214280Y-126284641D01*
X128211436Y-126315873D01*
X128203131Y-126343166D01*
X128186352Y-126371422D01*
X128160429Y-126398502D01*
X128128878Y-126418385D01*
X128093038Y-126430013D01*
X128092769Y-126430064D01*
X128057275Y-126431987D01*
X128021802Y-126425189D01*
X127988728Y-126410416D01*
X127960433Y-126388413D01*
X127944115Y-126369909D01*
X127930694Y-126347554D01*
X127922828Y-126322153D01*
X127919192Y-126290568D01*
X127919140Y-126289621D01*
X127918451Y-126268318D01*
X127919506Y-126252839D01*
X127922861Y-126239450D01*
X127929075Y-126224415D01*
X127940994Y-126202130D01*
X127964417Y-126172816D01*
X127992901Y-126151835D01*
X128026356Y-126139248D01*
X128064690Y-126135113D01*
X128080757Y-126135854D01*
G37*
G36*
X129605014Y-126739099D02*
G01*
X129635418Y-126751132D01*
X129662530Y-126769371D01*
X129685156Y-126793195D01*
X129702103Y-126821985D01*
X129712177Y-126855121D01*
X129714184Y-126891982D01*
X129710972Y-126916303D01*
X129699009Y-126951631D01*
X129678901Y-126981695D01*
X129650900Y-127006157D01*
X129615257Y-127024680D01*
X129606034Y-127027354D01*
X129584311Y-127030123D01*
X129559123Y-127030353D01*
X129534281Y-127028093D01*
X129513598Y-127023392D01*
X129495856Y-127015382D01*
X129469687Y-126996459D01*
X129446908Y-126971514D01*
X129429868Y-126942809D01*
X129422973Y-126926223D01*
X129419011Y-126911749D01*
X129417747Y-126896182D01*
X129418455Y-126875225D01*
X129420122Y-126858500D01*
X129429570Y-126822857D01*
X129447021Y-126792466D01*
X129472830Y-126766620D01*
X129474357Y-126765427D01*
X129505990Y-126746436D01*
X129539107Y-126736131D01*
X129572513Y-126733892D01*
X129605014Y-126739099D01*
G37*
G36*
X131700626Y-126137837D02*
G01*
X131729889Y-126147377D01*
X131755594Y-126163132D01*
X131781043Y-126187741D01*
X131799749Y-126216899D01*
X131811384Y-126249111D01*
X131815621Y-126282883D01*
X131812132Y-126316721D01*
X131800587Y-126349129D01*
X131780659Y-126378614D01*
X131757362Y-126401233D01*
X131729887Y-126418387D01*
X131698206Y-126428728D01*
X131685707Y-126430858D01*
X131649028Y-126430892D01*
X131613904Y-126422146D01*
X131581870Y-126405347D01*
X131554459Y-126381221D01*
X131533206Y-126350497D01*
X131526569Y-126336375D01*
X131522503Y-126322715D01*
X131520551Y-126306431D01*
X131520007Y-126283965D01*
X131520174Y-126268596D01*
X131521622Y-126249323D01*
X131525042Y-126234221D01*
X131531024Y-126219855D01*
X131543649Y-126198805D01*
X131569561Y-126170519D01*
X131601998Y-126148600D01*
X131605466Y-126146893D01*
X131634856Y-126137629D01*
X131667762Y-126134599D01*
X131700626Y-126137837D01*
G37*
G36*
X132882180Y-128236072D02*
G01*
X132919061Y-128243870D01*
X132951421Y-128260267D01*
X132978913Y-128285053D01*
X133001193Y-128318016D01*
X133004663Y-128325435D01*
X133012410Y-128353368D01*
X133014926Y-128384726D01*
X133012130Y-128415779D01*
X133003939Y-128442798D01*
X132985803Y-128472943D01*
X132960712Y-128499304D01*
X132931125Y-128518891D01*
X132898812Y-128530230D01*
X132891062Y-128531560D01*
X132855714Y-128532114D01*
X132820478Y-128524581D01*
X132787953Y-128509748D01*
X132760742Y-128488404D01*
X132743956Y-128468976D01*
X132730972Y-128446736D01*
X132723362Y-128421445D01*
X132719814Y-128389943D01*
X132719234Y-128378200D01*
X132719124Y-128360904D01*
X132720933Y-128347629D01*
X132725355Y-128334610D01*
X132733086Y-128318083D01*
X132741166Y-128303381D01*
X132764342Y-128274058D01*
X132792893Y-128252875D01*
X132826625Y-128239952D01*
X132865343Y-128235411D01*
X132882180Y-128236072D01*
G37*
G36*
X129601854Y-131539068D02*
G01*
X129629831Y-131548336D01*
X129642813Y-131555487D01*
X129671472Y-131578150D01*
X129693089Y-131605798D01*
X129707468Y-131637007D01*
X129714414Y-131670357D01*
X129713732Y-131704426D01*
X129705226Y-131737793D01*
X129688701Y-131769034D01*
X129663962Y-131796730D01*
X129653626Y-131804987D01*
X129636267Y-131816375D01*
X129620999Y-131823824D01*
X129620325Y-131824059D01*
X129595966Y-131829376D01*
X129567093Y-131831153D01*
X129538155Y-131829379D01*
X129513598Y-131824046D01*
X129495856Y-131816036D01*
X129469687Y-131797112D01*
X129446908Y-131772167D01*
X129429868Y-131743463D01*
X129422989Y-131726927D01*
X129419022Y-131712466D01*
X129417772Y-131696951D01*
X129418514Y-131676066D01*
X129419428Y-131665585D01*
X129428199Y-131628159D01*
X129445186Y-131595993D01*
X129470264Y-131569275D01*
X129503309Y-131548191D01*
X129508382Y-131545885D01*
X129537395Y-131537839D01*
X129569797Y-131535568D01*
X129601854Y-131539068D01*
G37*
G36*
X130473647Y-127336415D02*
G01*
X130493521Y-127337060D01*
X130508044Y-127339183D01*
X130520737Y-127343540D01*
X130535124Y-127350883D01*
X130545914Y-127357455D01*
X130571992Y-127378774D01*
X130592860Y-127403899D01*
X130606276Y-127430328D01*
X130610130Y-127444808D01*
X130613549Y-127475797D01*
X130612093Y-127508073D01*
X130605784Y-127536978D01*
X130599392Y-127550948D01*
X130584006Y-127573205D01*
X130564050Y-127594568D01*
X130542206Y-127612291D01*
X130521154Y-127623630D01*
X130512978Y-127626193D01*
X130489747Y-127629889D01*
X130459700Y-127630236D01*
X130441750Y-127629251D01*
X130424303Y-127626759D01*
X130409621Y-127621992D01*
X130393771Y-127613980D01*
X130369934Y-127597450D01*
X130345691Y-127571292D01*
X130328747Y-127540939D01*
X130319310Y-127507877D01*
X130317588Y-127473593D01*
X130323789Y-127439574D01*
X130338121Y-127407308D01*
X130360792Y-127378283D01*
X130381497Y-127360197D01*
X130405963Y-127346247D01*
X130433690Y-127338678D01*
X130467458Y-127336397D01*
X130473647Y-127336415D01*
G37*
G36*
X132591019Y-130336381D02*
G01*
X132622944Y-130345634D01*
X132652526Y-130362260D01*
X132678425Y-130386269D01*
X132699298Y-130417673D01*
X132716391Y-130451167D01*
X132717989Y-130615278D01*
X132718310Y-130653505D01*
X132718435Y-130700127D01*
X132718025Y-130738760D01*
X132716920Y-130770443D01*
X132714958Y-130796217D01*
X132711978Y-130817122D01*
X132707819Y-130834199D01*
X132702318Y-130848488D01*
X132695315Y-130861030D01*
X132686649Y-130872864D01*
X132676158Y-130885033D01*
X132666540Y-130894564D01*
X132638631Y-130914533D01*
X132606508Y-130928948D01*
X132592176Y-130931599D01*
X132569725Y-130932059D01*
X132544895Y-130929926D01*
X132521400Y-130925548D01*
X132502952Y-130919272D01*
X132477178Y-130903008D01*
X132451084Y-130876970D01*
X132431247Y-130845318D01*
X132418487Y-130818458D01*
X132418487Y-130632878D01*
X132418487Y-130447299D01*
X132432062Y-130419654D01*
X132443178Y-130400377D01*
X132466705Y-130372910D01*
X132494594Y-130352767D01*
X132525503Y-130339958D01*
X132558091Y-130334493D01*
X132591019Y-130336381D01*
G37*
G36*
X128095356Y-129437789D02*
G01*
X128127063Y-129447882D01*
X128156325Y-129465069D01*
X128181801Y-129489341D01*
X128202148Y-129520690D01*
X128204515Y-129525535D01*
X128206985Y-129531324D01*
X128208964Y-129537765D01*
X128210505Y-129545870D01*
X128211664Y-129556651D01*
X128212496Y-129571123D01*
X128213054Y-129590298D01*
X128213393Y-129615188D01*
X128213567Y-129646807D01*
X128213632Y-129686167D01*
X128213642Y-129734282D01*
X128213642Y-129924745D01*
X128202136Y-129946722D01*
X128196251Y-129957203D01*
X128172488Y-129988138D01*
X128142727Y-130011554D01*
X128106201Y-130028102D01*
X128101106Y-130029535D01*
X128080212Y-130032452D01*
X128056565Y-130032388D01*
X128051613Y-130031956D01*
X128014143Y-130023611D01*
X127981406Y-130006961D01*
X127954164Y-129982507D01*
X127933176Y-129950755D01*
X127918179Y-129920743D01*
X127918183Y-129734723D01*
X127918187Y-129548702D01*
X127932183Y-129519117D01*
X127947074Y-129493998D01*
X127970893Y-129468507D01*
X127998971Y-129450148D01*
X128029969Y-129438914D01*
X128062544Y-129434797D01*
X128095356Y-129437789D01*
G37*
G36*
X130645790Y-126132580D02*
G01*
X130686355Y-126132661D01*
X130718935Y-126132870D01*
X130744636Y-126133264D01*
X130764562Y-126133897D01*
X130779817Y-126134826D01*
X130791506Y-126136105D01*
X130800734Y-126137790D01*
X130808604Y-126139937D01*
X130816222Y-126142600D01*
X130835081Y-126151435D01*
X130862743Y-126170864D01*
X130886147Y-126195077D01*
X130902541Y-126221554D01*
X130911404Y-126250074D01*
X130914653Y-126283187D01*
X130911625Y-126315887D01*
X130902328Y-126344634D01*
X130884601Y-126372601D01*
X130858229Y-126399148D01*
X130827211Y-126418637D01*
X130801990Y-126430379D01*
X130615969Y-126430427D01*
X130429949Y-126430475D01*
X130399937Y-126415478D01*
X130386465Y-126408008D01*
X130357224Y-126384784D01*
X130336044Y-126356121D01*
X130323154Y-126322391D01*
X130318782Y-126283965D01*
X130319800Y-126262768D01*
X130327165Y-126229229D01*
X130342258Y-126200267D01*
X130365800Y-126174201D01*
X130375339Y-126165791D01*
X130386269Y-126157057D01*
X130397248Y-126150005D01*
X130409356Y-126144454D01*
X130423671Y-126140225D01*
X130441275Y-126137139D01*
X130463247Y-126135016D01*
X130490667Y-126133677D01*
X130524614Y-126132943D01*
X130566168Y-126132634D01*
X130616410Y-126132571D01*
X130645790Y-126132580D01*
G37*
G36*
X133949601Y-131536362D02*
G01*
X133991197Y-131536408D01*
X134024778Y-131536550D01*
X134051377Y-131536847D01*
X134072029Y-131537352D01*
X134087766Y-131538122D01*
X134099620Y-131539213D01*
X134108626Y-131540680D01*
X134115816Y-131542580D01*
X134122224Y-131544968D01*
X134128882Y-131547900D01*
X134140924Y-131554309D01*
X134166075Y-131573492D01*
X134188023Y-131597597D01*
X134203584Y-131623407D01*
X134206535Y-131630570D01*
X134215395Y-131666396D01*
X134215276Y-131702219D01*
X134206699Y-131736567D01*
X134190186Y-131767968D01*
X134166257Y-131794949D01*
X134135433Y-131816038D01*
X134104324Y-131832142D01*
X133913376Y-131830760D01*
X133722428Y-131829379D01*
X133698841Y-131817330D01*
X133678749Y-131804625D01*
X133652398Y-131779364D01*
X133631130Y-131747797D01*
X133624489Y-131730366D01*
X133619846Y-131703137D01*
X133619412Y-131673446D01*
X133623185Y-131644841D01*
X133631165Y-131620871D01*
X133631221Y-131620757D01*
X133650001Y-131592125D01*
X133675376Y-131566770D01*
X133704184Y-131547852D01*
X133708609Y-131545684D01*
X133714427Y-131543162D01*
X133720824Y-131541141D01*
X133728820Y-131539566D01*
X133739436Y-131538382D01*
X133753693Y-131537532D01*
X133772613Y-131536961D01*
X133797215Y-131536614D01*
X133828523Y-131536435D01*
X133867555Y-131536368D01*
X133915334Y-131536358D01*
X133949601Y-131536362D01*
G37*
G36*
X134077600Y-123434544D02*
G01*
X134097020Y-123436090D01*
X134113309Y-123440230D01*
X134130999Y-123447915D01*
X134158179Y-123465089D01*
X134185256Y-123491956D01*
X134205242Y-123524090D01*
X134215680Y-123546664D01*
X134215680Y-124481888D01*
X134215680Y-125417112D01*
X134204048Y-125442850D01*
X134200324Y-125450185D01*
X134184527Y-125472779D01*
X134163877Y-125494412D01*
X134141196Y-125512378D01*
X134119309Y-125523976D01*
X134110462Y-125526666D01*
X134083704Y-125530573D01*
X134054309Y-125530298D01*
X134026184Y-125526040D01*
X134003240Y-125518002D01*
X133995392Y-125513611D01*
X133970927Y-125495902D01*
X133949664Y-125474795D01*
X133934723Y-125453240D01*
X133930366Y-125442819D01*
X133924655Y-125424164D01*
X133920305Y-125404403D01*
X133919603Y-125396798D01*
X133918952Y-125382034D01*
X133918369Y-125360020D01*
X133917852Y-125330563D01*
X133917403Y-125293470D01*
X133917018Y-125248546D01*
X133916698Y-125195598D01*
X133916443Y-125134433D01*
X133916250Y-125064857D01*
X133916120Y-124986675D01*
X133916051Y-124899694D01*
X133916043Y-124803722D01*
X133916094Y-124698563D01*
X133916205Y-124584024D01*
X133916374Y-124459912D01*
X133917775Y-123546664D01*
X133931355Y-123519016D01*
X133940338Y-123502886D01*
X133964171Y-123473542D01*
X133993548Y-123452124D01*
X134027917Y-123438975D01*
X134066728Y-123434441D01*
X134077600Y-123434544D01*
G37*
G36*
X130231957Y-126450238D02*
G01*
X130236967Y-126452838D01*
X130268381Y-126474803D01*
X130291917Y-126502512D01*
X130307422Y-126535736D01*
X130314744Y-126574244D01*
X130314048Y-126600064D01*
X130305492Y-126633689D01*
X130289370Y-126665033D01*
X130266915Y-126692324D01*
X130239361Y-126713791D01*
X130207942Y-126727659D01*
X130201126Y-126728616D01*
X130185113Y-126729674D01*
X130161605Y-126730634D01*
X130131827Y-126731462D01*
X130097003Y-126732125D01*
X130058360Y-126732589D01*
X130017122Y-126732822D01*
X129977573Y-126732906D01*
X129938865Y-126732911D01*
X129907889Y-126732762D01*
X129883541Y-126732405D01*
X129864718Y-126731785D01*
X129850315Y-126730848D01*
X129839230Y-126729539D01*
X129830359Y-126727803D01*
X129822599Y-126725587D01*
X129814846Y-126722836D01*
X129803773Y-126717962D01*
X129783136Y-126706073D01*
X129765926Y-126693004D01*
X129754662Y-126681471D01*
X129734411Y-126651812D01*
X129722281Y-126619355D01*
X129718034Y-126585548D01*
X129721428Y-126551839D01*
X129732225Y-126519678D01*
X129750184Y-126490511D01*
X129775067Y-126465788D01*
X129806633Y-126446957D01*
X129810828Y-126445119D01*
X129817423Y-126442486D01*
X129824350Y-126440375D01*
X129832657Y-126438729D01*
X129843393Y-126437489D01*
X129857605Y-126436598D01*
X129876344Y-126435998D01*
X129900656Y-126435632D01*
X129931590Y-126435441D01*
X129970195Y-126435370D01*
X130017519Y-126435359D01*
X130202180Y-126435359D01*
X130231957Y-126450238D01*
G37*
G36*
X131224440Y-123134558D02*
G01*
X131263649Y-123134650D01*
X131296726Y-123134833D01*
X131324267Y-123135116D01*
X131346867Y-123135510D01*
X131365124Y-123136026D01*
X131379634Y-123136673D01*
X131390994Y-123137461D01*
X131399800Y-123138401D01*
X131406649Y-123139503D01*
X131412138Y-123140777D01*
X131416862Y-123142233D01*
X131421419Y-123143882D01*
X131447711Y-123157182D01*
X131474218Y-123179589D01*
X131494700Y-123207550D01*
X131508497Y-123239461D01*
X131514951Y-123273721D01*
X131513402Y-123308724D01*
X131503192Y-123342869D01*
X131499210Y-123350817D01*
X131482940Y-123374145D01*
X131461803Y-123395837D01*
X131438510Y-123413370D01*
X131415772Y-123424220D01*
X131414444Y-123424598D01*
X131408812Y-123425738D01*
X131400756Y-123426739D01*
X131389712Y-123427607D01*
X131375115Y-123428350D01*
X131356400Y-123428974D01*
X131333001Y-123429485D01*
X131304354Y-123429892D01*
X131269895Y-123430201D01*
X131229057Y-123430418D01*
X131181277Y-123430550D01*
X131125989Y-123430605D01*
X131062629Y-123430589D01*
X130990631Y-123430509D01*
X130909431Y-123430373D01*
X130425947Y-123429456D01*
X130401942Y-123417641D01*
X130376608Y-123401636D01*
X130350090Y-123375801D01*
X130330146Y-123345145D01*
X130327206Y-123338455D01*
X130319856Y-123309948D01*
X130317931Y-123278148D01*
X130321428Y-123246846D01*
X130330339Y-123219834D01*
X130345760Y-123195070D01*
X130370901Y-123168084D01*
X130400105Y-123147626D01*
X130421063Y-123136435D01*
X130907782Y-123135123D01*
X130915515Y-123135102D01*
X130994338Y-123134893D01*
X131064046Y-123134724D01*
X131125234Y-123134605D01*
X131178500Y-123134547D01*
X131224440Y-123134558D01*
G37*
G36*
X133429552Y-123134456D02*
G01*
X133453542Y-123134706D01*
X133472109Y-123135235D01*
X133486307Y-123136083D01*
X133497185Y-123137294D01*
X133505797Y-123138908D01*
X133513194Y-123140969D01*
X133520428Y-123143518D01*
X133529218Y-123147222D01*
X133558247Y-123165630D01*
X133583293Y-123191067D01*
X133602188Y-123221466D01*
X133614988Y-123248760D01*
X133614988Y-123580850D01*
X133614985Y-123614378D01*
X133614959Y-123675049D01*
X133614888Y-123727052D01*
X133614754Y-123771121D01*
X133614537Y-123807991D01*
X133614217Y-123838396D01*
X133613776Y-123863072D01*
X133613195Y-123882752D01*
X133612454Y-123898172D01*
X133611534Y-123910065D01*
X133610415Y-123919167D01*
X133609080Y-123926213D01*
X133607508Y-123931936D01*
X133605680Y-123937072D01*
X133590296Y-123965481D01*
X133566709Y-123992130D01*
X133537604Y-124013618D01*
X133505105Y-124028023D01*
X133487010Y-124031887D01*
X133453932Y-124031853D01*
X133420406Y-124023876D01*
X133388636Y-124008589D01*
X133360828Y-123986623D01*
X133358966Y-123984764D01*
X133349965Y-123975687D01*
X133342369Y-123967320D01*
X133336054Y-123958789D01*
X133330893Y-123949222D01*
X133326763Y-123937745D01*
X133323537Y-123923485D01*
X133321090Y-123905570D01*
X133319298Y-123883125D01*
X133318034Y-123855280D01*
X133317174Y-123821159D01*
X133316593Y-123779891D01*
X133316165Y-123730602D01*
X133315766Y-123672419D01*
X133314133Y-123431898D01*
X133226664Y-123431898D01*
X133188983Y-123431505D01*
X133156999Y-123429977D01*
X133131634Y-123426911D01*
X133111283Y-123421906D01*
X133094341Y-123414559D01*
X133079203Y-123404468D01*
X133064263Y-123391232D01*
X133042473Y-123364896D01*
X133026504Y-123332819D01*
X133018683Y-123298841D01*
X133018823Y-123264407D01*
X133026737Y-123230968D01*
X133042238Y-123199969D01*
X133065140Y-123172860D01*
X133095255Y-123151086D01*
X133121736Y-123136435D01*
X133307780Y-123135000D01*
X133314530Y-123134948D01*
X133361098Y-123134618D01*
X133399088Y-123134440D01*
X133429552Y-123134456D01*
G37*
G36*
X135326866Y-125545343D02*
G01*
X135331563Y-125547741D01*
X135360807Y-125566517D01*
X135383134Y-125589343D01*
X135400972Y-125618621D01*
X135417064Y-125651295D01*
X135418693Y-125808745D01*
X135419068Y-125857377D01*
X135419038Y-125901193D01*
X135418477Y-125937320D01*
X135417297Y-125966830D01*
X135415412Y-125990795D01*
X135412737Y-126010290D01*
X135409185Y-126026386D01*
X135404671Y-126040156D01*
X135399107Y-126052673D01*
X135392336Y-126064176D01*
X135372330Y-126087681D01*
X135347013Y-126108028D01*
X135319391Y-126122583D01*
X135307258Y-126126623D01*
X135272693Y-126131632D01*
X135237955Y-126128143D01*
X135204717Y-126116859D01*
X135174649Y-126098483D01*
X135149425Y-126073718D01*
X135130716Y-126043267D01*
X135127712Y-126036271D01*
X135124379Y-126026654D01*
X135121962Y-126015854D01*
X135120269Y-126002155D01*
X135119107Y-125983838D01*
X135118283Y-125959189D01*
X135117604Y-125926488D01*
X135115964Y-125835173D01*
X134875820Y-125833699D01*
X134860693Y-125833605D01*
X134808133Y-125833250D01*
X134764232Y-125832879D01*
X134728112Y-125832457D01*
X134698892Y-125831947D01*
X134675694Y-125831312D01*
X134657638Y-125830516D01*
X134643844Y-125829524D01*
X134633433Y-125828297D01*
X134625525Y-125826801D01*
X134619240Y-125824998D01*
X134613699Y-125822852D01*
X134605284Y-125819001D01*
X134573631Y-125798785D01*
X134549142Y-125773503D01*
X134531825Y-125744436D01*
X134521687Y-125712869D01*
X134518736Y-125680084D01*
X134522979Y-125647364D01*
X134534425Y-125615993D01*
X134553079Y-125587253D01*
X134578951Y-125562426D01*
X134612048Y-125542797D01*
X134612535Y-125542581D01*
X134616895Y-125540951D01*
X134622470Y-125539549D01*
X134629971Y-125538359D01*
X134640112Y-125537362D01*
X134653605Y-125536542D01*
X134671163Y-125535883D01*
X134693499Y-125535366D01*
X134721325Y-125534976D01*
X134755356Y-125534695D01*
X134796302Y-125534505D01*
X134844877Y-125534391D01*
X134901794Y-125534335D01*
X134967766Y-125534320D01*
X135304740Y-125534320D01*
X135326866Y-125545343D01*
G37*
G36*
X133838431Y-127935171D02*
G01*
X133877118Y-127935365D01*
X133924507Y-127935702D01*
X133944099Y-127935851D01*
X133987810Y-127936217D01*
X134023196Y-127936608D01*
X134051291Y-127937088D01*
X134073132Y-127937720D01*
X134089754Y-127938567D01*
X134102193Y-127939692D01*
X134111485Y-127941157D01*
X134118666Y-127943025D01*
X134124771Y-127945359D01*
X134130837Y-127948223D01*
X134147491Y-127957678D01*
X134176263Y-127981808D01*
X134197646Y-128011589D01*
X134210938Y-128045894D01*
X134215434Y-128083599D01*
X134214426Y-128102912D01*
X134206819Y-128136261D01*
X134191072Y-128165708D01*
X134166373Y-128193062D01*
X134159994Y-128198772D01*
X134145777Y-128210139D01*
X134131644Y-128218658D01*
X134115953Y-128224728D01*
X134097066Y-128228752D01*
X134073342Y-128231130D01*
X134043141Y-128232263D01*
X134004822Y-128232551D01*
X133915354Y-128232551D01*
X133915431Y-128469785D01*
X133915414Y-128497922D01*
X133915230Y-128550038D01*
X133914857Y-128596832D01*
X133914310Y-128637562D01*
X133913603Y-128671487D01*
X133912749Y-128697868D01*
X133911763Y-128715963D01*
X133910657Y-128725033D01*
X133898018Y-128755773D01*
X133876803Y-128784576D01*
X133848983Y-128808004D01*
X133816037Y-128824502D01*
X133799236Y-128829021D01*
X133767115Y-128831854D01*
X133734146Y-128828727D01*
X133704528Y-128819819D01*
X133693185Y-128813926D01*
X133668249Y-128795308D01*
X133646253Y-128771637D01*
X133630367Y-128746066D01*
X133629660Y-128744529D01*
X133627722Y-128740015D01*
X133626059Y-128735121D01*
X133624648Y-128729126D01*
X133623470Y-128721308D01*
X133622504Y-128710943D01*
X133621728Y-128697311D01*
X133621122Y-128679688D01*
X133620665Y-128657353D01*
X133620335Y-128629584D01*
X133620112Y-128595658D01*
X133619975Y-128554853D01*
X133619904Y-128506448D01*
X133619876Y-128449719D01*
X133619871Y-128383945D01*
X133619871Y-128044530D01*
X133631849Y-128020189D01*
X133636170Y-128012096D01*
X133657194Y-127983681D01*
X133683778Y-127960394D01*
X133713430Y-127944546D01*
X133714634Y-127944098D01*
X133721982Y-127941547D01*
X133729524Y-127939495D01*
X133738325Y-127937898D01*
X133749448Y-127936711D01*
X133763957Y-127935889D01*
X133782914Y-127935388D01*
X133807385Y-127935164D01*
X133838431Y-127935171D01*
G37*
G36*
X134395274Y-128237592D02*
G01*
X134427202Y-128247342D01*
X134456613Y-128264300D01*
X134482149Y-128288464D01*
X134502450Y-128319836D01*
X134505707Y-128326914D01*
X134508823Y-128335772D01*
X134511132Y-128346315D01*
X134512820Y-128360160D01*
X134514075Y-128378922D01*
X134515081Y-128404219D01*
X134516026Y-128437666D01*
X134518468Y-128532897D01*
X134613699Y-128535339D01*
X134632640Y-128535851D01*
X134661961Y-128536851D01*
X134683964Y-128538035D01*
X134700256Y-128539578D01*
X134712441Y-128541654D01*
X134722123Y-128544439D01*
X134730908Y-128548107D01*
X134731669Y-128548468D01*
X134759948Y-128566928D01*
X134784623Y-128592644D01*
X134803407Y-128623245D01*
X134806688Y-128630826D01*
X134815588Y-128665261D01*
X134815685Y-128699904D01*
X134807617Y-128733400D01*
X134792024Y-128764392D01*
X134769545Y-128791525D01*
X134740821Y-128813442D01*
X134706489Y-128828788D01*
X134706292Y-128828844D01*
X134698180Y-128829683D01*
X134681537Y-128830409D01*
X134657530Y-128831003D01*
X134627322Y-128831448D01*
X134592079Y-128831726D01*
X134552964Y-128831821D01*
X134511142Y-128831714D01*
X134488769Y-128831601D01*
X134445688Y-128831351D01*
X134410869Y-128831051D01*
X134383272Y-128830641D01*
X134361858Y-128830059D01*
X134345590Y-128829243D01*
X134333429Y-128828133D01*
X134324335Y-128826665D01*
X134317271Y-128824780D01*
X134311197Y-128822414D01*
X134305076Y-128819508D01*
X134303680Y-128818809D01*
X134275410Y-128799894D01*
X134250381Y-128774633D01*
X134231857Y-128746289D01*
X134229696Y-128741823D01*
X134227237Y-128736016D01*
X134225265Y-128729558D01*
X134223725Y-128721436D01*
X134222565Y-128710637D01*
X134221730Y-128696147D01*
X134221167Y-128676955D01*
X134220822Y-128652046D01*
X134220643Y-128620409D01*
X134220574Y-128581031D01*
X134220563Y-128532897D01*
X134220568Y-128498633D01*
X134220615Y-128456645D01*
X134220758Y-128422713D01*
X134221050Y-128395825D01*
X134221543Y-128374969D01*
X134222291Y-128359133D01*
X134223346Y-128347305D01*
X134224761Y-128338474D01*
X134226590Y-128331626D01*
X134228884Y-128325751D01*
X134231697Y-128319836D01*
X134245423Y-128296945D01*
X134269559Y-128270660D01*
X134297971Y-128251582D01*
X134329300Y-128239712D01*
X134362187Y-128235048D01*
X134395274Y-128237592D01*
G37*
G36*
X131684939Y-126735348D02*
G01*
X131718378Y-126743262D01*
X131749377Y-126758764D01*
X131776487Y-126781665D01*
X131798260Y-126811780D01*
X131812911Y-126838262D01*
X131814347Y-127024306D01*
X131814449Y-127037694D01*
X131814765Y-127083002D01*
X131814928Y-127119876D01*
X131814894Y-127149370D01*
X131814620Y-127172542D01*
X131814062Y-127190446D01*
X131813175Y-127204139D01*
X131811917Y-127214676D01*
X131810242Y-127223113D01*
X131808108Y-127230506D01*
X131805470Y-127237911D01*
X131801298Y-127247641D01*
X131783084Y-127275957D01*
X131758196Y-127300856D01*
X131728955Y-127319852D01*
X131705470Y-127331513D01*
X131460065Y-127332946D01*
X131214661Y-127334378D01*
X131214661Y-127423645D01*
X131214659Y-127427662D01*
X131214387Y-127462377D01*
X131213586Y-127489002D01*
X131212152Y-127509052D01*
X131209981Y-127524042D01*
X131206968Y-127535487D01*
X131200408Y-127550568D01*
X131182229Y-127576983D01*
X131157807Y-127600326D01*
X131129394Y-127618197D01*
X131125583Y-127620022D01*
X131110241Y-127626608D01*
X131096949Y-127630088D01*
X131081785Y-127631169D01*
X131060825Y-127630558D01*
X131048118Y-127629569D01*
X131010611Y-127621338D01*
X130979008Y-127605359D01*
X130953136Y-127581524D01*
X130932824Y-127549724D01*
X130931085Y-127546159D01*
X130926780Y-127536665D01*
X130923621Y-127527546D01*
X130921397Y-127517111D01*
X130919896Y-127503670D01*
X130918905Y-127485533D01*
X130918214Y-127461009D01*
X130917610Y-127428409D01*
X130916021Y-127334842D01*
X130822378Y-127333002D01*
X130796266Y-127332406D01*
X130767537Y-127331402D01*
X130745997Y-127330065D01*
X130730154Y-127328257D01*
X130718512Y-127325844D01*
X130709577Y-127322687D01*
X130682320Y-127307115D01*
X130654398Y-127281205D01*
X130633128Y-127248469D01*
X130628660Y-127239222D01*
X130622721Y-127224970D01*
X130619735Y-127212287D01*
X130619004Y-127197406D01*
X130619833Y-127176563D01*
X130621533Y-127158888D01*
X130630872Y-127122503D01*
X130648001Y-127091904D01*
X130673202Y-127066667D01*
X130706758Y-127046369D01*
X130733619Y-127033609D01*
X131125534Y-127032222D01*
X131517449Y-127030836D01*
X131517449Y-126943278D01*
X131517845Y-126905407D01*
X131519376Y-126873452D01*
X131522444Y-126848109D01*
X131527450Y-126827776D01*
X131534797Y-126810847D01*
X131544884Y-126795720D01*
X131558114Y-126780789D01*
X131584450Y-126758999D01*
X131616527Y-126743030D01*
X131650506Y-126735209D01*
X131684939Y-126735348D01*
G37*
G36*
X132467098Y-123134076D02*
G01*
X132508650Y-123134304D01*
X132542555Y-123134871D01*
X132569847Y-123135921D01*
X132591558Y-123137600D01*
X132608721Y-123140054D01*
X132622369Y-123143427D01*
X132633536Y-123147866D01*
X132643254Y-123153516D01*
X132652557Y-123160521D01*
X132662477Y-123169029D01*
X132669356Y-123175396D01*
X132693801Y-123205227D01*
X132709540Y-123238217D01*
X132716222Y-123273391D01*
X132713491Y-123309775D01*
X132711072Y-123320185D01*
X132705951Y-123337635D01*
X132700906Y-123350388D01*
X132696813Y-123357543D01*
X132679461Y-123379862D01*
X132657285Y-123400594D01*
X132633679Y-123416405D01*
X132629767Y-123418447D01*
X132621364Y-123422430D01*
X132612887Y-123425358D01*
X132602721Y-123427428D01*
X132589251Y-123428836D01*
X132570861Y-123429776D01*
X132545936Y-123430445D01*
X132512860Y-123431039D01*
X132416769Y-123432622D01*
X132415186Y-123528712D01*
X132414933Y-123543753D01*
X132414331Y-123573196D01*
X132413572Y-123595170D01*
X132412458Y-123611288D01*
X132410795Y-123623168D01*
X132408387Y-123632425D01*
X132405038Y-123640674D01*
X132400552Y-123649531D01*
X132386580Y-123671412D01*
X132361001Y-123698167D01*
X132330605Y-123718092D01*
X132297243Y-123729751D01*
X132290449Y-123730518D01*
X132274060Y-123731385D01*
X132250201Y-123732106D01*
X132220160Y-123732661D01*
X132185223Y-123733026D01*
X132146679Y-123733178D01*
X132105813Y-123733096D01*
X131934766Y-123732244D01*
X131902094Y-123716151D01*
X131886036Y-123707291D01*
X131856598Y-123683965D01*
X131835457Y-123655490D01*
X131822641Y-123621909D01*
X131818174Y-123583263D01*
X131818245Y-123571686D01*
X131819742Y-123552593D01*
X131823829Y-123536528D01*
X131831435Y-123518992D01*
X131848650Y-123491719D01*
X131875461Y-123464722D01*
X131907545Y-123444778D01*
X131912907Y-123442433D01*
X131921990Y-123439309D01*
X131932678Y-123437013D01*
X131946604Y-123435377D01*
X131965399Y-123434233D01*
X131990697Y-123433412D01*
X132024130Y-123432745D01*
X132118141Y-123431151D01*
X132118145Y-123339955D01*
X132118149Y-123325737D01*
X132118254Y-123297234D01*
X132118657Y-123276057D01*
X132119559Y-123260473D01*
X132121162Y-123248753D01*
X132123670Y-123239165D01*
X132127282Y-123229977D01*
X132132202Y-123219458D01*
X132133120Y-123217566D01*
X132151734Y-123187502D01*
X132175310Y-123164552D01*
X132206047Y-123146547D01*
X132232907Y-123134089D01*
X132413954Y-123134041D01*
X132416866Y-123134040D01*
X132467098Y-123134076D01*
G37*
G36*
X130365574Y-131236055D02*
G01*
X130407469Y-131236282D01*
X130441657Y-131236842D01*
X130469176Y-131237882D01*
X130491068Y-131239551D01*
X130508373Y-131241997D01*
X130522130Y-131245367D01*
X130533381Y-131249809D01*
X130543166Y-131255471D01*
X130552524Y-131262502D01*
X130562496Y-131271048D01*
X130571316Y-131279532D01*
X130586485Y-131296850D01*
X130598174Y-131313413D01*
X130601349Y-131318918D01*
X130605080Y-131326364D01*
X130607839Y-131334353D01*
X130609824Y-131344422D01*
X130611231Y-131358109D01*
X130612260Y-131376950D01*
X130613106Y-131402482D01*
X130613969Y-131436243D01*
X130614456Y-131461392D01*
X130614885Y-131504802D01*
X130614938Y-131550786D01*
X130614616Y-131595233D01*
X130613921Y-131634032D01*
X130613918Y-131634137D01*
X130612865Y-131670548D01*
X130611513Y-131698803D01*
X130609435Y-131720509D01*
X130606200Y-131737272D01*
X130601383Y-131750701D01*
X130594553Y-131762400D01*
X130585284Y-131773977D01*
X130573147Y-131787038D01*
X130563431Y-131796615D01*
X130538409Y-131815506D01*
X130511443Y-131827258D01*
X130511380Y-131827276D01*
X130503622Y-131828135D01*
X130487295Y-131828946D01*
X130463570Y-131829684D01*
X130433621Y-131830323D01*
X130398620Y-131830840D01*
X130359741Y-131831207D01*
X130318155Y-131831401D01*
X130295528Y-131831451D01*
X130248206Y-131831477D01*
X130209187Y-131831233D01*
X130177443Y-131830544D01*
X130151943Y-131829238D01*
X130131657Y-131827140D01*
X130115555Y-131824078D01*
X130102607Y-131819878D01*
X130091782Y-131814367D01*
X130082052Y-131807370D01*
X130072385Y-131798716D01*
X130061751Y-131788230D01*
X130057924Y-131784395D01*
X130048061Y-131774168D01*
X130039980Y-131764543D01*
X130033505Y-131754483D01*
X130028457Y-131742951D01*
X130024658Y-131728911D01*
X130021932Y-131711325D01*
X130020100Y-131689156D01*
X130018985Y-131661368D01*
X130018408Y-131626923D01*
X130018192Y-131584785D01*
X130018160Y-131533916D01*
X130018162Y-131515415D01*
X130018237Y-131467659D01*
X130018556Y-131428277D01*
X130019298Y-131396233D01*
X130020639Y-131370490D01*
X130022758Y-131350011D01*
X130025832Y-131333758D01*
X130030039Y-131320695D01*
X130035556Y-131309785D01*
X130042563Y-131299991D01*
X130051235Y-131290276D01*
X130061751Y-131279603D01*
X130065586Y-131275776D01*
X130075813Y-131265913D01*
X130085438Y-131257832D01*
X130095498Y-131251357D01*
X130107030Y-131246309D01*
X130121070Y-131242511D01*
X130138656Y-131239784D01*
X130160825Y-131237952D01*
X130188613Y-131236837D01*
X130223058Y-131236260D01*
X130265196Y-131236045D01*
X130316064Y-131236012D01*
X130365574Y-131236055D01*
G37*
G36*
X132882041Y-130936731D02*
G01*
X132918928Y-130944492D01*
X132951306Y-130960865D01*
X132978863Y-130985661D01*
X133001287Y-131018689D01*
X133003395Y-131022692D01*
X133007340Y-131030975D01*
X133010241Y-131039384D01*
X133012292Y-131049526D01*
X133013688Y-131063008D01*
X133014622Y-131081437D01*
X133015289Y-131106418D01*
X133015883Y-131139560D01*
X133017470Y-131236012D01*
X133106582Y-131236012D01*
X133131597Y-131236110D01*
X133164910Y-131236863D01*
X133191075Y-131238725D01*
X133211704Y-131242123D01*
X133228405Y-131247483D01*
X133242790Y-131255232D01*
X133256468Y-131265796D01*
X133271050Y-131279603D01*
X133287601Y-131298163D01*
X133303366Y-131324086D01*
X133312009Y-131352945D01*
X133314641Y-131387496D01*
X133314631Y-131390251D01*
X133313286Y-131411415D01*
X133308767Y-131429434D01*
X133299762Y-131449809D01*
X133284242Y-131475301D01*
X133258952Y-131501629D01*
X133226983Y-131521191D01*
X133222229Y-131523279D01*
X133213181Y-131526427D01*
X133202519Y-131528746D01*
X133188612Y-131530401D01*
X133169830Y-131531562D01*
X133144542Y-131532394D01*
X133111117Y-131533064D01*
X133017475Y-131534654D01*
X133015885Y-131628296D01*
X133015535Y-131647329D01*
X133014799Y-131676188D01*
X133013812Y-131697785D01*
X133012407Y-131713751D01*
X133010416Y-131725715D01*
X133007674Y-131735309D01*
X133004012Y-131744163D01*
X132989491Y-131769439D01*
X132964789Y-131796176D01*
X132932630Y-131816941D01*
X132902853Y-131831821D01*
X132716391Y-131831821D01*
X132529930Y-131831821D01*
X132499537Y-131816633D01*
X132488343Y-131810370D01*
X132461406Y-131789335D01*
X132439501Y-131763499D01*
X132424993Y-131735438D01*
X132423855Y-131731345D01*
X132422273Y-131721368D01*
X132421006Y-131706574D01*
X132420029Y-131686138D01*
X132419315Y-131659235D01*
X132418837Y-131625039D01*
X132418570Y-131582728D01*
X132418487Y-131531475D01*
X132418489Y-131508737D01*
X132418527Y-131465333D01*
X132418654Y-131430204D01*
X132418925Y-131402323D01*
X132419393Y-131380665D01*
X132420112Y-131364203D01*
X132421135Y-131351911D01*
X132422517Y-131342762D01*
X132424310Y-131335732D01*
X132426569Y-131329792D01*
X132429348Y-131323918D01*
X132442892Y-131300408D01*
X132466004Y-131273471D01*
X132494889Y-131252941D01*
X132501410Y-131249374D01*
X132509696Y-131245326D01*
X132518137Y-131242357D01*
X132528334Y-131240246D01*
X132541889Y-131238775D01*
X132560403Y-131237725D01*
X132585479Y-131236877D01*
X132618718Y-131236012D01*
X132716391Y-131233570D01*
X132718833Y-131135897D01*
X132719446Y-131111840D01*
X132720276Y-131084449D01*
X132721242Y-131064106D01*
X132722561Y-131049211D01*
X132724454Y-131038161D01*
X132727139Y-131029355D01*
X132730835Y-131021191D01*
X132735762Y-131012069D01*
X132740094Y-131004674D01*
X132763631Y-130975207D01*
X132792586Y-130953816D01*
X132826608Y-130940706D01*
X132865343Y-130936084D01*
X132882041Y-130936731D01*
G37*
G36*
X135598705Y-126438132D02*
G01*
X135633537Y-126450356D01*
X135660862Y-126467470D01*
X135684684Y-126491592D01*
X135704107Y-126523265D01*
X135705641Y-126526419D01*
X135708124Y-126532162D01*
X135710122Y-126538511D01*
X135711688Y-126546484D01*
X135712874Y-126557098D01*
X135713733Y-126571372D01*
X135714318Y-126590323D01*
X135714682Y-126614970D01*
X135714876Y-126646330D01*
X135714954Y-126685422D01*
X135714968Y-126733263D01*
X135714968Y-126921284D01*
X135701342Y-126949031D01*
X135688509Y-126970695D01*
X135664642Y-126996587D01*
X135633031Y-127017707D01*
X135625346Y-127021460D01*
X135617078Y-127024363D01*
X135606815Y-127026516D01*
X135593005Y-127028096D01*
X135574091Y-127029280D01*
X135548520Y-127030245D01*
X135514738Y-127031167D01*
X135500729Y-127031478D01*
X135467851Y-127032006D01*
X135428751Y-127032421D01*
X135384273Y-127032728D01*
X135335256Y-127032932D01*
X135282543Y-127033038D01*
X135226974Y-127033051D01*
X135169392Y-127032975D01*
X135110638Y-127032816D01*
X135051553Y-127032577D01*
X134992979Y-127032264D01*
X134935757Y-127031882D01*
X134880730Y-127031435D01*
X134828737Y-127030928D01*
X134780622Y-127030365D01*
X134737225Y-127029753D01*
X134699387Y-127029094D01*
X134667952Y-127028395D01*
X134643758Y-127027659D01*
X134627650Y-127026893D01*
X134620467Y-127026099D01*
X134609528Y-127021729D01*
X134585250Y-127007726D01*
X134562610Y-126989664D01*
X134545585Y-126970495D01*
X134543808Y-126967859D01*
X134526720Y-126933894D01*
X134518635Y-126898594D01*
X134519217Y-126863293D01*
X134528129Y-126829322D01*
X134545036Y-126798013D01*
X134569601Y-126770699D01*
X134601490Y-126748713D01*
X134605493Y-126746605D01*
X134613776Y-126742660D01*
X134622185Y-126739759D01*
X134632328Y-126737708D01*
X134645810Y-126736312D01*
X134664238Y-126735378D01*
X134689220Y-126734711D01*
X134722361Y-126734117D01*
X134818814Y-126732530D01*
X134818861Y-126641327D01*
X134818864Y-126636901D01*
X134818961Y-126605741D01*
X134819317Y-126582420D01*
X134820116Y-126565220D01*
X134821538Y-126552423D01*
X134823766Y-126542310D01*
X134826982Y-126533163D01*
X134831367Y-126523265D01*
X134832260Y-126521363D01*
X134850479Y-126491074D01*
X134873762Y-126467826D01*
X134904278Y-126449420D01*
X134924045Y-126441597D01*
X134959556Y-126435040D01*
X134994761Y-126437234D01*
X135028232Y-126447654D01*
X135058545Y-126465775D01*
X135084274Y-126491071D01*
X135103993Y-126523017D01*
X135106141Y-126527918D01*
X135109268Y-126536959D01*
X135111571Y-126547639D01*
X135113217Y-126561582D01*
X135114371Y-126580414D01*
X135115200Y-126605762D01*
X135115870Y-126639252D01*
X135117465Y-126733263D01*
X135268485Y-126733263D01*
X135419506Y-126733263D01*
X135419506Y-126643785D01*
X135419521Y-126633460D01*
X135419990Y-126597343D01*
X135421385Y-126568958D01*
X135424073Y-126546681D01*
X135428421Y-126528892D01*
X135434794Y-126513966D01*
X135443559Y-126500282D01*
X135455082Y-126486216D01*
X135464324Y-126476593D01*
X135493963Y-126454520D01*
X135527311Y-126440537D01*
X135562760Y-126434967D01*
X135598705Y-126438132D01*
G37*
G36*
X130022953Y-127033610D02*
G01*
X130068492Y-127033669D01*
X130105536Y-127033850D01*
X130135154Y-127034199D01*
X130158415Y-127034763D01*
X130176388Y-127035587D01*
X130190142Y-127036719D01*
X130200746Y-127038204D01*
X130209270Y-127040088D01*
X130216782Y-127042419D01*
X130226333Y-127046236D01*
X130255475Y-127064019D01*
X130280804Y-127088677D01*
X130299918Y-127118026D01*
X130305757Y-127130798D01*
X130310674Y-127146002D01*
X130312986Y-127162698D01*
X130313528Y-127185003D01*
X130313207Y-127201667D01*
X130311459Y-127219211D01*
X130307489Y-127233552D01*
X130300520Y-127248491D01*
X130284198Y-127273493D01*
X130257334Y-127300599D01*
X130225716Y-127320284D01*
X130219259Y-127323110D01*
X130209885Y-127326406D01*
X130199238Y-127328800D01*
X130185619Y-127330479D01*
X130167330Y-127331631D01*
X130142671Y-127332446D01*
X130109943Y-127333112D01*
X130018588Y-127334710D01*
X130017153Y-127574967D01*
X130015718Y-127815224D01*
X129999626Y-127847902D01*
X129989832Y-127865306D01*
X129965575Y-127894560D01*
X129935150Y-127916241D01*
X129898510Y-127930389D01*
X129896720Y-127930820D01*
X129876305Y-127932762D01*
X129851556Y-127931405D01*
X129826682Y-127927193D01*
X129805888Y-127920574D01*
X129805778Y-127920525D01*
X129776434Y-127902618D01*
X129750808Y-127877471D01*
X129731389Y-127847525D01*
X129729622Y-127843901D01*
X129725347Y-127834455D01*
X129722209Y-127825352D01*
X129719999Y-127814906D01*
X129718505Y-127801432D01*
X129717517Y-127783247D01*
X129716826Y-127758664D01*
X129716221Y-127726000D01*
X129714629Y-127632119D01*
X129469596Y-127630768D01*
X129458652Y-127630708D01*
X129405170Y-127630401D01*
X129360424Y-127630098D01*
X129323545Y-127629757D01*
X129293663Y-127629338D01*
X129269907Y-127628802D01*
X129251408Y-127628107D01*
X129237296Y-127627213D01*
X129226701Y-127626080D01*
X129218754Y-127624667D01*
X129212584Y-127622935D01*
X129207322Y-127620842D01*
X129202098Y-127618348D01*
X129177016Y-127602589D01*
X129150157Y-127576155D01*
X129129882Y-127543953D01*
X129117122Y-127517093D01*
X129117122Y-127333955D01*
X129117122Y-127150817D01*
X129129771Y-127123957D01*
X129138640Y-127106665D01*
X129154787Y-127083299D01*
X129174376Y-127065445D01*
X129199959Y-127050428D01*
X129209630Y-127045837D01*
X129227277Y-127039150D01*
X129244522Y-127035986D01*
X129266411Y-127035189D01*
X129281022Y-127035460D01*
X129298541Y-127037457D01*
X129314534Y-127042409D01*
X129333864Y-127051492D01*
X129340442Y-127054979D01*
X129364958Y-127071556D01*
X129383878Y-127091713D01*
X129388570Y-127098164D01*
X129398872Y-127115074D01*
X129406509Y-127133252D01*
X129411834Y-127154390D01*
X129415200Y-127180178D01*
X129416960Y-127212309D01*
X129417468Y-127252474D01*
X129417468Y-127333955D01*
X129565971Y-127333955D01*
X129714473Y-127333955D01*
X129716144Y-127239944D01*
X129716369Y-127227456D01*
X129717004Y-127197793D01*
X129717793Y-127175623D01*
X129718946Y-127159259D01*
X129720676Y-127147018D01*
X129723194Y-127137215D01*
X129726711Y-127128166D01*
X129731440Y-127118186D01*
X129731822Y-127117412D01*
X129750435Y-127088523D01*
X129775284Y-127065315D01*
X129807939Y-127046312D01*
X129835022Y-127033609D01*
X130013276Y-127033609D01*
X130022953Y-127033610D01*
G37*
G36*
X132288673Y-127035842D02*
G01*
X132321720Y-127044583D01*
X132352296Y-127061017D01*
X132379031Y-127084983D01*
X132400552Y-127116321D01*
X132413603Y-127141050D01*
X132414957Y-127472942D01*
X132415126Y-127513609D01*
X132415379Y-127576685D01*
X132415521Y-127631135D01*
X132415485Y-127677683D01*
X132415201Y-127717052D01*
X132414601Y-127749966D01*
X132413618Y-127777148D01*
X132412184Y-127799322D01*
X132410229Y-127817212D01*
X132407685Y-127831540D01*
X132404485Y-127843030D01*
X132400560Y-127852407D01*
X132395841Y-127860392D01*
X132390261Y-127867711D01*
X132383751Y-127875085D01*
X132376243Y-127883240D01*
X132369598Y-127890344D01*
X132355159Y-127904044D01*
X132340625Y-127914427D01*
X132324387Y-127921984D01*
X132304832Y-127927202D01*
X132280350Y-127930573D01*
X132249329Y-127932585D01*
X132210160Y-127933730D01*
X132119041Y-127935548D01*
X132117223Y-128026666D01*
X132116733Y-128049363D01*
X132115918Y-128076543D01*
X132114837Y-128096827D01*
X132113293Y-128111942D01*
X132111090Y-128123612D01*
X132108031Y-128133564D01*
X132103920Y-128143523D01*
X132099871Y-128151573D01*
X132083564Y-128174893D01*
X132062424Y-128196552D01*
X132039157Y-128214038D01*
X132016464Y-128224837D01*
X132008339Y-128227137D01*
X131969769Y-128232515D01*
X131932855Y-128228573D01*
X131898487Y-128215496D01*
X131867551Y-128193473D01*
X131859328Y-128185761D01*
X131845683Y-128171283D01*
X131835360Y-128156722D01*
X131827864Y-128140465D01*
X131822701Y-128120899D01*
X131819376Y-128096411D01*
X131817395Y-128065387D01*
X131816263Y-128026216D01*
X131814438Y-127934647D01*
X131666324Y-127934647D01*
X131518210Y-127934647D01*
X131516566Y-128026216D01*
X131516067Y-128051432D01*
X131515305Y-128077984D01*
X131514256Y-128097766D01*
X131512728Y-128112494D01*
X131510527Y-128123885D01*
X131507460Y-128133655D01*
X131503332Y-128143523D01*
X131502593Y-128145125D01*
X131486819Y-128170136D01*
X131464934Y-128193615D01*
X131439803Y-128212923D01*
X131414295Y-128225424D01*
X131408628Y-128227175D01*
X131372959Y-128232616D01*
X131337506Y-128229192D01*
X131303754Y-128217578D01*
X131273186Y-128198450D01*
X131247287Y-128172485D01*
X131227541Y-128140359D01*
X131226896Y-128138955D01*
X131224326Y-128132853D01*
X131222250Y-128126324D01*
X131220614Y-128118328D01*
X131219368Y-128107830D01*
X131218457Y-128093791D01*
X131217829Y-128075172D01*
X131217432Y-128050938D01*
X131217214Y-128020049D01*
X131217122Y-127981469D01*
X131217103Y-127934159D01*
X131217103Y-127750532D01*
X131234195Y-127717019D01*
X131235160Y-127715156D01*
X131256829Y-127683292D01*
X131284329Y-127658258D01*
X131316368Y-127641245D01*
X131316691Y-127641129D01*
X131321964Y-127639880D01*
X131330518Y-127638775D01*
X131342942Y-127637803D01*
X131359826Y-127636951D01*
X131381760Y-127636209D01*
X131409333Y-127635563D01*
X131443136Y-127635003D01*
X131483757Y-127634517D01*
X131531787Y-127634093D01*
X131587816Y-127633719D01*
X131652432Y-127633383D01*
X131726226Y-127633074D01*
X132118141Y-127631581D01*
X132118141Y-127393290D01*
X132118149Y-127342545D01*
X132118236Y-127292682D01*
X132118503Y-127250945D01*
X132119051Y-127216457D01*
X132119979Y-127188340D01*
X132121389Y-127165718D01*
X132123380Y-127147713D01*
X132126054Y-127133448D01*
X132129511Y-127122046D01*
X132133851Y-127112629D01*
X132139175Y-127104322D01*
X132145583Y-127096245D01*
X132153176Y-127087523D01*
X132159234Y-127080994D01*
X132188438Y-127057369D01*
X132220661Y-127042075D01*
X132254530Y-127034953D01*
X132288673Y-127035842D01*
G37*
G36*
X133186846Y-124036227D02*
G01*
X133222994Y-124044148D01*
X133253619Y-124060052D01*
X133279086Y-124084161D01*
X133299762Y-124116697D01*
X133314641Y-124146474D01*
X133314641Y-124237958D01*
X133314641Y-124329441D01*
X133406210Y-124331317D01*
X133437589Y-124332027D01*
X133462318Y-124332859D01*
X133480669Y-124333993D01*
X133494371Y-124335641D01*
X133505151Y-124338012D01*
X133514739Y-124341317D01*
X133524862Y-124345767D01*
X133548001Y-124358282D01*
X133577401Y-124381883D01*
X133598326Y-124410329D01*
X133610796Y-124443652D01*
X133614836Y-124481888D01*
X133613259Y-124504811D01*
X133603686Y-124541352D01*
X133585827Y-124573145D01*
X133560140Y-124599472D01*
X133527081Y-124619618D01*
X133526223Y-124620012D01*
X133520603Y-124622489D01*
X133514906Y-124624562D01*
X133508250Y-124626273D01*
X133499755Y-124627663D01*
X133488539Y-124628775D01*
X133473723Y-124629648D01*
X133454425Y-124630326D01*
X133429763Y-124630850D01*
X133398859Y-124631261D01*
X133360829Y-124631601D01*
X133314794Y-124631911D01*
X133259873Y-124632234D01*
X133017083Y-124633628D01*
X133015689Y-124876418D01*
X133015426Y-124921000D01*
X133015103Y-124968876D01*
X133014753Y-125008558D01*
X133014338Y-125040922D01*
X133013818Y-125066843D01*
X133013154Y-125087196D01*
X133012310Y-125102857D01*
X133011245Y-125114702D01*
X133009921Y-125123607D01*
X133008300Y-125130446D01*
X133006343Y-125136096D01*
X133004012Y-125141432D01*
X132986243Y-125171010D01*
X132961085Y-125197620D01*
X132931362Y-125217417D01*
X132898812Y-125228954D01*
X132878241Y-125231641D01*
X132842365Y-125229263D01*
X132808010Y-125218649D01*
X132776928Y-125200666D01*
X132750868Y-125176183D01*
X132731584Y-125146068D01*
X132729559Y-125141512D01*
X132726376Y-125132446D01*
X132723984Y-125121636D01*
X132722208Y-125107476D01*
X132720874Y-125088364D01*
X132719807Y-125062693D01*
X132718833Y-125028860D01*
X132716391Y-124933628D01*
X132566218Y-124932337D01*
X132416045Y-124931045D01*
X132416045Y-125018839D01*
X132416036Y-125029673D01*
X132415831Y-125059521D01*
X132415231Y-125081990D01*
X132414069Y-125098907D01*
X132412181Y-125112104D01*
X132409401Y-125123408D01*
X132405562Y-125134650D01*
X132391522Y-125163164D01*
X132368311Y-125191532D01*
X132339164Y-125212714D01*
X132305089Y-125226011D01*
X132267093Y-125230724D01*
X132249798Y-125229886D01*
X132213620Y-125221487D01*
X132181461Y-125204427D01*
X132154016Y-125179142D01*
X132131981Y-125146068D01*
X132120583Y-125124091D01*
X132119262Y-124789899D01*
X132119135Y-124758221D01*
X132118885Y-124694300D01*
X132118732Y-124639102D01*
X132118736Y-124591905D01*
X132118957Y-124551987D01*
X132119457Y-124518627D01*
X132120296Y-124491103D01*
X132121533Y-124468694D01*
X132123231Y-124450678D01*
X132125449Y-124436334D01*
X132128247Y-124424940D01*
X132131687Y-124415774D01*
X132135829Y-124408116D01*
X132140734Y-124401243D01*
X132146462Y-124394434D01*
X132153073Y-124386967D01*
X132176378Y-124364680D01*
X132206963Y-124346305D01*
X132242351Y-124335755D01*
X132247255Y-124335131D01*
X132263941Y-124334055D01*
X132290231Y-124333119D01*
X132326017Y-124332323D01*
X132371193Y-124331668D01*
X132425652Y-124331157D01*
X132489287Y-124330789D01*
X132561992Y-124330568D01*
X132643660Y-124330494D01*
X133015990Y-124330494D01*
X133017586Y-124236483D01*
X133017781Y-124225213D01*
X133018392Y-124195259D01*
X133019148Y-124172916D01*
X133020253Y-124156548D01*
X133021907Y-124144516D01*
X133024313Y-124135182D01*
X133027673Y-124126907D01*
X133032189Y-124118054D01*
X133046086Y-124096457D01*
X133072829Y-124068212D01*
X133104643Y-124046622D01*
X133111566Y-124043263D01*
X133125935Y-124038331D01*
X133142770Y-124035866D01*
X133165689Y-124035189D01*
X133186846Y-124036227D01*
G37*
G36*
X133190103Y-126134636D02*
G01*
X133221804Y-126144656D01*
X133251885Y-126161781D01*
X133277999Y-126184568D01*
X133297798Y-126211571D01*
X133301286Y-126217949D01*
X133305326Y-126226218D01*
X133308292Y-126234649D01*
X133310402Y-126244841D01*
X133311874Y-126258397D01*
X133312926Y-126276915D01*
X133313776Y-126301997D01*
X133314641Y-126335243D01*
X133317083Y-126432917D01*
X133412315Y-126435359D01*
X133435525Y-126436018D01*
X133465661Y-126437207D01*
X133488340Y-126438674D01*
X133504984Y-126440555D01*
X133517016Y-126442985D01*
X133525859Y-126446097D01*
X133539719Y-126453197D01*
X133569045Y-126475047D01*
X133591428Y-126502020D01*
X133606634Y-126532715D01*
X133614430Y-126565732D01*
X133614586Y-126599670D01*
X133606867Y-126633128D01*
X133591041Y-126664707D01*
X133566875Y-126693004D01*
X133553948Y-126704053D01*
X133538105Y-126714638D01*
X133520667Y-126722405D01*
X133500005Y-126727753D01*
X133474493Y-126731079D01*
X133442503Y-126732783D01*
X133402408Y-126733263D01*
X133314728Y-126733263D01*
X133314733Y-127271688D01*
X133314733Y-127280129D01*
X133314686Y-127352483D01*
X133314566Y-127422054D01*
X133314378Y-127488209D01*
X133314125Y-127550311D01*
X133313815Y-127607726D01*
X133313450Y-127659819D01*
X133313037Y-127705955D01*
X133312581Y-127745498D01*
X133312085Y-127777815D01*
X133311556Y-127802269D01*
X133310998Y-127818225D01*
X133310416Y-127825050D01*
X133306412Y-127836842D01*
X133289055Y-127868664D01*
X133264362Y-127895603D01*
X133233773Y-127916314D01*
X133198730Y-127929448D01*
X133191644Y-127930313D01*
X133175277Y-127931221D01*
X133151461Y-127931980D01*
X133121453Y-127932566D01*
X133086511Y-127932955D01*
X133047891Y-127933125D01*
X133006852Y-127933051D01*
X132833363Y-127932205D01*
X132800792Y-127916163D01*
X132794653Y-127913017D01*
X132766706Y-127894199D01*
X132745155Y-127870268D01*
X132727926Y-127839028D01*
X132723926Y-127829060D01*
X132720381Y-127815125D01*
X132719181Y-127798770D01*
X132719860Y-127776373D01*
X132721586Y-127758483D01*
X132730894Y-127722297D01*
X132747920Y-127691971D01*
X132772962Y-127667060D01*
X132806317Y-127647122D01*
X132806597Y-127646991D01*
X132816691Y-127642515D01*
X132826188Y-127639199D01*
X132836815Y-127636832D01*
X132850299Y-127635203D01*
X132868367Y-127634104D01*
X132892748Y-127633323D01*
X132925168Y-127632650D01*
X133016737Y-127630944D01*
X133016737Y-127482899D01*
X133016737Y-127334854D01*
X132922726Y-127333183D01*
X132896205Y-127332663D01*
X132869478Y-127331903D01*
X132849639Y-127330879D01*
X132835066Y-127329418D01*
X132824140Y-127327343D01*
X132815238Y-127324479D01*
X132806739Y-127320652D01*
X132776751Y-127302514D01*
X132752258Y-127279039D01*
X132733622Y-127249512D01*
X132718669Y-127219137D01*
X132718737Y-126976200D01*
X132718806Y-126733263D01*
X132330750Y-126733263D01*
X132262556Y-126733257D01*
X132200564Y-126733228D01*
X132147012Y-126733159D01*
X132101224Y-126733036D01*
X132062523Y-126732841D01*
X132030233Y-126732560D01*
X132003678Y-126732175D01*
X131982180Y-126731670D01*
X131965063Y-126731031D01*
X131951652Y-126730240D01*
X131941268Y-126729282D01*
X131933236Y-126728140D01*
X131926879Y-126726800D01*
X131921521Y-126725244D01*
X131916485Y-126723456D01*
X131913780Y-126722417D01*
X131880127Y-126704152D01*
X131852808Y-126678851D01*
X131832676Y-126647514D01*
X131820585Y-126611140D01*
X131817862Y-126581194D01*
X131822553Y-126546148D01*
X131835034Y-126513256D01*
X131854507Y-126484513D01*
X131880176Y-126461915D01*
X131882804Y-126460155D01*
X131888566Y-126456240D01*
X131893985Y-126452756D01*
X131899623Y-126449679D01*
X131906042Y-126446982D01*
X131913804Y-126444642D01*
X131923469Y-126442633D01*
X131935601Y-126440929D01*
X131950759Y-126439507D01*
X131969507Y-126438341D01*
X131992405Y-126437405D01*
X132020016Y-126436675D01*
X132052901Y-126436125D01*
X132091621Y-126435731D01*
X132136739Y-126435468D01*
X132188816Y-126435310D01*
X132248413Y-126435232D01*
X132316093Y-126435210D01*
X132392417Y-126435217D01*
X132477946Y-126435230D01*
X133016737Y-126435272D01*
X133016737Y-126347592D01*
X133016744Y-126338559D01*
X133016939Y-126308202D01*
X133017528Y-126285311D01*
X133018677Y-126268047D01*
X133020550Y-126254574D01*
X133023312Y-126243053D01*
X133027127Y-126231648D01*
X133029140Y-126226523D01*
X133046771Y-126196181D01*
X133071522Y-126170301D01*
X133101497Y-126150202D01*
X133134800Y-126137201D01*
X133169535Y-126132618D01*
X133190103Y-126134636D01*
G37*
G36*
X133194343Y-125236367D02*
G01*
X133229177Y-125248035D01*
X133231068Y-125248953D01*
X133261133Y-125267567D01*
X133284083Y-125291144D01*
X133302088Y-125321880D01*
X133302730Y-125323268D01*
X133306950Y-125332964D01*
X133310026Y-125342131D01*
X133312139Y-125352485D01*
X133313471Y-125365743D01*
X133314203Y-125383620D01*
X133314517Y-125407833D01*
X133314594Y-125440096D01*
X133314641Y-125531452D01*
X133557604Y-125532886D01*
X133800567Y-125534320D01*
X133827427Y-125547058D01*
X133838678Y-125552987D01*
X133867143Y-125573896D01*
X133890163Y-125599739D01*
X133905582Y-125628273D01*
X133906400Y-125630501D01*
X133909742Y-125641150D01*
X133912147Y-125652803D01*
X133913762Y-125667212D01*
X133914733Y-125686130D01*
X133915208Y-125711309D01*
X133915334Y-125744502D01*
X133915334Y-125834666D01*
X134005498Y-125834666D01*
X134025268Y-125834736D01*
X134060776Y-125835501D01*
X134088848Y-125837455D01*
X134111057Y-125841025D01*
X134128976Y-125846637D01*
X134144177Y-125854717D01*
X134158235Y-125865692D01*
X134172721Y-125879987D01*
X134175426Y-125882852D01*
X134185360Y-125893691D01*
X134193509Y-125903797D01*
X134200049Y-125914219D01*
X134205157Y-125926009D01*
X134209010Y-125940215D01*
X134211785Y-125957889D01*
X134213659Y-125980079D01*
X134214808Y-126007837D01*
X134215410Y-126042211D01*
X134215642Y-126084253D01*
X134215680Y-126135012D01*
X134215680Y-126315708D01*
X134202885Y-126342991D01*
X134186140Y-126371125D01*
X134160028Y-126398711D01*
X134128273Y-126418777D01*
X134101263Y-126427517D01*
X134068211Y-126430989D01*
X134035106Y-126428106D01*
X134005682Y-126418863D01*
X133977601Y-126401455D01*
X133950832Y-126374867D01*
X133930761Y-126342569D01*
X133926622Y-126333241D01*
X133923234Y-126323663D01*
X133920790Y-126312976D01*
X133919079Y-126299448D01*
X133917886Y-126281348D01*
X133916998Y-126256945D01*
X133916200Y-126224506D01*
X133914174Y-126133303D01*
X133820743Y-126131716D01*
X133820489Y-126131711D01*
X133787732Y-126131083D01*
X133763093Y-126130341D01*
X133744932Y-126129298D01*
X133731610Y-126127768D01*
X133721490Y-126125560D01*
X133712931Y-126122489D01*
X133704295Y-126118365D01*
X133701648Y-126116975D01*
X133673532Y-126097597D01*
X133648942Y-126072656D01*
X133630989Y-126045252D01*
X133627602Y-126037897D01*
X133624545Y-126029173D01*
X133622327Y-126018830D01*
X133620768Y-126005239D01*
X133619692Y-125986769D01*
X133618921Y-125961792D01*
X133618277Y-125928677D01*
X133616683Y-125834666D01*
X132940907Y-125834666D01*
X132884434Y-125834665D01*
X132792833Y-125834654D01*
X132710222Y-125834618D01*
X132636106Y-125834546D01*
X132569990Y-125834423D01*
X132511379Y-125834237D01*
X132459779Y-125833975D01*
X132414694Y-125833623D01*
X132375629Y-125833169D01*
X132342090Y-125832599D01*
X132313581Y-125831900D01*
X132289608Y-125831059D01*
X132269675Y-125830063D01*
X132253288Y-125828899D01*
X132239951Y-125827554D01*
X132229170Y-125826015D01*
X132220451Y-125824268D01*
X132213296Y-125822301D01*
X132207213Y-125820099D01*
X132201706Y-125817652D01*
X132196280Y-125814944D01*
X132168667Y-125795731D01*
X132146078Y-125769574D01*
X132129727Y-125738561D01*
X132120339Y-125704532D01*
X132118638Y-125669327D01*
X132125349Y-125634787D01*
X132126025Y-125632835D01*
X132139087Y-125607432D01*
X132158728Y-125582596D01*
X132182305Y-125561196D01*
X132207170Y-125546099D01*
X132213901Y-125543229D01*
X132223659Y-125539843D01*
X132234561Y-125537378D01*
X132248332Y-125535637D01*
X132266696Y-125534423D01*
X132291377Y-125533541D01*
X132324102Y-125532795D01*
X132415296Y-125530976D01*
X132416891Y-125439858D01*
X132416916Y-125438433D01*
X132417550Y-125406483D01*
X132418306Y-125382507D01*
X132419395Y-125364782D01*
X132421028Y-125351581D01*
X132423415Y-125341181D01*
X132426767Y-125331855D01*
X132431295Y-125321880D01*
X132448119Y-125294024D01*
X132473207Y-125267763D01*
X132502690Y-125248875D01*
X132535204Y-125237633D01*
X132569388Y-125234308D01*
X132603878Y-125239172D01*
X132637311Y-125252498D01*
X132668326Y-125274557D01*
X132678283Y-125284345D01*
X132692157Y-125302230D01*
X132702699Y-125323027D01*
X132710273Y-125348085D01*
X132715241Y-125378749D01*
X132717964Y-125416367D01*
X132718805Y-125462286D01*
X132718833Y-125531878D01*
X132867489Y-125531878D01*
X133016145Y-125531878D01*
X133017662Y-125440310D01*
X133017712Y-125437317D01*
X133018315Y-125405672D01*
X133019054Y-125381924D01*
X133020139Y-125364344D01*
X133021779Y-125351202D01*
X133024183Y-125340771D01*
X133027563Y-125331320D01*
X133032127Y-125321122D01*
X133041541Y-125303860D01*
X133064607Y-125275306D01*
X133092814Y-125253763D01*
X133124768Y-125239747D01*
X133159075Y-125233776D01*
X133194343Y-125236367D01*
G37*
G36*
X136488080Y-125536159D02*
G01*
X136520839Y-125543737D01*
X136549681Y-125559302D01*
X136576624Y-125583744D01*
X136580588Y-125588097D01*
X136589493Y-125598291D01*
X136596787Y-125607999D01*
X136602622Y-125618247D01*
X136607149Y-125630061D01*
X136610522Y-125644465D01*
X136612891Y-125662484D01*
X136614409Y-125685145D01*
X136615227Y-125713471D01*
X136615499Y-125748489D01*
X136615375Y-125791223D01*
X136615007Y-125842698D01*
X136613565Y-126027572D01*
X136599069Y-126053742D01*
X136581136Y-126079770D01*
X136553343Y-126105139D01*
X136519758Y-126122764D01*
X136518680Y-126123164D01*
X136507833Y-126126682D01*
X136496193Y-126129214D01*
X136481968Y-126130914D01*
X136463361Y-126131937D01*
X136438578Y-126132438D01*
X136405825Y-126132571D01*
X136318102Y-126132571D01*
X136318102Y-126432917D01*
X136318102Y-126733263D01*
X136402680Y-126733263D01*
X136432880Y-126733478D01*
X136465649Y-126734611D01*
X136491606Y-126737033D01*
X136512422Y-126741100D01*
X136529769Y-126747164D01*
X136545320Y-126755580D01*
X136560746Y-126766701D01*
X136568907Y-126773891D01*
X136585692Y-126792465D01*
X136598914Y-126811780D01*
X136613565Y-126838262D01*
X136615000Y-127024306D01*
X136615098Y-127037124D01*
X136615415Y-127082541D01*
X136615579Y-127119510D01*
X136615547Y-127149088D01*
X136615275Y-127172330D01*
X136614720Y-127190290D01*
X136613837Y-127204026D01*
X136612583Y-127214592D01*
X136610913Y-127223043D01*
X136608786Y-127230436D01*
X136606156Y-127237825D01*
X136603068Y-127245289D01*
X136585054Y-127274621D01*
X136560124Y-127300095D01*
X136530542Y-127319272D01*
X136521533Y-127323399D01*
X136512566Y-127326536D01*
X136502134Y-127328802D01*
X136488578Y-127330390D01*
X136470236Y-127331493D01*
X136445449Y-127332305D01*
X136412556Y-127333019D01*
X136318988Y-127334840D01*
X136317167Y-127428408D01*
X136316475Y-127460393D01*
X136315666Y-127485427D01*
X136314573Y-127503956D01*
X136313002Y-127517639D01*
X136310761Y-127528134D01*
X136307658Y-127537098D01*
X136303500Y-127546189D01*
X136288644Y-127570334D01*
X136263507Y-127597568D01*
X136234062Y-127618201D01*
X136233934Y-127618269D01*
X136226032Y-127622112D01*
X136217720Y-127625021D01*
X136207439Y-127627176D01*
X136193628Y-127628755D01*
X136174729Y-127629939D01*
X136149183Y-127630905D01*
X136115430Y-127631834D01*
X136017756Y-127634301D01*
X136017756Y-127783253D01*
X136017756Y-127932205D01*
X136112988Y-127934647D01*
X136131754Y-127935154D01*
X136161143Y-127936156D01*
X136183218Y-127937343D01*
X136199593Y-127938891D01*
X136211878Y-127940975D01*
X136221687Y-127943772D01*
X136230633Y-127947456D01*
X136239873Y-127952210D01*
X136267962Y-127973282D01*
X136291007Y-128000939D01*
X136307557Y-128033136D01*
X136316159Y-128067829D01*
X136316881Y-128089104D01*
X136310861Y-128123600D01*
X136296818Y-128156127D01*
X136275815Y-128184996D01*
X136248919Y-128208513D01*
X136217195Y-128224989D01*
X136211608Y-128226560D01*
X136201606Y-128228167D01*
X136187288Y-128229453D01*
X136167745Y-128230449D01*
X136142070Y-128231190D01*
X136109353Y-128231708D01*
X136068686Y-128232036D01*
X136019160Y-128232207D01*
X136016181Y-128232213D01*
X135965414Y-128232244D01*
X135923321Y-128232019D01*
X135888864Y-128231370D01*
X135861006Y-128230126D01*
X135838710Y-128228119D01*
X135820936Y-128225180D01*
X135806649Y-128221140D01*
X135794810Y-128215831D01*
X135784382Y-128209083D01*
X135774326Y-128200727D01*
X135763606Y-128190594D01*
X135755525Y-128182526D01*
X135743552Y-128168958D01*
X135734549Y-128155287D01*
X135728064Y-128139903D01*
X135723645Y-128121196D01*
X135720839Y-128097556D01*
X135719196Y-128067372D01*
X135718262Y-128029034D01*
X135716673Y-127935398D01*
X135625343Y-127933802D01*
X135534014Y-127932205D01*
X135501480Y-127916176D01*
X135488756Y-127909460D01*
X135464605Y-127892493D01*
X135446241Y-127871537D01*
X135430874Y-127843727D01*
X135429301Y-127840279D01*
X135426631Y-127833896D01*
X135424489Y-127827204D01*
X135422817Y-127819151D01*
X135421556Y-127808686D01*
X135420649Y-127794759D01*
X135420038Y-127776319D01*
X135419663Y-127752315D01*
X135419468Y-127721695D01*
X135419392Y-127683410D01*
X135419379Y-127636409D01*
X135419379Y-127634895D01*
X135419428Y-127584079D01*
X135419668Y-127541979D01*
X135420239Y-127507574D01*
X135421280Y-127479842D01*
X135422930Y-127457760D01*
X135425330Y-127440306D01*
X135428617Y-127426458D01*
X135432933Y-127415194D01*
X135438416Y-127405490D01*
X135445205Y-127396326D01*
X135453440Y-127386678D01*
X135461700Y-127378269D01*
X135479903Y-127363096D01*
X135498351Y-127350883D01*
X135524505Y-127336397D01*
X135769910Y-127335004D01*
X136015314Y-127333612D01*
X136015314Y-126885021D01*
X136015314Y-126436429D01*
X135926187Y-126434148D01*
X135916391Y-126433884D01*
X135883435Y-126432707D01*
X135858209Y-126431188D01*
X135839090Y-126429168D01*
X135824456Y-126426486D01*
X135812683Y-126422984D01*
X135787115Y-126409361D01*
X135762727Y-126388596D01*
X135742154Y-126363321D01*
X135727929Y-126336130D01*
X135725735Y-126330049D01*
X135723364Y-126322277D01*
X135721491Y-126313649D01*
X135720058Y-126303051D01*
X135719005Y-126289369D01*
X135718275Y-126271490D01*
X135717809Y-126248299D01*
X135717548Y-126218682D01*
X135717435Y-126181525D01*
X135717410Y-126135716D01*
X135717419Y-126114802D01*
X135717560Y-126068324D01*
X135717977Y-126030119D01*
X135718799Y-125999116D01*
X135720158Y-125974245D01*
X135722182Y-125954434D01*
X135725004Y-125938615D01*
X135728753Y-125925716D01*
X135733559Y-125914666D01*
X135739553Y-125904396D01*
X135746865Y-125893835D01*
X135752994Y-125886221D01*
X135774506Y-125866393D01*
X135800068Y-125849831D01*
X135825621Y-125839343D01*
X135829032Y-125838770D01*
X135842756Y-125837723D01*
X135865133Y-125836801D01*
X135895420Y-125836020D01*
X135932878Y-125835392D01*
X135976766Y-125834932D01*
X136026343Y-125834653D01*
X136080868Y-125834569D01*
X136318102Y-125834646D01*
X136318102Y-125746933D01*
X136318417Y-125713368D01*
X136319871Y-125680045D01*
X136322876Y-125653490D01*
X136327829Y-125632079D01*
X136335129Y-125614183D01*
X136345173Y-125598177D01*
X136358361Y-125582433D01*
X136365139Y-125575485D01*
X136394874Y-125553096D01*
X136428566Y-125539634D01*
X136466280Y-125535072D01*
X136488080Y-125536159D01*
G37*
G36*
X134030194Y-126733700D02*
G01*
X134053015Y-126733973D01*
X134070618Y-126734542D01*
X134084079Y-126735454D01*
X134094476Y-126736755D01*
X134102888Y-126738493D01*
X134110390Y-126740716D01*
X134118061Y-126743470D01*
X134121437Y-126744783D01*
X134153950Y-126762978D01*
X134181410Y-126788718D01*
X134202150Y-126820478D01*
X134203837Y-126823937D01*
X134208117Y-126833391D01*
X134211265Y-126842513D01*
X134213492Y-126852985D01*
X134215010Y-126866490D01*
X134216029Y-126884712D01*
X134216761Y-126909334D01*
X134217419Y-126942040D01*
X134219158Y-127036051D01*
X134308118Y-127036051D01*
X134327744Y-127036110D01*
X134362181Y-127036766D01*
X134389236Y-127038478D01*
X134410511Y-127041651D01*
X134427611Y-127046693D01*
X134442140Y-127054011D01*
X134455702Y-127064012D01*
X134469900Y-127077104D01*
X134473862Y-127081051D01*
X134487692Y-127096389D01*
X134498185Y-127111783D01*
X134505783Y-127128847D01*
X134510925Y-127149197D01*
X134514053Y-127174446D01*
X134515606Y-127206210D01*
X134516026Y-127246101D01*
X134516026Y-127333694D01*
X134761431Y-127335045D01*
X135006835Y-127336397D01*
X135031108Y-127348606D01*
X135053170Y-127361983D01*
X135081480Y-127388020D01*
X135102443Y-127419796D01*
X135114276Y-127443838D01*
X135115582Y-127838022D01*
X135116887Y-128232205D01*
X135359765Y-128233599D01*
X135368436Y-128233649D01*
X135422006Y-128233967D01*
X135466819Y-128234279D01*
X135503755Y-128234627D01*
X135533696Y-128235052D01*
X135557522Y-128235595D01*
X135576113Y-128236299D01*
X135590352Y-128237205D01*
X135601117Y-128238354D01*
X135609290Y-128239788D01*
X135615751Y-128241548D01*
X135621382Y-128243677D01*
X135627062Y-128246215D01*
X135633010Y-128249137D01*
X135661630Y-128268584D01*
X135686120Y-128293945D01*
X135703663Y-128322417D01*
X135706886Y-128329989D01*
X135710039Y-128339438D01*
X135712334Y-128350304D01*
X135713949Y-128364255D01*
X135715066Y-128382963D01*
X135715866Y-128408097D01*
X135716529Y-128441329D01*
X135718157Y-128535339D01*
X135807262Y-128535339D01*
X135832262Y-128535437D01*
X135865577Y-128536190D01*
X135891744Y-128538052D01*
X135912374Y-128541449D01*
X135929076Y-128546809D01*
X135943462Y-128554558D01*
X135957141Y-128565123D01*
X135971723Y-128578930D01*
X135988274Y-128597490D01*
X136004039Y-128623413D01*
X136012681Y-128652272D01*
X136015314Y-128686823D01*
X136011614Y-128719023D01*
X135999189Y-128752659D01*
X135978967Y-128782206D01*
X135951930Y-128806264D01*
X135919066Y-128823437D01*
X135916388Y-128824418D01*
X135909927Y-128826512D01*
X135902740Y-128828246D01*
X135893922Y-128829655D01*
X135882569Y-128830771D01*
X135867777Y-128831630D01*
X135848642Y-128832263D01*
X135824260Y-128832706D01*
X135793727Y-128832992D01*
X135756139Y-128833154D01*
X135710592Y-128833227D01*
X135656181Y-128833244D01*
X135419506Y-128833244D01*
X135419506Y-128984638D01*
X135419506Y-129136031D01*
X135511516Y-129136031D01*
X135603526Y-129136031D01*
X135633303Y-129150911D01*
X135651330Y-129161114D01*
X135679445Y-129184242D01*
X135699249Y-129212353D01*
X135710964Y-129245812D01*
X135714811Y-129284984D01*
X135714673Y-129296732D01*
X135713241Y-129316344D01*
X135709702Y-129331570D01*
X135703378Y-129346030D01*
X135688980Y-129368938D01*
X135663887Y-129396102D01*
X135634444Y-129416802D01*
X135602644Y-129429390D01*
X135602217Y-129429463D01*
X135594065Y-129429900D01*
X135576835Y-129430310D01*
X135551122Y-129430689D01*
X135517520Y-129431036D01*
X135476620Y-129431347D01*
X135429019Y-129431621D01*
X135375308Y-129431854D01*
X135316082Y-129432043D01*
X135251934Y-129432187D01*
X135183458Y-129432283D01*
X135111248Y-129432327D01*
X135035897Y-129432317D01*
X134957999Y-129432251D01*
X134328004Y-129431494D01*
X134303663Y-129419516D01*
X134290687Y-129412369D01*
X134262022Y-129389705D01*
X134240402Y-129362056D01*
X134226022Y-129330845D01*
X134219078Y-129297493D01*
X134219764Y-129263421D01*
X134228276Y-129230051D01*
X134244809Y-129198803D01*
X134269557Y-129171099D01*
X134274725Y-129166494D01*
X134281121Y-129160872D01*
X134287345Y-129155981D01*
X134294061Y-129151773D01*
X134301930Y-129148195D01*
X134311616Y-129145196D01*
X134323782Y-129142727D01*
X134339088Y-129140735D01*
X134358199Y-129139170D01*
X134381777Y-129137981D01*
X134410484Y-129137117D01*
X134444983Y-129136528D01*
X134485936Y-129136162D01*
X134534007Y-129135968D01*
X134589857Y-129135896D01*
X134654149Y-129135894D01*
X134727546Y-129135912D01*
X135116718Y-129135967D01*
X135116718Y-128835653D01*
X135116718Y-128535339D01*
X135041261Y-128535339D01*
X135009760Y-128535018D01*
X134972223Y-128533268D01*
X134941825Y-128529649D01*
X134917065Y-128523771D01*
X134896445Y-128515244D01*
X134878465Y-128503680D01*
X134861627Y-128488690D01*
X134854695Y-128481549D01*
X134843531Y-128468499D01*
X134835097Y-128455251D01*
X134828964Y-128440210D01*
X134824699Y-128421782D01*
X134821874Y-128398371D01*
X134820055Y-128368384D01*
X134818814Y-128330225D01*
X134816372Y-128234993D01*
X134721140Y-128232538D01*
X134689603Y-128231617D01*
X134659671Y-128230216D01*
X134636517Y-128228076D01*
X134618513Y-128224764D01*
X134604035Y-128219848D01*
X134591455Y-128212897D01*
X134579150Y-128203476D01*
X134565491Y-128191156D01*
X134560058Y-128185823D01*
X134537901Y-128156681D01*
X134524058Y-128124558D01*
X134518310Y-128090866D01*
X134520438Y-128057015D01*
X134530221Y-128024415D01*
X134547441Y-127994476D01*
X134571877Y-127968608D01*
X134603310Y-127948223D01*
X134610389Y-127944966D01*
X134619246Y-127941850D01*
X134629789Y-127939541D01*
X134643634Y-127937853D01*
X134662397Y-127936598D01*
X134687693Y-127935592D01*
X134721140Y-127934647D01*
X134816372Y-127932205D01*
X134816372Y-127783253D01*
X134816372Y-127634301D01*
X134667420Y-127634301D01*
X134518468Y-127634301D01*
X134516012Y-127729533D01*
X134515091Y-127761070D01*
X134513690Y-127791002D01*
X134511550Y-127814156D01*
X134508238Y-127832160D01*
X134503323Y-127846638D01*
X134496371Y-127859218D01*
X134486951Y-127871523D01*
X134474630Y-127885182D01*
X134464704Y-127895046D01*
X134436018Y-127915740D01*
X134403958Y-127927699D01*
X134367074Y-127931546D01*
X134352944Y-127931041D01*
X134317991Y-127924302D01*
X134287332Y-127909224D01*
X134259517Y-127885182D01*
X134248970Y-127873585D01*
X134239113Y-127861172D01*
X134231794Y-127848746D01*
X134226580Y-127834683D01*
X134223039Y-127817356D01*
X134220740Y-127795139D01*
X134219249Y-127766406D01*
X134218135Y-127729533D01*
X134215680Y-127634301D01*
X133971496Y-127631859D01*
X133923637Y-127631372D01*
X133876120Y-127630847D01*
X133836746Y-127630327D01*
X133804642Y-127629771D01*
X133778933Y-127629136D01*
X133758745Y-127628380D01*
X133743204Y-127627460D01*
X133731436Y-127626334D01*
X133722566Y-127624959D01*
X133715721Y-127623294D01*
X133710026Y-127621296D01*
X133704607Y-127618922D01*
X133702323Y-127617833D01*
X133674752Y-127599709D01*
X133650281Y-127574839D01*
X133631704Y-127546018D01*
X133619871Y-127521976D01*
X133619871Y-127182561D01*
X133619871Y-126843145D01*
X133631820Y-126819758D01*
X133647646Y-126795107D01*
X133673762Y-126767981D01*
X133704295Y-126747468D01*
X133707463Y-126745862D01*
X133713374Y-126743115D01*
X133719653Y-126740901D01*
X133727344Y-126739153D01*
X133737493Y-126737802D01*
X133751142Y-126736781D01*
X133769337Y-126736023D01*
X133793122Y-126735459D01*
X133823542Y-126735024D01*
X133861639Y-126734648D01*
X133908460Y-126734264D01*
X133919643Y-126734176D01*
X133964585Y-126733848D01*
X134001077Y-126733674D01*
X134030194Y-126733700D01*
G37*
G36*
X133317083Y-129431494D02*
G01*
X133466889Y-129432785D01*
X133616695Y-129434076D01*
X133618283Y-129337553D01*
X133619871Y-129241031D01*
X133634358Y-129214876D01*
X133640331Y-129204824D01*
X133664570Y-129174983D01*
X133693848Y-129153457D01*
X133727881Y-129140416D01*
X133766382Y-129136031D01*
X133785777Y-129136870D01*
X133817344Y-129143373D01*
X133845098Y-129157251D01*
X133871742Y-129179623D01*
X133876326Y-129184218D01*
X133886016Y-129194314D01*
X133893951Y-129203880D01*
X133900307Y-129213946D01*
X133905259Y-129225541D01*
X133908981Y-129239695D01*
X133911648Y-129257438D01*
X133913436Y-129279799D01*
X133914519Y-129307809D01*
X133915071Y-129342497D01*
X133915269Y-129384893D01*
X133915286Y-129436027D01*
X133915238Y-129617074D01*
X133902780Y-129643934D01*
X133888744Y-129668952D01*
X133865236Y-129695638D01*
X133834753Y-129716404D01*
X133830779Y-129718495D01*
X133822489Y-129722439D01*
X133814074Y-129725340D01*
X133803928Y-129727392D01*
X133790442Y-129728789D01*
X133772010Y-129729724D01*
X133747026Y-129730392D01*
X133713882Y-129730986D01*
X133617429Y-129732573D01*
X133617429Y-129883601D01*
X133617429Y-130034628D01*
X133857950Y-130034632D01*
X134098472Y-130034636D01*
X134127774Y-130048703D01*
X134156472Y-130065996D01*
X134184273Y-130092559D01*
X134204450Y-130124976D01*
X134206864Y-130130389D01*
X134209427Y-130137162D01*
X134211464Y-130144780D01*
X134213047Y-130154358D01*
X134214254Y-130167011D01*
X134215158Y-130183854D01*
X134215835Y-130206003D01*
X134216359Y-130234574D01*
X134216805Y-130270681D01*
X134217248Y-130315439D01*
X134217439Y-130338784D01*
X134217586Y-130392213D01*
X134217236Y-130436028D01*
X134216389Y-130470328D01*
X134215040Y-130495214D01*
X134213189Y-130510786D01*
X134213162Y-130510927D01*
X134201403Y-130547204D01*
X134181479Y-130578671D01*
X134154218Y-130604323D01*
X134120448Y-130623157D01*
X134113447Y-130625686D01*
X134102069Y-130628482D01*
X134087326Y-130630582D01*
X134067618Y-130632144D01*
X134041343Y-130633323D01*
X134006903Y-130634278D01*
X133915334Y-130636373D01*
X133915334Y-130874277D01*
X133915326Y-130930254D01*
X133915231Y-130979298D01*
X133914941Y-131020308D01*
X133914348Y-131054168D01*
X133913345Y-131081757D01*
X133911824Y-131103958D01*
X133909676Y-131121651D01*
X133906793Y-131135718D01*
X133903068Y-131147040D01*
X133898393Y-131156499D01*
X133892659Y-131164975D01*
X133885759Y-131173351D01*
X133877585Y-131182507D01*
X133858431Y-131201133D01*
X133829149Y-131220168D01*
X133796447Y-131230926D01*
X133791876Y-131231815D01*
X133778510Y-131234243D01*
X133770285Y-131235477D01*
X133761985Y-131235000D01*
X133746363Y-131232222D01*
X133728195Y-131227872D01*
X133711161Y-131222848D01*
X133698939Y-131218049D01*
X133691545Y-131213821D01*
X133669324Y-131196509D01*
X133648678Y-131174397D01*
X133632922Y-131150858D01*
X133630803Y-131146797D01*
X133626847Y-131138423D01*
X133623937Y-131129947D01*
X133621880Y-131119760D01*
X133620481Y-131106251D01*
X133619545Y-131087808D01*
X133618877Y-131062820D01*
X133618284Y-131029677D01*
X133616696Y-130933224D01*
X133529340Y-130933224D01*
X133519855Y-130933217D01*
X133489735Y-130933020D01*
X133467059Y-130932429D01*
X133449994Y-130931277D01*
X133436704Y-130929398D01*
X133425356Y-130926627D01*
X133414116Y-130922798D01*
X133405130Y-130919116D01*
X133373421Y-130899856D01*
X133348190Y-130873599D01*
X133329981Y-130841031D01*
X133319339Y-130802843D01*
X133318652Y-130796220D01*
X133317730Y-130779271D01*
X133316889Y-130754505D01*
X133316152Y-130723069D01*
X133315540Y-130686107D01*
X133315075Y-130644764D01*
X133314778Y-130600187D01*
X133314670Y-130553518D01*
X133314641Y-130332532D01*
X133074120Y-130332528D01*
X132833599Y-130332524D01*
X132804100Y-130318569D01*
X132778757Y-130303879D01*
X132751653Y-130279162D01*
X132732590Y-130249078D01*
X132721841Y-130214091D01*
X132719677Y-130174664D01*
X132720360Y-130165776D01*
X132728404Y-130129089D01*
X132744721Y-130097449D01*
X132769481Y-130070597D01*
X132802856Y-130048270D01*
X132803350Y-130048007D01*
X132811191Y-130044194D01*
X132819367Y-130041340D01*
X132829449Y-130039276D01*
X132843009Y-130037829D01*
X132861621Y-130036829D01*
X132886855Y-130036103D01*
X132920285Y-130035482D01*
X133016737Y-130033895D01*
X133016737Y-129882867D01*
X133016737Y-129731840D01*
X132868312Y-129731840D01*
X132719886Y-129731840D01*
X132718010Y-129823409D01*
X132717300Y-129854788D01*
X132716468Y-129879516D01*
X132715334Y-129897867D01*
X132713686Y-129911569D01*
X132711315Y-129922350D01*
X132708010Y-129931937D01*
X132703560Y-129942061D01*
X132703305Y-129942609D01*
X132684333Y-129975171D01*
X132660984Y-129999974D01*
X132631814Y-130018560D01*
X132628103Y-130020370D01*
X132618641Y-130024649D01*
X132609520Y-130027792D01*
X132599053Y-130030010D01*
X132585558Y-130031513D01*
X132567350Y-130032514D01*
X132542744Y-130033225D01*
X132510056Y-130033856D01*
X132416045Y-130035527D01*
X132416045Y-130122800D01*
X132416044Y-130125512D01*
X132415888Y-130157543D01*
X132415348Y-130181744D01*
X132414269Y-130199916D01*
X132412495Y-130213862D01*
X132409870Y-130225384D01*
X132406239Y-130236284D01*
X132392471Y-130264079D01*
X132368492Y-130292990D01*
X132337217Y-130315595D01*
X132330038Y-130319464D01*
X132317446Y-130325129D01*
X132304946Y-130328329D01*
X132289257Y-130329743D01*
X132267093Y-130330045D01*
X132261240Y-130330024D01*
X132240259Y-130329395D01*
X132225025Y-130327437D01*
X132212268Y-130323530D01*
X132198721Y-130317051D01*
X132174994Y-130301884D01*
X132149943Y-130276839D01*
X132130694Y-130244626D01*
X132130091Y-130243323D01*
X132125858Y-130233607D01*
X132122772Y-130224434D01*
X132120652Y-130214086D01*
X132119316Y-130200843D01*
X132118581Y-130182989D01*
X132118266Y-130158804D01*
X132118189Y-130126570D01*
X132118141Y-130035375D01*
X132024130Y-130033780D01*
X132002991Y-130033389D01*
X131974638Y-130032650D01*
X131953439Y-130031656D01*
X131937763Y-130030236D01*
X131925977Y-130028224D01*
X131916449Y-130025451D01*
X131907545Y-130021748D01*
X131879822Y-130005170D01*
X131852054Y-129978998D01*
X131831370Y-129947506D01*
X131817795Y-129919862D01*
X131817795Y-129433936D01*
X131817795Y-128948010D01*
X131828233Y-128925436D01*
X131844811Y-128897713D01*
X131870982Y-128869945D01*
X131902475Y-128849261D01*
X131912154Y-128844969D01*
X131946793Y-128836092D01*
X131982512Y-128835815D01*
X132017370Y-128843765D01*
X132049427Y-128859567D01*
X132076743Y-128882849D01*
X132082837Y-128889737D01*
X132093813Y-128903602D01*
X132102071Y-128917353D01*
X132108032Y-128932635D01*
X132112114Y-128951097D01*
X132114738Y-128974384D01*
X132116321Y-129004143D01*
X132117285Y-129042021D01*
X132119040Y-129136031D01*
X132267169Y-129136031D01*
X132415298Y-129136031D01*
X132718833Y-129136031D01*
X132718833Y-129284984D01*
X132718833Y-129433936D01*
X132867785Y-129433936D01*
X133016737Y-129433936D01*
X133016737Y-129284984D01*
X133016737Y-129136031D01*
X132867785Y-129136031D01*
X132718833Y-129136031D01*
X132415298Y-129136031D01*
X132416926Y-129042021D01*
X132417481Y-129013276D01*
X132418240Y-128987089D01*
X132419286Y-128967564D01*
X132420805Y-128953026D01*
X132422980Y-128941795D01*
X132425995Y-128932195D01*
X132430034Y-128922548D01*
X132439211Y-128906039D01*
X132459709Y-128880866D01*
X132484787Y-128859574D01*
X132511414Y-128845049D01*
X132513515Y-128844263D01*
X132517998Y-128842809D01*
X132523289Y-128841530D01*
X132529986Y-128840413D01*
X132538686Y-128839448D01*
X132549987Y-128838624D01*
X132564485Y-128837929D01*
X132582779Y-128837354D01*
X132605464Y-128836885D01*
X132633139Y-128836514D01*
X132666401Y-128836228D01*
X132705847Y-128836016D01*
X132752074Y-128835867D01*
X132805679Y-128835771D01*
X132867260Y-128835716D01*
X132937413Y-128835691D01*
X133016737Y-128835685D01*
X133092647Y-128835671D01*
X133165705Y-128835650D01*
X133230134Y-128835665D01*
X133286523Y-128835759D01*
X133335463Y-128835975D01*
X133377545Y-128836355D01*
X133413359Y-128836942D01*
X133443495Y-128837780D01*
X133468544Y-128838910D01*
X133489097Y-128840377D01*
X133505744Y-128842222D01*
X133519075Y-128844488D01*
X133529681Y-128847219D01*
X133538152Y-128850456D01*
X133545079Y-128854244D01*
X133551051Y-128858624D01*
X133556661Y-128863640D01*
X133562497Y-128869334D01*
X133569151Y-128875749D01*
X133580362Y-128887210D01*
X133599836Y-128915356D01*
X133611110Y-128947315D01*
X133614836Y-128984638D01*
X133614738Y-128995960D01*
X133613195Y-129015176D01*
X133609052Y-129031351D01*
X133601362Y-129049012D01*
X133601228Y-129049284D01*
X133582521Y-129078493D01*
X133557573Y-129101811D01*
X133524862Y-129120661D01*
X133515487Y-129124766D01*
X133505820Y-129128140D01*
X133495037Y-129130576D01*
X133481408Y-129132286D01*
X133463202Y-129133481D01*
X133438689Y-129134374D01*
X133406140Y-129135174D01*
X133314500Y-129137210D01*
X133315792Y-129284352D01*
X133315798Y-129284984D01*
X133317083Y-129431494D01*
G37*
G36*
X131514916Y-129897822D02*
G01*
X131515693Y-129933344D01*
X131516327Y-129978376D01*
X131516818Y-130032970D01*
X131517169Y-130097177D01*
X131517379Y-130171048D01*
X131517449Y-130254634D01*
X131517449Y-130635320D01*
X131665951Y-130635320D01*
X131814454Y-130635320D01*
X131816124Y-130541309D01*
X131816345Y-130529101D01*
X131816981Y-130499364D01*
X131817768Y-130477133D01*
X131818919Y-130460725D01*
X131820644Y-130448457D01*
X131823153Y-130438645D01*
X131826658Y-130429605D01*
X131831370Y-130419654D01*
X131840495Y-130403290D01*
X131864295Y-130374077D01*
X131893608Y-130352827D01*
X131927927Y-130339855D01*
X131966747Y-130335475D01*
X131981580Y-130336071D01*
X132018465Y-130343568D01*
X132050785Y-130359688D01*
X132078632Y-130384470D01*
X132086892Y-130394105D01*
X132094451Y-130404077D01*
X132100559Y-130414405D01*
X132105369Y-130426135D01*
X132109037Y-130440311D01*
X132111716Y-130457981D01*
X132113562Y-130480189D01*
X132114729Y-130507981D01*
X132115371Y-130542403D01*
X132115643Y-130584501D01*
X132115699Y-130635320D01*
X132115692Y-130660082D01*
X132115614Y-130702521D01*
X132115412Y-130736796D01*
X132115036Y-130763974D01*
X132114438Y-130785119D01*
X132113568Y-130801300D01*
X132112378Y-130813583D01*
X132110817Y-130823034D01*
X132108838Y-130830719D01*
X132106392Y-130837706D01*
X132101962Y-130847650D01*
X132084154Y-130874767D01*
X132060244Y-130899106D01*
X132032873Y-130917789D01*
X132028919Y-130919853D01*
X132020558Y-130923804D01*
X132012090Y-130926712D01*
X132001906Y-130928768D01*
X131988396Y-130930169D01*
X131969949Y-130931107D01*
X131944956Y-130931776D01*
X131911805Y-130932370D01*
X131815353Y-130933957D01*
X131815353Y-131023069D01*
X131815349Y-131028732D01*
X131815062Y-131062893D01*
X131814248Y-131089058D01*
X131812801Y-131108770D01*
X131810614Y-131123569D01*
X131807578Y-131134999D01*
X131796805Y-131157029D01*
X131777945Y-131181597D01*
X131754324Y-131203440D01*
X131728436Y-131219881D01*
X131726037Y-131221054D01*
X131716234Y-131225562D01*
X131706996Y-131228875D01*
X131696601Y-131231216D01*
X131683328Y-131232808D01*
X131665454Y-131233871D01*
X131641258Y-131234629D01*
X131609018Y-131235305D01*
X131517449Y-131237065D01*
X131517449Y-131385318D01*
X131517449Y-131533570D01*
X131760412Y-131534964D01*
X132003374Y-131536358D01*
X132031019Y-131549934D01*
X132046244Y-131558378D01*
X132075607Y-131582022D01*
X132097222Y-131611178D01*
X132110588Y-131645057D01*
X132115207Y-131682869D01*
X132113653Y-131705390D01*
X132103927Y-131741437D01*
X132085943Y-131773387D01*
X132060475Y-131800021D01*
X132028292Y-131820123D01*
X132003374Y-131831725D01*
X131666401Y-131831725D01*
X131329427Y-131831725D01*
X131304510Y-131820123D01*
X131277503Y-131803817D01*
X131250410Y-131777362D01*
X131229897Y-131744337D01*
X131217103Y-131717054D01*
X131215668Y-131476995D01*
X131214233Y-131236937D01*
X131125320Y-131234828D01*
X131119818Y-131234693D01*
X131082665Y-131233404D01*
X131053415Y-131231378D01*
X131030420Y-131228209D01*
X131012036Y-131223489D01*
X130996614Y-131216812D01*
X130982510Y-131207770D01*
X130968075Y-131195958D01*
X130959258Y-131187324D01*
X130944048Y-131169087D01*
X130932397Y-131151150D01*
X130930215Y-131146967D01*
X130926219Y-131138528D01*
X130923284Y-131130030D01*
X130921213Y-131119857D01*
X130919808Y-131106389D01*
X130918872Y-131088009D01*
X130918207Y-131063098D01*
X130917615Y-131030039D01*
X130916032Y-130933949D01*
X130819942Y-130932366D01*
X130804045Y-130932097D01*
X130774831Y-130931497D01*
X130753041Y-130930735D01*
X130737058Y-130929614D01*
X130725263Y-130927935D01*
X130716039Y-130925502D01*
X130707768Y-130922118D01*
X130698830Y-130917584D01*
X130686492Y-130910341D01*
X130657767Y-130886168D01*
X130636281Y-130856238D01*
X130622816Y-130821843D01*
X130618155Y-130784272D01*
X130618619Y-130770570D01*
X130624893Y-130736882D01*
X130639185Y-130707038D01*
X130662366Y-130678959D01*
X130671669Y-130669938D01*
X130685520Y-130658189D01*
X130699461Y-130649421D01*
X130715103Y-130643205D01*
X130734057Y-130639114D01*
X130757936Y-130636721D01*
X130788350Y-130635599D01*
X130826912Y-130635320D01*
X130916023Y-130635320D01*
X130917611Y-130538867D01*
X130917875Y-130523204D01*
X130918477Y-130493841D01*
X130919238Y-130471926D01*
X130920354Y-130455848D01*
X130922018Y-130443996D01*
X130924426Y-130434759D01*
X130927771Y-130426526D01*
X130932249Y-130417687D01*
X130952161Y-130389022D01*
X130978780Y-130363953D01*
X131008949Y-130345508D01*
X131012710Y-130343851D01*
X131021945Y-130340528D01*
X131032626Y-130338072D01*
X131046417Y-130336307D01*
X131064982Y-130335057D01*
X131089985Y-130334144D01*
X131123092Y-130333392D01*
X131214661Y-130331617D01*
X131214661Y-130183123D01*
X131214661Y-130034628D01*
X131066082Y-130034628D01*
X130917503Y-130034628D01*
X130915909Y-130128639D01*
X130915897Y-130129323D01*
X130915266Y-130162116D01*
X130914519Y-130186820D01*
X130913468Y-130205083D01*
X130911927Y-130218554D01*
X130909707Y-130228880D01*
X130906621Y-130237710D01*
X130902482Y-130246691D01*
X130901263Y-130249107D01*
X130882104Y-130277712D01*
X130857278Y-130302139D01*
X130829579Y-130319594D01*
X130824526Y-130321806D01*
X130815294Y-130325002D01*
X130804388Y-130327399D01*
X130790188Y-130329172D01*
X130771075Y-130330501D01*
X130745433Y-130331562D01*
X130711642Y-130332532D01*
X130616410Y-130334974D01*
X130613969Y-130432648D01*
X130613583Y-130447425D01*
X130612589Y-130478427D01*
X130611441Y-130501725D01*
X130609989Y-130518796D01*
X130608083Y-130531117D01*
X130605574Y-130540164D01*
X130602311Y-130547414D01*
X130600311Y-130551059D01*
X130581595Y-130578998D01*
X130559705Y-130600058D01*
X130532011Y-130616836D01*
X130499441Y-130632878D01*
X130408120Y-130634551D01*
X130316800Y-130636223D01*
X130315211Y-130729782D01*
X130314758Y-130751979D01*
X130313488Y-130785621D01*
X130311258Y-130811996D01*
X130307615Y-130832716D01*
X130302107Y-130849392D01*
X130294282Y-130863635D01*
X130283686Y-130877056D01*
X130269868Y-130891267D01*
X130260315Y-130899882D01*
X130229650Y-130919566D01*
X130195504Y-130930220D01*
X130157345Y-130932036D01*
X130147856Y-130931186D01*
X130110823Y-130922339D01*
X130078814Y-130905248D01*
X130052374Y-130880281D01*
X130032051Y-130847804D01*
X130029965Y-130843371D01*
X130025643Y-130833550D01*
X130022532Y-130824338D01*
X130020431Y-130814006D01*
X130019142Y-130800825D01*
X130018467Y-130783065D01*
X130018207Y-130758996D01*
X130018164Y-130726889D01*
X130018160Y-130635320D01*
X129866766Y-130635320D01*
X129715372Y-130635320D01*
X129715372Y-130723043D01*
X129715370Y-130726566D01*
X129714847Y-130765825D01*
X129713120Y-130797079D01*
X129709766Y-130821935D01*
X129704365Y-130841999D01*
X129696493Y-130858878D01*
X129685729Y-130874178D01*
X129671652Y-130889504D01*
X129670579Y-130890572D01*
X129655284Y-130904426D01*
X129639904Y-130914988D01*
X129622829Y-130922681D01*
X129602450Y-130927929D01*
X129577158Y-130931153D01*
X129545346Y-130932777D01*
X129505404Y-130933224D01*
X129417895Y-130933224D01*
X129416460Y-131176187D01*
X129416169Y-131224132D01*
X129415841Y-131271452D01*
X129415485Y-131310635D01*
X129415062Y-131342558D01*
X129414534Y-131368097D01*
X129413861Y-131388128D01*
X129413004Y-131403528D01*
X129411924Y-131415173D01*
X129410581Y-131423939D01*
X129408937Y-131430702D01*
X129406953Y-131436338D01*
X129404588Y-131441724D01*
X129404547Y-131441813D01*
X129385997Y-131471980D01*
X129360960Y-131498511D01*
X129332313Y-131518355D01*
X129318129Y-131525029D01*
X129304639Y-131528995D01*
X129288463Y-131530867D01*
X129266074Y-131531338D01*
X129243858Y-131530877D01*
X129227641Y-131529020D01*
X129214142Y-131525077D01*
X129199834Y-131518355D01*
X129199696Y-131518282D01*
X129171034Y-131498381D01*
X129146054Y-131471835D01*
X129127656Y-131441724D01*
X129125998Y-131437963D01*
X129122675Y-131428728D01*
X129120220Y-131418047D01*
X129118455Y-131404256D01*
X129117205Y-131385691D01*
X129116292Y-131360688D01*
X129115539Y-131327581D01*
X129113765Y-131236012D01*
X128965651Y-131236012D01*
X128817537Y-131236012D01*
X128815935Y-131327581D01*
X128815487Y-131350978D01*
X128814740Y-131378032D01*
X128813717Y-131398175D01*
X128812229Y-131413105D01*
X128810090Y-131424517D01*
X128807111Y-131434106D01*
X128803105Y-131443568D01*
X128788534Y-131468455D01*
X128762896Y-131496593D01*
X128731311Y-131518466D01*
X128706893Y-131531475D01*
X128516430Y-131531475D01*
X128477194Y-131531470D01*
X128436166Y-131531420D01*
X128403082Y-131531272D01*
X128376928Y-131530970D01*
X128356693Y-131530460D01*
X128341363Y-131529688D01*
X128329925Y-131528598D01*
X128321366Y-131527138D01*
X128314674Y-131525251D01*
X128308836Y-131522883D01*
X128302838Y-131519981D01*
X128274847Y-131501751D01*
X128249167Y-131476240D01*
X128230165Y-131447162D01*
X128227705Y-131441898D01*
X128222300Y-131426324D01*
X128219544Y-131408603D01*
X128218744Y-131384964D01*
X128219759Y-131363742D01*
X128227650Y-131327634D01*
X128243539Y-131297030D01*
X128267646Y-131271570D01*
X128300191Y-131250892D01*
X128329968Y-131236012D01*
X128421451Y-131236012D01*
X128512935Y-131236012D01*
X128515168Y-131144443D01*
X128515385Y-131136162D01*
X128516791Y-131099291D01*
X128518704Y-131069724D01*
X128521061Y-131048281D01*
X128523794Y-131035782D01*
X128524489Y-131033972D01*
X128538435Y-131007050D01*
X128557509Y-130981781D01*
X128578700Y-130962200D01*
X128586074Y-130957110D01*
X128601302Y-130948505D01*
X128617966Y-130942168D01*
X128637725Y-130937784D01*
X128662243Y-130935042D01*
X128693180Y-130933626D01*
X128732198Y-130933224D01*
X128816776Y-130933224D01*
X128816776Y-130845501D01*
X128816777Y-130841920D01*
X128816938Y-130810020D01*
X128817483Y-130785916D01*
X128818565Y-130767814D01*
X128820339Y-130753918D01*
X128822960Y-130742434D01*
X128826582Y-130731568D01*
X128840350Y-130703774D01*
X128864329Y-130674863D01*
X128895604Y-130652257D01*
X128921775Y-130637762D01*
X129018227Y-130636174D01*
X129114680Y-130634587D01*
X129114680Y-130483560D01*
X129114680Y-130332532D01*
X129417468Y-130332532D01*
X129866766Y-130332532D01*
X130316064Y-130332532D01*
X130316064Y-129883234D01*
X130316064Y-129433936D01*
X129866766Y-129433936D01*
X129417468Y-129433936D01*
X129417468Y-129883234D01*
X129417468Y-130332532D01*
X129114680Y-130332532D01*
X128966101Y-130332532D01*
X128817523Y-130332532D01*
X128815928Y-130426543D01*
X128815537Y-130447682D01*
X128814798Y-130476035D01*
X128813803Y-130497234D01*
X128812384Y-130512910D01*
X128810372Y-130524696D01*
X128807599Y-130534224D01*
X128803896Y-130543128D01*
X128787318Y-130570851D01*
X128761146Y-130598619D01*
X128729654Y-130619303D01*
X128726039Y-130621065D01*
X128716590Y-130625340D01*
X128707476Y-130628481D01*
X128697012Y-130630698D01*
X128683516Y-130632202D01*
X128665304Y-130633204D01*
X128640693Y-130633916D01*
X128607999Y-130634549D01*
X128513988Y-130636219D01*
X128513984Y-130727338D01*
X128513980Y-130740313D01*
X128513878Y-130769140D01*
X128513482Y-130790584D01*
X128512593Y-130806379D01*
X128511010Y-130818263D01*
X128508533Y-130827970D01*
X128504962Y-130837239D01*
X128500097Y-130847804D01*
X128485405Y-130872686D01*
X128461566Y-130898415D01*
X128433452Y-130917016D01*
X128402415Y-130928489D01*
X128369806Y-130932835D01*
X128336978Y-130930055D01*
X128305281Y-130920149D01*
X128276068Y-130903118D01*
X128250692Y-130878962D01*
X128230503Y-130847683D01*
X128230372Y-130847416D01*
X128226208Y-130838365D01*
X128223111Y-130829491D01*
X128220888Y-130819138D01*
X128219350Y-130805649D01*
X128218306Y-130787364D01*
X128217565Y-130762628D01*
X128216937Y-130729782D01*
X128215348Y-130636223D01*
X128124028Y-130634551D01*
X128032707Y-130632878D01*
X128000137Y-130616836D01*
X127984002Y-130607892D01*
X127955264Y-130584798D01*
X127934765Y-130556464D01*
X127922483Y-130522852D01*
X127918394Y-130483926D01*
X127919274Y-130465193D01*
X127927163Y-130428739D01*
X127943255Y-130397584D01*
X127967575Y-130371689D01*
X128000144Y-130351016D01*
X128032721Y-130334974D01*
X128273354Y-130333578D01*
X128513988Y-130332183D01*
X128513988Y-129731840D01*
X128816776Y-129731840D01*
X128816776Y-129883234D01*
X128816776Y-130034628D01*
X128965728Y-130034628D01*
X129114680Y-130034628D01*
X129114680Y-129883234D01*
X129114680Y-129731840D01*
X128965728Y-129731840D01*
X128816776Y-129731840D01*
X128513988Y-129731840D01*
X128513988Y-129582713D01*
X128513988Y-128833244D01*
X128365036Y-128833244D01*
X128216084Y-128833244D01*
X128216084Y-128917821D01*
X128216027Y-128934656D01*
X128215409Y-128968083D01*
X128214034Y-128993762D01*
X128211807Y-129013095D01*
X128208633Y-129027489D01*
X128207282Y-129031757D01*
X128192146Y-129063017D01*
X128169863Y-129090499D01*
X128142365Y-129112239D01*
X128111582Y-129126270D01*
X128090854Y-129130443D01*
X128061239Y-129131678D01*
X128031911Y-129128571D01*
X128007197Y-129121327D01*
X127994215Y-129114477D01*
X127969809Y-129096433D01*
X127947659Y-129074061D01*
X127931206Y-129050567D01*
X127930325Y-129048929D01*
X127928399Y-129045021D01*
X127926741Y-129040614D01*
X127925329Y-129034996D01*
X127924140Y-129027452D01*
X127923148Y-129017270D01*
X127922332Y-129003738D01*
X127921667Y-128986142D01*
X127921129Y-128963769D01*
X127920696Y-128935906D01*
X127920344Y-128901841D01*
X127920049Y-128860861D01*
X127919787Y-128812252D01*
X127919536Y-128755301D01*
X127919271Y-128689297D01*
X127917921Y-128347561D01*
X127932922Y-128317090D01*
X127940549Y-128303195D01*
X127963617Y-128274061D01*
X127992220Y-128252923D01*
X128026023Y-128239988D01*
X128064690Y-128235462D01*
X128088069Y-128236902D01*
X128124341Y-128246323D01*
X128155989Y-128264113D01*
X128182265Y-128289797D01*
X128202420Y-128322899D01*
X128205701Y-128330487D01*
X128208830Y-128339774D01*
X128211103Y-128350520D01*
X128212700Y-128364387D01*
X128213801Y-128383037D01*
X128214587Y-128408130D01*
X128215236Y-128441329D01*
X128216830Y-128535339D01*
X128365409Y-128535339D01*
X128513988Y-128535339D01*
X128513988Y-128235168D01*
X128513988Y-127934997D01*
X128273467Y-127933601D01*
X128032946Y-127932205D01*
X128006085Y-127919556D01*
X127989839Y-127911274D01*
X127966188Y-127895205D01*
X127948167Y-127875835D01*
X127933114Y-127850649D01*
X127918179Y-127820763D01*
X127918179Y-127636833D01*
X127918179Y-127631294D01*
X127918234Y-127581105D01*
X127918481Y-127539563D01*
X127919058Y-127505647D01*
X127920104Y-127478338D01*
X127921759Y-127456617D01*
X127924160Y-127439465D01*
X127927447Y-127425863D01*
X127931757Y-127414790D01*
X127937230Y-127405229D01*
X127944003Y-127396159D01*
X127952217Y-127386561D01*
X127960462Y-127378173D01*
X127978608Y-127363065D01*
X127997024Y-127350883D01*
X128000955Y-127348735D01*
X128014592Y-127342206D01*
X128027410Y-127338476D01*
X128042935Y-127336791D01*
X128064690Y-127336397D01*
X128091211Y-127337779D01*
X128121812Y-127344597D01*
X128148093Y-127357959D01*
X128172432Y-127378802D01*
X128178852Y-127385562D01*
X128190489Y-127399290D01*
X128199244Y-127412967D01*
X128205557Y-127428230D01*
X128209868Y-127446713D01*
X128212615Y-127470054D01*
X128214240Y-127499887D01*
X128215182Y-127537848D01*
X128216830Y-127631859D01*
X128365409Y-127631859D01*
X128513988Y-127631859D01*
X128513988Y-127483288D01*
X128513988Y-127334716D01*
X128422419Y-127333115D01*
X128399022Y-127332666D01*
X128371968Y-127331920D01*
X128351825Y-127330896D01*
X128336895Y-127329409D01*
X128325483Y-127327269D01*
X128315894Y-127324290D01*
X128306432Y-127320284D01*
X128281545Y-127305713D01*
X128253407Y-127280076D01*
X128231534Y-127248491D01*
X128218525Y-127224072D01*
X128218525Y-127033609D01*
X128218530Y-126994374D01*
X128218580Y-126953345D01*
X128218728Y-126920261D01*
X128219030Y-126894108D01*
X128219540Y-126873872D01*
X128220312Y-126858542D01*
X128221402Y-126847104D01*
X128222862Y-126838546D01*
X128224749Y-126831854D01*
X128227117Y-126826015D01*
X128230019Y-126820017D01*
X128248008Y-126792327D01*
X128273595Y-126766466D01*
X128302838Y-126747252D01*
X128310959Y-126743500D01*
X128319715Y-126740435D01*
X128330055Y-126738218D01*
X128343614Y-126736665D01*
X128362029Y-126735594D01*
X128386938Y-126734821D01*
X128419977Y-126734164D01*
X128513988Y-126732516D01*
X128513988Y-126432917D01*
X128513988Y-126133317D01*
X128419977Y-126131723D01*
X128419293Y-126131711D01*
X128386500Y-126131080D01*
X128361796Y-126130333D01*
X128343532Y-126129282D01*
X128330062Y-126127741D01*
X128319736Y-126125521D01*
X128310906Y-126122435D01*
X128301924Y-126118296D01*
X128279317Y-126104605D01*
X128251299Y-126078554D01*
X128230358Y-126046730D01*
X128218525Y-126022688D01*
X128218525Y-125832225D01*
X128218525Y-125641761D01*
X128231534Y-125617343D01*
X128247909Y-125592361D01*
X128274824Y-125565228D01*
X128306432Y-125545550D01*
X128330850Y-125534320D01*
X129323457Y-125533041D01*
X130316064Y-125531762D01*
X130316064Y-125146193D01*
X130316064Y-125128409D01*
X130316072Y-125060235D01*
X130316103Y-125000982D01*
X130316175Y-124949970D01*
X130316306Y-124906515D01*
X130316512Y-124869937D01*
X130316811Y-124839554D01*
X130317220Y-124814683D01*
X130317756Y-124794643D01*
X130318437Y-124778753D01*
X130319279Y-124766329D01*
X130320301Y-124756692D01*
X130321518Y-124749157D01*
X130322949Y-124743045D01*
X130324610Y-124737673D01*
X130326520Y-124732360D01*
X130339606Y-124706269D01*
X130361926Y-124679144D01*
X130390306Y-124656453D01*
X130422672Y-124641166D01*
X130456470Y-124634262D01*
X130490335Y-124635521D01*
X130522902Y-124644719D01*
X130552805Y-124661634D01*
X130578681Y-124686046D01*
X130599163Y-124717730D01*
X130614069Y-124748048D01*
X130615240Y-124989790D01*
X130616410Y-125231532D01*
X130766583Y-125232824D01*
X130916756Y-125234115D01*
X130916756Y-124934072D01*
X130916756Y-124634029D01*
X130822746Y-124632435D01*
X130810011Y-124632215D01*
X130780416Y-124631604D01*
X130758300Y-124630834D01*
X130741981Y-124629693D01*
X130729774Y-124627971D01*
X130719996Y-124625457D01*
X130710961Y-124621942D01*
X130700988Y-124617214D01*
X130700214Y-124616832D01*
X130671325Y-124598219D01*
X130648117Y-124573370D01*
X130629113Y-124540715D01*
X130616410Y-124513632D01*
X130614782Y-124356299D01*
X130614739Y-124351971D01*
X130614493Y-124308378D01*
X130614602Y-124268196D01*
X130615042Y-124232697D01*
X130615792Y-124203152D01*
X130616829Y-124180829D01*
X130618130Y-124167001D01*
X130618577Y-124164241D01*
X130629431Y-124124965D01*
X130647667Y-124092060D01*
X130673254Y-124065571D01*
X130706161Y-124045543D01*
X130713658Y-124042494D01*
X130742511Y-124035823D01*
X130774201Y-124034591D01*
X130805028Y-124038720D01*
X130831292Y-124048134D01*
X130853141Y-124062160D01*
X130881224Y-124088786D01*
X130902712Y-124120496D01*
X130906530Y-124128401D01*
X130909566Y-124136824D01*
X130911767Y-124146927D01*
X130913316Y-124160327D01*
X130914396Y-124178642D01*
X130915193Y-124203488D01*
X130915889Y-124236483D01*
X130917655Y-124330494D01*
X131065692Y-124330494D01*
X131213729Y-124330494D01*
X131215841Y-124241367D01*
X131215962Y-124236416D01*
X131217246Y-124199084D01*
X131219258Y-124169687D01*
X131222399Y-124146588D01*
X131227070Y-124128148D01*
X131233672Y-124112731D01*
X131242605Y-124098698D01*
X131254271Y-124084414D01*
X131264307Y-124073975D01*
X131293895Y-124052295D01*
X131327791Y-124039373D01*
X131366055Y-124035183D01*
X131383071Y-124035920D01*
X131417867Y-124042854D01*
X131447974Y-124057620D01*
X131474943Y-124080868D01*
X131477257Y-124083348D01*
X131486522Y-124093617D01*
X131494132Y-124103313D01*
X131500249Y-124113468D01*
X131505037Y-124125118D01*
X131508659Y-124139297D01*
X131511277Y-124157038D01*
X131513054Y-124179376D01*
X131514152Y-124207345D01*
X131514736Y-124241979D01*
X131514966Y-124284312D01*
X131515007Y-124335378D01*
X131515006Y-124347880D01*
X131514975Y-124392858D01*
X131514858Y-124429366D01*
X131514603Y-124458443D01*
X131514156Y-124481132D01*
X131513463Y-124498471D01*
X131512472Y-124511502D01*
X131511128Y-124521264D01*
X131509380Y-124528800D01*
X131507173Y-124535148D01*
X131504454Y-124541350D01*
X131498567Y-124552646D01*
X131478902Y-124579841D01*
X131454521Y-124602996D01*
X131428209Y-124619265D01*
X131419891Y-124622800D01*
X131410385Y-124625957D01*
X131399505Y-124628246D01*
X131385572Y-124629850D01*
X131366908Y-124630954D01*
X131341835Y-124631743D01*
X131308672Y-124632401D01*
X131214663Y-124634029D01*
X131215883Y-124932781D01*
X131217103Y-125231532D01*
X131366908Y-125232823D01*
X131516714Y-125234114D01*
X131518302Y-125137592D01*
X131518568Y-125121807D01*
X131519170Y-125092460D01*
X131519932Y-125070556D01*
X131521048Y-125054486D01*
X131522713Y-125042640D01*
X131525120Y-125033407D01*
X131528465Y-125025177D01*
X131532941Y-125016341D01*
X131539599Y-125004829D01*
X131563746Y-124975214D01*
X131593530Y-124953257D01*
X131628049Y-124939511D01*
X131666401Y-124934529D01*
X131684539Y-124935456D01*
X131720178Y-124944134D01*
X131752328Y-124961251D01*
X131779673Y-124985993D01*
X131800894Y-125017545D01*
X131801908Y-125019547D01*
X131805805Y-125027967D01*
X131808697Y-125036522D01*
X131810765Y-125046819D01*
X131812190Y-125060462D01*
X131813153Y-125079057D01*
X131813835Y-125104208D01*
X131814417Y-125137522D01*
X131815922Y-125233974D01*
X131907206Y-125233978D01*
X131920513Y-125233982D01*
X131949290Y-125234085D01*
X131970695Y-125234483D01*
X131986461Y-125235374D01*
X131998320Y-125236958D01*
X132008007Y-125239435D01*
X132017253Y-125243005D01*
X132027793Y-125247866D01*
X132038708Y-125253519D01*
X132069337Y-125275853D01*
X132092650Y-125303638D01*
X132108044Y-125335735D01*
X132114917Y-125371003D01*
X132112666Y-125408305D01*
X132105162Y-125436119D01*
X132088205Y-125468931D01*
X132063296Y-125496146D01*
X132030235Y-125518031D01*
X132008258Y-125529437D01*
X131612680Y-125531878D01*
X131217103Y-125534320D01*
X131214635Y-125631994D01*
X131213855Y-125660623D01*
X131212879Y-125687666D01*
X131211709Y-125707748D01*
X131210176Y-125722405D01*
X131208110Y-125733175D01*
X131205343Y-125741595D01*
X131201703Y-125749202D01*
X131184848Y-125774070D01*
X131158157Y-125800097D01*
X131127080Y-125819475D01*
X131099894Y-125832225D01*
X130708351Y-125833584D01*
X130316808Y-125834944D01*
X130315215Y-125928816D01*
X130314804Y-125949374D01*
X130313599Y-125982918D01*
X130311486Y-126009145D01*
X130308024Y-126029676D01*
X130302769Y-126046129D01*
X130295275Y-126060123D01*
X130285101Y-126073277D01*
X130271801Y-126087209D01*
X130245226Y-126108289D01*
X130213085Y-126123444D01*
X130179146Y-126130569D01*
X130144882Y-126129874D01*
X130111769Y-126121572D01*
X130081280Y-126105873D01*
X130054890Y-126082988D01*
X130034073Y-126053130D01*
X130031557Y-126048302D01*
X130027563Y-126039827D01*
X130024636Y-126031294D01*
X130022576Y-126021084D01*
X130021184Y-126007579D01*
X130020259Y-125989162D01*
X130019603Y-125964215D01*
X130019014Y-125931119D01*
X130017427Y-125834666D01*
X129866399Y-125834666D01*
X129715372Y-125834666D01*
X129715372Y-126071341D01*
X129715369Y-126098041D01*
X129715332Y-126148149D01*
X129715224Y-126189821D01*
X129715012Y-126223961D01*
X129714660Y-126251474D01*
X129714136Y-126273265D01*
X129713404Y-126290241D01*
X129712431Y-126303305D01*
X129711182Y-126313364D01*
X129709624Y-126321322D01*
X129707722Y-126328085D01*
X129705442Y-126334557D01*
X129702955Y-126340723D01*
X129685481Y-126370879D01*
X129661762Y-126396838D01*
X129634190Y-126415870D01*
X129633259Y-126416343D01*
X129619715Y-126422338D01*
X129606241Y-126425893D01*
X129589567Y-126427596D01*
X129566420Y-126428033D01*
X129543894Y-126427615D01*
X129526911Y-126425937D01*
X129513495Y-126422454D01*
X129500490Y-126416618D01*
X129484360Y-126407111D01*
X129455190Y-126381950D01*
X129432904Y-126349894D01*
X129430813Y-126345920D01*
X129426869Y-126337630D01*
X129423967Y-126329215D01*
X129421915Y-126319069D01*
X129420519Y-126305583D01*
X129419583Y-126287152D01*
X129418916Y-126262167D01*
X129418322Y-126229023D01*
X129416735Y-126132571D01*
X129116755Y-126132571D01*
X128816776Y-126132571D01*
X128816776Y-126283965D01*
X128816776Y-126435359D01*
X128906254Y-126435359D01*
X128932012Y-126435462D01*
X128965223Y-126436225D01*
X128991310Y-126438097D01*
X129011879Y-126441503D01*
X129028535Y-126446866D01*
X129042885Y-126454612D01*
X129056534Y-126465165D01*
X129071089Y-126478950D01*
X129075665Y-126483538D01*
X129085354Y-126493633D01*
X129093290Y-126503199D01*
X129099646Y-126513265D01*
X129104599Y-126524860D01*
X129108324Y-126539015D01*
X129110995Y-126556759D01*
X129112788Y-126579121D01*
X129113878Y-126607132D01*
X129114439Y-126641822D01*
X129114646Y-126684219D01*
X129114676Y-126735354D01*
X129114672Y-126916401D01*
X129100717Y-126945900D01*
X129092058Y-126961574D01*
X129071026Y-126988211D01*
X129045645Y-127009595D01*
X129018307Y-127023475D01*
X129017157Y-127023856D01*
X129005413Y-127026765D01*
X128989964Y-127028847D01*
X128969297Y-127030205D01*
X128941898Y-127030944D01*
X128906254Y-127031167D01*
X128816776Y-127031167D01*
X128816776Y-127331056D01*
X128816776Y-127630944D01*
X128908345Y-127632769D01*
X128931810Y-127633277D01*
X128958889Y-127634094D01*
X128979100Y-127635177D01*
X128994163Y-127636722D01*
X129005797Y-127638925D01*
X129015720Y-127641979D01*
X129025651Y-127646080D01*
X129030678Y-127648508D01*
X129054278Y-127664272D01*
X129076614Y-127685449D01*
X129095022Y-127709196D01*
X129106836Y-127732671D01*
X129107415Y-127734404D01*
X129114676Y-127771253D01*
X129112865Y-127807616D01*
X129102599Y-127842050D01*
X129084491Y-127873115D01*
X129059156Y-127899372D01*
X129027207Y-127919379D01*
X129026916Y-127919515D01*
X129016820Y-127923992D01*
X129007323Y-127927308D01*
X128996696Y-127929675D01*
X128983212Y-127931303D01*
X128965144Y-127932403D01*
X128940764Y-127933184D01*
X128908345Y-127933857D01*
X128816776Y-127935562D01*
X128816776Y-128235451D01*
X128816776Y-128535339D01*
X128906254Y-128535339D01*
X128915684Y-128535352D01*
X128952019Y-128535807D01*
X128980579Y-128537182D01*
X129002982Y-128539837D01*
X129020845Y-128544136D01*
X129035785Y-128550440D01*
X129049418Y-128559110D01*
X129063362Y-128570510D01*
X129072179Y-128579144D01*
X129087389Y-128597381D01*
X129099039Y-128615318D01*
X129112238Y-128640338D01*
X129114680Y-128886964D01*
X129117122Y-129133590D01*
X129266074Y-129133590D01*
X129415026Y-129133590D01*
X129416272Y-128683071D01*
X129417519Y-128232551D01*
X129330473Y-128232551D01*
X129315757Y-128232518D01*
X129279813Y-128231934D01*
X129251447Y-128230327D01*
X129229046Y-128227312D01*
X129211000Y-128222504D01*
X129195698Y-128215518D01*
X129181528Y-128205969D01*
X129166879Y-128193473D01*
X129151754Y-128178187D01*
X129132305Y-128150257D01*
X129121268Y-128119372D01*
X129117781Y-128083599D01*
X129118782Y-128063578D01*
X129126327Y-128030444D01*
X129141970Y-128001219D01*
X129166546Y-127974030D01*
X129170898Y-127970065D01*
X129181092Y-127961160D01*
X129190800Y-127953867D01*
X129201049Y-127948032D01*
X129212862Y-127943504D01*
X129227266Y-127940132D01*
X129245286Y-127937763D01*
X129267946Y-127936245D01*
X129296272Y-127935426D01*
X129331290Y-127935155D01*
X129374024Y-127935279D01*
X129425500Y-127935646D01*
X129446885Y-127935815D01*
X129490426Y-127936191D01*
X129525659Y-127936592D01*
X129553604Y-127937079D01*
X129575283Y-127937714D01*
X129591719Y-127938560D01*
X129603932Y-127939677D01*
X129612944Y-127941129D01*
X129619777Y-127942976D01*
X129625453Y-127945282D01*
X129630993Y-127948107D01*
X129649748Y-127959447D01*
X129677240Y-127983418D01*
X129698541Y-128013671D01*
X129702060Y-128020093D01*
X129706096Y-128028312D01*
X129709030Y-128036630D01*
X129711071Y-128046659D01*
X129712430Y-128060009D01*
X129713318Y-128078291D01*
X129713943Y-128103118D01*
X129714518Y-128136099D01*
X129716105Y-128232551D01*
X129866848Y-128232551D01*
X130017591Y-128232551D01*
X130019096Y-128136099D01*
X130019155Y-128132397D01*
X130019748Y-128099867D01*
X130020468Y-128075361D01*
X130021487Y-128057293D01*
X130022978Y-128044076D01*
X130025115Y-128034124D01*
X130028070Y-128025851D01*
X130032016Y-128017670D01*
X130041579Y-128001456D01*
X130066730Y-127972333D01*
X130098741Y-127950128D01*
X130102029Y-127948413D01*
X130115113Y-127942567D01*
X130128143Y-127939153D01*
X130144386Y-127937549D01*
X130167112Y-127937134D01*
X130179283Y-127937189D01*
X130197756Y-127937962D01*
X130211427Y-127940190D01*
X130223592Y-127944555D01*
X130237547Y-127951740D01*
X130246841Y-127957536D01*
X130266489Y-127973112D01*
X130282626Y-127989908D01*
X130291024Y-128001226D01*
X130300158Y-128016629D01*
X130306834Y-128033387D01*
X130311406Y-128053178D01*
X130314231Y-128077679D01*
X130315665Y-128108569D01*
X130316064Y-128147524D01*
X130316064Y-128231653D01*
X130410075Y-128233480D01*
X130435874Y-128234029D01*
X130462823Y-128234835D01*
X130482850Y-128235892D01*
X130497578Y-128237377D01*
X130508632Y-128239467D01*
X130517635Y-128242340D01*
X130526212Y-128246173D01*
X130546004Y-128257289D01*
X130575610Y-128281492D01*
X130596864Y-128310697D01*
X130609667Y-128344753D01*
X130613921Y-128383504D01*
X130612534Y-128405887D01*
X130603395Y-128442170D01*
X130585877Y-128473503D01*
X130560176Y-128499581D01*
X130526485Y-128520103D01*
X130499202Y-128532897D01*
X130107287Y-128534258D01*
X129715372Y-128535618D01*
X129715372Y-128684057D01*
X129715372Y-128832497D01*
X129809383Y-128834091D01*
X129822547Y-128834318D01*
X129852027Y-128834928D01*
X129874050Y-128835700D01*
X129890302Y-128836845D01*
X129902468Y-128838575D01*
X129912233Y-128841102D01*
X129921282Y-128844636D01*
X129931301Y-128849390D01*
X129942174Y-128855485D01*
X129962227Y-128869808D01*
X129978550Y-128885067D01*
X129981697Y-128888694D01*
X129992539Y-128902572D01*
X130000801Y-128916557D01*
X130006870Y-128932259D01*
X130011135Y-128951287D01*
X130013983Y-128975251D01*
X130015802Y-129005760D01*
X130016982Y-129044424D01*
X130019074Y-129135955D01*
X130315934Y-129135953D01*
X130612795Y-129135951D01*
X130614828Y-129044423D01*
X130615558Y-129014388D01*
X130616434Y-128989261D01*
X130617596Y-128970589D01*
X130619256Y-128956640D01*
X130621625Y-128945681D01*
X130624916Y-128935982D01*
X130629339Y-128925811D01*
X130641775Y-128902689D01*
X130665309Y-128873311D01*
X130693749Y-128852378D01*
X130727099Y-128839888D01*
X130765362Y-128835837D01*
X130788285Y-128837414D01*
X130824826Y-128846987D01*
X130856619Y-128864846D01*
X130882946Y-128890533D01*
X130903093Y-128923592D01*
X130906317Y-128931034D01*
X130909466Y-128940331D01*
X130911753Y-128951062D01*
X130913360Y-128964895D01*
X130914467Y-128983495D01*
X130915255Y-129008530D01*
X130915904Y-129041665D01*
X130917494Y-129135320D01*
X131016020Y-129136897D01*
X131039265Y-129137281D01*
X131067053Y-129137865D01*
X131087659Y-129138630D01*
X131102634Y-129139764D01*
X131113530Y-129141460D01*
X131121899Y-129143908D01*
X131129292Y-129147300D01*
X131137260Y-129151826D01*
X131146632Y-129158044D01*
X131164261Y-129172305D01*
X131179625Y-129187504D01*
X131195206Y-129209034D01*
X131209143Y-129241345D01*
X131214956Y-129275714D01*
X131212802Y-129310450D01*
X131202835Y-129343865D01*
X131185211Y-129374267D01*
X131160085Y-129399966D01*
X131153441Y-129405169D01*
X131144474Y-129411722D01*
X131135495Y-129417196D01*
X131125617Y-129421688D01*
X131113954Y-129425295D01*
X131099618Y-129428113D01*
X131081723Y-129430241D01*
X131059381Y-129431775D01*
X131031707Y-129432812D01*
X130997812Y-129433449D01*
X130956811Y-129433784D01*
X130907816Y-129433914D01*
X130849940Y-129433936D01*
X130613969Y-129433936D01*
X130613969Y-129582888D01*
X130613969Y-129731840D01*
X130993869Y-129731840D01*
X131005038Y-129731840D01*
X131076987Y-129731847D01*
X131139939Y-129731900D01*
X131194567Y-129732043D01*
X131241544Y-129732322D01*
X131281545Y-129732782D01*
X131315241Y-129733469D01*
X131343307Y-129734427D01*
X131366415Y-129735703D01*
X131385239Y-129737340D01*
X131400453Y-129739386D01*
X131412728Y-129741883D01*
X131422739Y-129744879D01*
X131431159Y-129748419D01*
X131438660Y-129752546D01*
X131445917Y-129757308D01*
X131453603Y-129762749D01*
X131459172Y-129766954D01*
X131482973Y-129790853D01*
X131501327Y-129819301D01*
X131512143Y-129849209D01*
X131512932Y-129855105D01*
X131513996Y-129871759D01*
X131514401Y-129883234D01*
X131514916Y-129897822D01*
G37*
D11*
G04 #@! TO.C,R8*
X142477500Y-98662258D02*
X142477500Y-98187742D01*
X143522500Y-98662258D02*
X143522500Y-98187742D01*
G04 #@! TO.C,R1*
X166762742Y-103727500D02*
X167237258Y-103727500D01*
X166762742Y-104772500D02*
X167237258Y-104772500D01*
G04 #@! TO.C,R18*
X166227500Y-119737258D02*
X166227500Y-119262742D01*
X167272500Y-119737258D02*
X167272500Y-119262742D01*
G04 #@! TO.C,R10*
X154337742Y-91477500D02*
X154812258Y-91477500D01*
X154337742Y-92522500D02*
X154812258Y-92522500D01*
G04 #@! TO.C,R7*
X142477500Y-104162258D02*
X142477500Y-103687742D01*
X143522500Y-104162258D02*
X143522500Y-103687742D01*
G04 #@! TO.C,R15*
X148727500Y-89012742D02*
X148727500Y-89487258D01*
X149772500Y-89012742D02*
X149772500Y-89487258D01*
G04 #@! TO.C,R5*
X148337742Y-114727500D02*
X148812258Y-114727500D01*
X148337742Y-115772500D02*
X148812258Y-115772500D01*
G04 #@! TO.C,R14*
X166477500Y-89012742D02*
X166477500Y-89487258D01*
X167522500Y-89012742D02*
X167522500Y-89487258D01*
G04 #@! TO.C,R9*
X148337742Y-93227500D02*
X148812258Y-93227500D01*
X148337742Y-94272500D02*
X148812258Y-94272500D01*
G04 #@! TO.C,R19*
X169227500Y-104012742D02*
X169227500Y-104487258D01*
X170272500Y-104012742D02*
X170272500Y-104487258D01*
G04 #@! TO.C,R6*
X142477500Y-109837742D02*
X142477500Y-110312258D01*
X143522500Y-109837742D02*
X143522500Y-110312258D01*
G04 #@! TO.C,R17*
X148727500Y-119012742D02*
X148727500Y-119487258D01*
X149772500Y-119012742D02*
X149772500Y-119487258D01*
G04 #@! TO.C,R12*
X165227500Y-98087742D02*
X165227500Y-98562258D01*
X166272500Y-98087742D02*
X166272500Y-98562258D01*
G04 #@! TD*
%LPC*%
D13*
G04 #@! TO.C,D4*
X134900000Y-104300000D03*
D14*
X137440000Y-104300000D03*
G04 #@! TD*
D13*
G04 #@! TO.C,D3*
X144500000Y-89300000D03*
D14*
X147040000Y-89300000D03*
G04 #@! TD*
D13*
G04 #@! TO.C,D1*
X172000000Y-104300000D03*
D14*
X174540000Y-104300000D03*
G04 #@! TD*
D13*
G04 #@! TO.C,D5*
X144500000Y-119300000D03*
D14*
X147040000Y-119300000D03*
G04 #@! TD*
D13*
G04 #@! TO.C,D6*
X162000000Y-119300000D03*
D14*
X164540000Y-119300000D03*
G04 #@! TD*
D13*
G04 #@! TO.C,D2*
X162000000Y-89300000D03*
D14*
X164540000Y-89300000D03*
G04 #@! TD*
D15*
G04 #@! TO.C,J1*
X150750000Y-123150000D03*
X153250000Y-123150000D03*
X155750000Y-123150000D03*
X158238070Y-123150000D03*
G04 #@! TD*
D16*
G04 #@! TO.C,RS1*
X152000000Y-113452000D03*
D17*
X147741000Y-110994000D03*
X145283000Y-106735000D03*
X145283000Y-101817000D03*
X147741000Y-97558000D03*
X152000000Y-95100000D03*
X156918000Y-95100000D03*
X161177000Y-97558000D03*
X163635000Y-101817000D03*
X163635000Y-106735000D03*
X161177000Y-110994000D03*
X156918000Y-113452000D03*
X149863000Y-108872000D03*
X149863000Y-99680000D03*
X159055000Y-108872000D03*
X159055000Y-99680000D03*
G04 #@! TD*
D18*
G04 #@! TO.C,R4*
X153500000Y-116500000D03*
X155150000Y-116500000D03*
G04 #@! TD*
D19*
G04 #@! TO.C,R2*
X165750000Y-111000000D03*
X165750000Y-109350000D03*
G04 #@! TD*
D20*
G04 #@! TO.C,R16*
X139750000Y-103425000D03*
X139750000Y-105075000D03*
G04 #@! TD*
D21*
G04 #@! TO.C,R13*
X155750000Y-119750000D03*
X154100000Y-119750000D03*
G04 #@! TD*
D18*
G04 #@! TO.C,R11*
X159425000Y-93750000D03*
X161075000Y-93750000D03*
G04 #@! TD*
G04 #@! TO.C,R3*
X159500000Y-115250000D03*
X161150000Y-115250000D03*
G04 #@! TD*
D19*
G04 #@! TO.C,R8*
X143000000Y-99250000D03*
X143000000Y-97600000D03*
G04 #@! TD*
D18*
G04 #@! TO.C,R1*
X166175000Y-104250000D03*
X167825000Y-104250000D03*
G04 #@! TD*
D19*
G04 #@! TO.C,R18*
X166750000Y-120325000D03*
X166750000Y-118675000D03*
G04 #@! TD*
D18*
G04 #@! TO.C,R10*
X153750000Y-92000000D03*
X155400000Y-92000000D03*
G04 #@! TD*
D19*
G04 #@! TO.C,R7*
X143000000Y-104750000D03*
X143000000Y-103100000D03*
G04 #@! TD*
D20*
G04 #@! TO.C,R15*
X149250000Y-88425000D03*
X149250000Y-90075000D03*
G04 #@! TD*
D18*
G04 #@! TO.C,R5*
X147750000Y-115250000D03*
X149400000Y-115250000D03*
G04 #@! TD*
D20*
G04 #@! TO.C,R14*
X167000000Y-88425000D03*
X167000000Y-90075000D03*
G04 #@! TD*
D18*
G04 #@! TO.C,R9*
X147750000Y-93750000D03*
X149400000Y-93750000D03*
G04 #@! TD*
D20*
G04 #@! TO.C,R19*
X169750000Y-103425000D03*
X169750000Y-105075000D03*
G04 #@! TD*
G04 #@! TO.C,R6*
X143000000Y-109250000D03*
X143000000Y-110900000D03*
G04 #@! TD*
G04 #@! TO.C,R17*
X149250000Y-118425000D03*
X149250000Y-120075000D03*
G04 #@! TD*
G04 #@! TO.C,R12*
X165750000Y-97500000D03*
X165750000Y-99150000D03*
G04 #@! TD*
%LPD*%
M02*
