G04 #@! TF.GenerationSoftware,KiCad,Pcbnew,9.0.4-9.0.4-0~ubuntu24.04.1*
G04 #@! TF.CreationDate,2025-09-13T11:56:24+02:00*
G04 #@! TF.ProjectId,SMG_OVN_DE96-00994A,534d475f-4f56-44e5-9f44-4539362d3030,1*
G04 #@! TF.SameCoordinates,Original*
G04 #@! TF.FileFunction,Copper,L1,Top*
G04 #@! TF.FilePolarity,Positive*
%FSLAX46Y46*%
G04 Gerber Fmt 4.6, Leading zero omitted, Abs format (unit mm)*
G04 Created by KiCad (PCBNEW 9.0.4-9.0.4-0~ubuntu24.04.1) date 2025-09-13 11:56:24*
%MOMM*%
%LPD*%
G01*
G04 APERTURE LIST*
G04 #@! TA.AperFunction,ComponentPad*
%ADD10R,1.800000X1.800000*%
G04 #@! TD*
G04 #@! TA.AperFunction,ComponentPad*
%ADD11C,1.800000*%
G04 #@! TD*
G04 #@! TA.AperFunction,ComponentPad*
%ADD12C,2.000000*%
G04 #@! TD*
G04 #@! TA.AperFunction,ComponentPad*
%ADD13R,2.250000X2.250000*%
G04 #@! TD*
G04 #@! TA.AperFunction,ComponentPad*
%ADD14C,2.250000*%
G04 #@! TD*
G04 #@! TA.AperFunction,Conductor*
%ADD15C,1.000000*%
G04 #@! TD*
G04 APERTURE END LIST*
D10*
G04 #@! TO.P,D4,1,K*
G04 #@! TO.N,/LED_K*
X134900000Y-104300000D03*
D11*
G04 #@! TO.P,D4,2,A*
G04 #@! TO.N,Net-(D4-A)*
X137440000Y-104300000D03*
G04 #@! TD*
D10*
G04 #@! TO.P,D3,1,K*
G04 #@! TO.N,/LED_K*
X144500000Y-89300000D03*
D11*
G04 #@! TO.P,D3,2,A*
G04 #@! TO.N,Net-(D3-A)*
X147040000Y-89300000D03*
G04 #@! TD*
D10*
G04 #@! TO.P,D1,1,K*
G04 #@! TO.N,/LED_K*
X172000000Y-104300000D03*
D11*
G04 #@! TO.P,D1,2,A*
G04 #@! TO.N,Net-(D1-A)*
X174540000Y-104300000D03*
G04 #@! TD*
D10*
G04 #@! TO.P,D5,1,K*
G04 #@! TO.N,/LED_K*
X144500000Y-119300000D03*
D11*
G04 #@! TO.P,D5,2,A*
G04 #@! TO.N,Net-(D5-A)*
X147040000Y-119300000D03*
G04 #@! TD*
D10*
G04 #@! TO.P,D6,1,K*
G04 #@! TO.N,/LED_K*
X162000000Y-119300000D03*
D11*
G04 #@! TO.P,D6,2,A*
G04 #@! TO.N,Net-(D6-A)*
X164540000Y-119300000D03*
G04 #@! TD*
D10*
G04 #@! TO.P,D2,1,K*
G04 #@! TO.N,/LED_K*
X162000000Y-89300000D03*
D11*
G04 #@! TO.P,D2,2,A*
G04 #@! TO.N,Net-(D2-A)*
X164540000Y-89300000D03*
G04 #@! TD*
D12*
G04 #@! TO.P,J1,1,1*
G04 #@! TO.N,GND*
X150750000Y-123150000D03*
G04 #@! TO.P,J1,2,2*
G04 #@! TO.N,/LED_K*
X153250000Y-123150000D03*
G04 #@! TO.P,J1,3,3*
G04 #@! TO.N,/OUT*
X155750000Y-123150000D03*
G04 #@! TO.P,J1,4,4*
G04 #@! TO.N,VDD*
X158238070Y-123150000D03*
G04 #@! TD*
D13*
G04 #@! TO.P,RS1,1*
G04 #@! TO.N,Net-(R4-Pad1)*
X152000000Y-113452000D03*
D14*
G04 #@! TO.P,RS1,2*
G04 #@! TO.N,Net-(R5-Pad1)*
X147741000Y-110994000D03*
G04 #@! TO.P,RS1,3*
G04 #@! TO.N,Net-(R6-Pad1)*
X145283000Y-106735000D03*
G04 #@! TO.P,RS1,4*
G04 #@! TO.N,Net-(R7-Pad2)*
X145283000Y-101817000D03*
G04 #@! TO.P,RS1,5*
G04 #@! TO.N,Net-(R8-Pad2)*
X147741000Y-97558000D03*
G04 #@! TO.P,RS1,6*
G04 #@! TO.N,Net-(R10-Pad1)*
X152000000Y-95100000D03*
G04 #@! TO.P,RS1,7*
G04 #@! TO.N,Net-(R10-Pad2)*
X156918000Y-95100000D03*
G04 #@! TO.P,RS1,8*
G04 #@! TO.N,Net-(R11-Pad2)*
X161177000Y-97558000D03*
G04 #@! TO.P,RS1,9*
G04 #@! TO.N,Net-(R12-Pad2)*
X163635000Y-101817000D03*
G04 #@! TO.P,RS1,10*
G04 #@! TO.N,Net-(R1-Pad1)*
X163635000Y-106735000D03*
G04 #@! TO.P,RS1,11*
G04 #@! TO.N,Net-(R2-Pad1)*
X161177000Y-110994000D03*
G04 #@! TO.P,RS1,12*
G04 #@! TO.N,Net-(R3-Pad1)*
X156918000Y-113452000D03*
G04 #@! TO.P,RS1,13*
G04 #@! TO.N,/OUT*
X149863000Y-108872000D03*
G04 #@! TO.P,RS1,14*
X149863000Y-99680000D03*
G04 #@! TO.P,RS1,15*
X159055000Y-108872000D03*
G04 #@! TO.P,RS1,16*
X159055000Y-99680000D03*
G04 #@! TD*
D15*
G04 #@! TO.N,Net-(R11-Pad2)*
X161192000Y-97558000D02*
X161250000Y-97500000D01*
X161177000Y-97558000D02*
X161192000Y-97558000D01*
G04 #@! TO.N,/OUT*
X154500000Y-115000000D02*
X155709000Y-116209000D01*
X156378000Y-108872000D02*
X154500000Y-110750000D01*
X154500000Y-110750000D02*
X154500000Y-115000000D01*
X155709000Y-116209000D02*
X155709000Y-123150000D01*
X159055000Y-108872000D02*
X156378000Y-108872000D01*
G04 #@! TD*
M02*
