M48
; DRILL file {KiCad 9.0.4-9.0.4-0~ubuntu24.04.1} date 2025-09-10T23:10:04+0200
; FORMAT={-:-/ absolute / metric / decimal}
; #@! TF.CreationDate,2025-09-10T23:10:04+02:00
; #@! TF.GenerationSoftware,Kicad,Pcbnew,9.0.4-9.0.4-0~ubuntu24.04.1
; #@! TF.FileFunction,Plated,1,2,PTH
FMAT,2
METRIC
; #@! TA.AperFunction,Plated,PTH,ComponentDrill
T1C0.900
; #@! TA.AperFunction,Plated,PTH,ComponentDrill
T2C1.020
; #@! TA.AperFunction,Plated,PTH,ComponentDrill
T3C1.500
%
G90
G05
T1
X134.9Y-104.3
X137.44Y-104.3
X144.5Y-89.3
X144.5Y-119.3
X147.04Y-89.3
X147.04Y-119.3
X162.0Y-89.3
X162.0Y-119.3
X164.54Y-89.3
X164.54Y-119.3
X172.0Y-104.3
X174.54Y-104.3
T2
X150.75Y-123.15
X153.25Y-123.15
X155.75Y-123.15
X158.238Y-123.15
T3
X145.283Y-101.817
X145.283Y-106.735
X147.741Y-97.558
X147.741Y-110.994
X149.863Y-99.68
X149.863Y-108.872
X152.0Y-95.1
X152.0Y-113.452
X156.918Y-95.1
X156.918Y-113.452
X159.055Y-99.68
X159.055Y-108.872
X161.177Y-97.558
X161.177Y-110.994
X163.635Y-101.817
X163.635Y-106.735
M30
